<mxfile host="app.diagrams.net" modified="2023-07-18T21:54:44.304Z" agent="Mozilla/5.0 (X11; Ubuntu; Linux x86_64; rv:109.0) Gecko/20100101 Firefox/114.0" etag="rEBRhGcg5JiodjUuvyBg" version="21.6.3" type="device">
  <diagram name="Page-1" id="7znCvXhDJ1AhW_Uowj9H">
    <mxGraphModel dx="988" dy="550" grid="0" gridSize="10" guides="1" tooltips="1" connect="1" arrows="1" fold="1" page="1" pageScale="1" pageWidth="850" pageHeight="1100" math="0" shadow="0">
      <root>
        <mxCell id="0" />
        <mxCell id="1" parent="0" />
        <mxCell id="RxWRS2uSTApHkLGO5Vkt-71" value="" style="rounded=0;whiteSpace=wrap;html=1;" vertex="1" parent="1">
          <mxGeometry x="540" y="440" width="250" height="230" as="geometry" />
        </mxCell>
        <mxCell id="RxWRS2uSTApHkLGO5Vkt-7" value="Gym Env" style="rounded=0;whiteSpace=wrap;html=1;direction=south;" vertex="1" parent="1">
          <mxGeometry x="330" y="490" width="80" height="120" as="geometry" />
        </mxCell>
        <mxCell id="RxWRS2uSTApHkLGO5Vkt-8" value="Agent" style="whiteSpace=wrap;html=1;aspect=fixed;" vertex="1" parent="1">
          <mxGeometry x="110" y="500" width="110" height="110" as="geometry" />
        </mxCell>
        <mxCell id="RxWRS2uSTApHkLGO5Vkt-9" value="" style="endArrow=classic;html=1;rounded=0;exitX=0;exitY=1;exitDx=0;exitDy=0;entryX=0.25;entryY=1;entryDx=0;entryDy=0;exitPerimeter=0;" edge="1" parent="1" source="RxWRS2uSTApHkLGO5Vkt-85" target="RxWRS2uSTApHkLGO5Vkt-7">
          <mxGeometry width="50" height="50" relative="1" as="geometry">
            <mxPoint x="140" y="540" as="sourcePoint" />
            <mxPoint x="190" y="490" as="targetPoint" />
          </mxGeometry>
        </mxCell>
        <mxCell id="RxWRS2uSTApHkLGO5Vkt-10" value="" style="endArrow=classic;html=1;rounded=0;entryX=0.987;entryY=0.9;entryDx=0;entryDy=0;exitX=0.921;exitY=1.005;exitDx=0;exitDy=0;exitPerimeter=0;entryPerimeter=0;" edge="1" parent="1" source="RxWRS2uSTApHkLGO5Vkt-7" target="RxWRS2uSTApHkLGO5Vkt-8">
          <mxGeometry width="50" height="50" relative="1" as="geometry">
            <mxPoint x="330" y="570" as="sourcePoint" />
            <mxPoint x="370" y="530" as="targetPoint" />
          </mxGeometry>
        </mxCell>
        <mxCell id="RxWRS2uSTApHkLGO5Vkt-70" value="" style="shape=image;verticalLabelPosition=bottom;labelBackgroundColor=default;verticalAlign=top;aspect=fixed;imageAspect=0;image=data:image/png,iVBORw0KGgoAAAANSUhEUgAABTQAAAPFCAYAAABbCWeIAAAACXBIWXMAAAAAAAAAAQCEeRdzAAAQAElEQVR4nOzdC7xVY/748e8pdKMLf5cRWi6pHxlM/DSaISmNy5CRSxe1UtEYhFzGXUKaVH4ujXLLGLmkYZJQSq4hpogaRUIppKR7qee/v885a1tnn73Pde2z9nP25/16Pa9z9tpr773K2c45n561HhEAAJCr/MQwDIbDwxcAAAAAAADkDT8xTJ8+fcwjjzzCYDgz9GtWCJoAAAAAAAB5x08MG4gAl+jXrBA0AQAAAAAA8o4vBE04iKAJAAAAAACQn3whaMJBBE0AAAAAAID85AtBEw4iaAIAAAAAAOQnXwiacBBBEwAAAAAAID/5QtCEgwiaAAAAAAAA+ckXgiYcRNAEAAAAAADIT74QNOEggiYAAAAAAEB+8oWgCQcRNAEAAAAAAPKTLwRNOIigCQAAAAAAkJ98IWjCQQRNAAAAAACA/OQLQRMOImgCAAAAAADkJ18ImnAQQRMAAAAAACA/+ULQhIMImgAAAAAAAPnJF4ImHETQBAAAAAAAyE++pATNu+++24aidu3apQ1J7733XhCSzIIFC9Lu07p1a3v/2LFjI41YRxxxhNlxxx0jfc7K+uSTT8yaNWviPoy8RdAEAAAAAADIT76kBM0PP/zQhqIGDRqYn3/+uURIGjJkSDJo3nfffSXu37Bhg9l+++3t/YsWLYo0YuVK0Jw7d67987300ktxH0reImgCAAAAAADkJ19Sgua2bdvMzjvvbGPR7NmzS4SkDh06mIKCAnv/6aefXuL+t956y97XtGnTyCNWrgTNbt26ETRjRtAEAAAAAADIT76kuYbmaaedZmPRqFGjim3fuHGjqVevnmnbtq3Ze++9TaNGjUrM4hwxYoR9rEa/qMUZND/44AMzZswYc9xxxyVnqBI040PQBAAAAAAAyE++pAmaw4cPt7GoZ8+exbZPnz7dbr/xxhtN79697efvvPNOsX3OOussu3306NGRxauffvrJfqzuoBm8rjrggAOSIVMImrEjaAIAAAAAAOQnX9IEzffff9/GoubNmxfbft1119ntr732mhk3bpz9fPDgwcX2adasmd0+f/785LbNmzfb/Y4++miz00472ec988wz7bUoU1166aX28T/++KOdEbnnnnva09xVuqC5YsUKc+ihh5patWqZRx99tMTz6cJEHTt2NLvssovZbbfdzEknnWSmTZtWoddV8+bNM3PmzLGje/fuBM2YETQBAAAAAADyky9pgqaeRt6wYUMbjDQYBtq0aWPq169vNm3aZL799lt7Lc1jjz02ef+yZcvsY3bdddfktrVr19oQKUXX1ezcubM56qijTO3atU3dunXN+PHji712EBZ1tfUddtjBnv5+zz332PtSg+YPP/xgDjvssIwxs2vXrva59thjD/s8erp4nTp17HHfdddd5X7dVMG+BM34EDQBAAAAAADyky9pgqbSmYx636RJk+zt1atX2wh5wgknJPfRmZEa/zRaqueee84+5owzzkjuo6en67YePXrYa3AGXnnlFRtHd999d7NmzZrk9iAWaoTUWZFh4aBZVsx8/PHH7fOcffbZZt26dcntCxYssNf/3G677YrNEC3tdVMRNONH0AQAAAAAAMhPvmQImnfccYcNRtdff729PXHiRHt76NChyX2uuOIKu23y5Mn29jXXXJOc5RjQhYOaNGlig2iq4PEPPvhgclsQC2+66aYS+wdBU2Pm4Ycfbvd76KGH0gavgw8+2O4bjqWBxx57zD722muvLdfrpiJoxo+gCQAAAAAAkJ98yRA0Z86caYPR8ccfb28PGDDA3p41a1Zyn5dfftluu+yyy+zt9u3b29t6nUm1dOlSe1tne6ajszT1fg2bgSAWPv/88yX216Cpp4wHMVPHkCFDSuyn1+zUGZj77ruvuffee0uMILzq6e/led1UBM34ETQBAAAAAADyky8ZguaWLVtMgwYN7CI+W7duNa1atTKNGze2nwfWr19vA+Mhhxxit+u+4X3effddG5369OmTNkrpwkF6vy4QFAhi4XvvvVdi/+BanDrzUk8p14/16tUzn3/+ebH99LakrEiebgSxtqzXTUXQjB9BEwAAAAAAID/5kiFoKl0dXO+fMmWK/Xj66aeX2CeYlRnsc8oppyTvC2ZonnzyyWmff/r06cVmeKogFupK66k0aOp1PN988017Wxf20X07depUbD8Nrbrwz4knnlhmGCvP62bal6AZH4ImAAAAAABAfvKllKA5ePBgG43atWtnP6Zb9VtP+Q7vM2zYsGL362rpO++8s/npp59KPPbqq6+2jxkzZkxyW1lBM7zKua7G3rp1a7v/E088UWxfPd1cV1vXuJlq2rRp5qKLLjKvv/56uV43FUEzfgRNAAAAAACA/ORLKUFTg5+ETtFOt/q3XlMzvI+eZh52ww032O29evWy17YMvPrqq8lVzsOxsyJBU+l+OmtTVydftWpVcrsuTCRFK66Ho+YXX3xhdtllF7s6+uLFi8v1uqkImvEjaAIAAAAAAOQnX0oJmhs3bjR169a14UiDYTp6vUwNhLqPXnNTr70Ztnbt2uQsymbNmpkuXbqY3/3udzZC6nNPmDCh2P4VDZrhx/Tv3z+5TY9Dr5Gp23Wm5h//+Efz29/+1r6ubtPFgcr7uplej6AZH4ImAAAAAABAfvKllKCpglPJu3fvnnEfXdRH99FrbqajMzMHDRpk2rRpYxcOOuCAA+xjPvnkkxL7ViZorlmzxuy11172uplvv/12crvGVr3O5u9//3u7WJFGWb3epp5yXpHXzbQvQTM+BE0AAAAAAID85EsZQRPIRQRNAAAAAACA/OQLQRMOImgCAAAAAADkJ18ImnAQQRMAAAAAACA/+ULQhIMImgAAAAAAAPnJF4ImHETQBAAAAAAAyE++EDThIIImAAAAAABAfvKFoAkHETQBAAAAAADyky8ETTiIoAkAAAAAAJCffCFowkEETQAAAAAAgPzkC0ETDiJoAgAAAAAA5CdfCJpwEEETAAAAAAAgP/lC0ISDCJoAAAAAAAD5yReCJhxE0AQAAAAAAMhPvhA04SCCJgAAAAAAQH7yhaAJBxE0AQAAAAAA8pMvBE04iKAJAAAAAACQn3whaMJBBE0AAAAAAID85AtBEw4iaAIAAAAAAOQnXwiacBBBEwAAAAAAID/5UkbQXLlypbnuuuvM4Ycfbpo0aWLq1q1r9t13X9OzZ0/zzjvvRBaoxo8fb5o1a8ZgJMfAgQMJmgAAAAAAACjGl1KC5tSpU03Tpk2DcGQ8z7Nhc4cddrC3a9euba6//nqzefPmKgfNIFDtsssusYc0Rrwj+Jrr1asXQRMAAAAAAADF+JIhaD799NOmoKDAjmuuucZ8//33yfs2bdpknn/+ebPHHnvYqHTqqadGFjQ5/R1ffPEFQRMAAAAAAABp+ZImIq5ZsyY5S27ixIkZo9K3335rWrZsafd77rnnqhSxCJoIEDQBAAAAAACQiS9pIqLOyNTt55xzTpnx6YUXXkiejl6VU88JmggQNAEAAAAAAJCJL2kiosZJ3T5v3rxyBagjjjjC7v/666/b26eccoq9feutt5Y7YhE0ESBoAgAAAAAAIBNfUiKiXitTt+lq5lu3bi1XgOrXr599zJ133mlvEzRRFQRNAAAAAAAAZOJLSkT85JNPbCg65JBDyh2gNGTqY6666ip7e9GiRWbOnDlm+fLl5X4OgiYCBE0AAAAAAABk4ksEQXPYsGH2MVdffXWlIxZBEwGCJgAAAAAAADLxpZRTzrdt21auANWnTx/7mOHDh1c6YhE0ESBoAgAAAAAAIBNfSlkUaP78+eUKUEceeaTd/80336x0xCJoIkDQBAAAAAAAQCa+pImI11xzjY1F3bt3TxuTPvroI3PvvffazydNmmT3bdq0qdmyZUulIxZBEwGCJgAAAAAAADLxJU1EXLNmjQ2UBQUF5sUXXywRky644AIbk/r27Wv2339/+/k999xTpYhF0ESAoAkAAAAAAIBMfMkQEZ9++mkbNGvVqmUGDRpkVq9enbzv559/Nh07dgyCkunQoYPZunVr8v4vv/zSfPzxx+a7774rd8QiaCJA0AQAAAAAAEAmvpQSEadMmWL23HNPG440bh544IHmmGOOsbM3pShm6va99trLvP/++8nHnXLKKfa+W2+9tdwRi6CJAEETAAAAAAAAmfhSRkT84Ycf7DU1DzvsMNOoUSNTv35907JlS9OtWze7CNBbb71ldt99d1OvXj2zcOFC+xiCJqqCoAkAAAAAAIBMfIkgIuop5rfffnuVnoOgiQBBEwAAAAAAAJn4kiMRcejQoTZQ6Sntffr0YeTxOPvss+3Xwoknnpjx64WgCQAAAAAAkJ98SQmad999tw1F7dq1SxuS3nvvveT1MxcsWJB2n9atW9v7x44dW+6gqSEreF4GQ8f+++9P0AQAAAAAAEAxfmIUC5offvihDUUNGjSwq5mnGjJkSDI43XfffSXu37Bhg9l+++3t/YsWLSp30AxmaGrY1ONh5O8YNmyY/VpghiYAAAAAAABS+ZISNLdt22Z23nlnG4tmz55dIiR16NDBrmyu959++ukl7tdFgvQ+XQm9IoJAFT4W5CeuoQkAAAAAAIBMfEkTEU877TQbi0aNGlVs+8aNG+1q5m3btjV77723XfU8dRbniBEj7GN1FfSKIGgiQNAEAAAAAABAJr6kiYjDhw+3sahnz57Ftk+fPt1uv/HGG03v3r3t5++8806xfc466yy7ffTo0RWKWARNBAiaAAAAAAAAyMSXNBHx/ffft7GoefPmxbZfd911dvtrr71mxo0bZz8fPHhwsX2aNWtmt8+fPz+57ZRTTrHbbr311jIDFUETBE0AAAAAAABk4kuaiKinkTds2NAGoxUrViS3t2nTxtSvX99s2rTJfPvtt/Zamscee2zy/mXLltnH7LrrrsWej6CJiiBoAgAAAAAAIBNfMkTEk046yQajSZMm2durV682tWvXNieccEJyn0MPPdTssMMOZu3atfb2c889Zx9zxhlnFHsuXe18zpw5Zvny5WUGKoImCJoAAAAAAADIxJcMEfGOO+6wwej666+3tydOnGhvDx06NLnPFVdcYbdNnjzZ3r7mmmvs7bvvvrvCEYugiQBBEwAAAAAAoGYrqMJjfckQEWfOnGmD0fHHH29vDxgwwN6eNWtWcp+XX37Zbrvsssvs7fbt29vbOhuzogiaCFRj0KzKewcAAAAAAACV1CUx7kiMxpV4rC8ZIuKWLVtMgwYNzE477WS2bt1qWrVqZRo3bmw/D6xfv97UqVPHHHLIIXa77pu6T3kRNBHIdtCstYPsuOtRcnXD5nJaJd4zAAAAAAAAqKLtEuOzxFiZGDckRqMKPNaXUiJix44dbTSaMmWK/Xj66aeX2CeYlRnsowsAVQZBE4FsBc3adaTRbkfLDQddIitbnC+fFdSy7x0AAAAAAADEwJfCXsPi7wAAEABJREFUuKNjVWLcKOULm/ZxmSLi4MGD7XO2a9fOfrznnntK7DNkyJBi+wwbNqxSEYugiUDUQbMoZN540CWy6pCrxOho0oprbwIAAAAAAMQpmKVpQuNHKTts+lJKRHz99dfDz2fmzZtXYh+9pmZ4n3fffbfEPl9++aX5+OOPzXfffVdmoCJoIqqgmQyZA34JmTpa9GN2JgAAAAAAQC7wpXjQ3Fb0cY1kvsamfUymiLhx40ZTt25d+3x77LFH2n30epm77LKL3UevuanX3kylp6Hr/bfeemuZgYqgiaoGzeAamUHIbHWVbAsHzSatpFfUbz4AAAAAAABUXO3E+FR+CZmZwmaT0GN8KSMiBqeSd+/ePeM+Z555pt1Hr7mZDkETFVHZoFlrB9mptJCpt5mdCQAAAAAAkFt05pnJMNKFTV9yJCISNBGoaNAsK2QWm515sPSs7jclAAAAAAD5bK/E+JzBKGUsSozNUnKWZrqwqdfYfFZyJCIGgUpPX2/WrBkjj0fTpk3LFTRr1xGz29Hy7EED5MeiYJkxZOp9B/aThamzM3/VXka27C+LoxwNm0tniRjHCQAAAABwlSeFIeoniT+cMXJzOBs0x48fH3tIY+TWGDhwYMavl2TQbEvQ5DgBAAAAALnMk8IQ9UjMx4Hc5ewp50BFcMo5AAAAAABu8ISgicyysigQkIsqsyjQISwKBAAAAABAtfOEoInMUmdnlhYyA74QNOGgdEEzUFbYZJYmAAAAAADVxxOCJtLTGWefSfGgqdfIvCkxGpfyOF8ImnBQaUEzULuONN6trdx00KXJa2zawSxNAAAAAACqjycETaQXnp2pIfNmKT1kBnwhaMJB5QmaAQ2bu7eVm8Nhs0kr+54BAAAAAABZ5glBEyXpTLOFibFKyh8yA74QNOGgigTNQDJsDpBVLdKseA4AAAAAAKLnCUETJZ0hma+RWRZfCJpwUGWCZiC4xmbDA+TUSrxnAAAAAABABXhC0ERJBVV4rC8ETTioKkEzovcOAAAAAAAoB08ImoiWLwRNOCiioAkAAAAAALLME4ImouULQRMOImgCAAAAAOAGTwiaiJYvBE04iKAJAAAAAIAbPCFoIlq+EDThIIImAAAAAABu8ISgiWj5QtCEgwiaAAAAAAC4wROCJqLlC0ETDiJoAgAAAADgBk8ImoiWLwRNOIigCQAAAACAGzwhaCJavhA04SCCJgAAAAAAbvCEoIlo+ULQhIMImgAAAAAAuMETgiai5QtBEw4iaAIAAAAA4AZPCJoorqCKj/eFoAkHETQBAAAAAHCDJwRNhOz+Oxm086FyfkEt2a6ST+ELQRMOImjmj1+1l5E64j4OAAAAAEDleELQREidJtK81RWy5cC+8mnjg+XcggKpXcGn8IWgCQcRNPNHy/6yWEfcxwEAAAAAqBxPCJpIsddJMvaQq8ToOLCfLGxysPSsQNj0haAJBxE08wdBEwAAAADc5glBEyl2aCIHtLpCfi6KmtsqGDZ9IWjCQQTN/EHQBAAAAAC3eULQRBp7nSSPBLM07biyMGy2uEC+KOMam74QNOEggmb+IGgCAAAAgNs8IWgijR0ay/46S7NV0QzNCoRNXwiacBBBM38QNAEAAADAbZ4QNJHBXifKw8ViZvqwuTglbPpC0ISDCJr5g6AJAAAAAG7zJIaguWcHubvF+fJ5RcdO+8vJvF71vV4wS/OQ1FmaxUfxa2zWkvOEoAkHETTzB0ETAAAAANzmCUGT18ugKGhuKU/QbNFPPmvSSnoRNOEqgmb+IGgCAAAAgNs84ZRzZFDaKefBtTU55Rw1BUEzfxA0AQAAAMBtnhA0kUamRYFKCZkBXwiacBBBM38QNAEAAADAbZ4QNJHGXifJIxUMmQFfCJpwEEEzfxA0AQAAAMBtnhA0kSK0GNAvq5n/co3MTCEz4AtBEw4iaOYPgiYAAAAAuM0TgiZShGdnViBkBnwhaMJBBM38QdAEAAAAALd5QtBEyA5N5ABd2bzF+TZk+hUImQFfCJpwEEEzfxA0AQAAAMBtnhA0EbJ7W7m5jGtklsUXgiYcRNDMHwRNAAAAAHCbJwRNFFdQxcf7QtCEgwia+YOgCQAAAABu84SgiWj5QtCEgwia+YOgCQAAAABu84SgiWj5QtCEgwia+YOgCQAAAABu86Sagmb9PaVNg73l2Gy/DmLnC0ETDiJo5g+CJgAAAAC4zZNqCprNe8tHB10sK7L9OoidLwRNOIigmT8ImgAAAADgNk8ImoiWLwRNOIigmT8aNpfOOuI+DgAAAABA5XhC0ES0fCFowkEETQAAAAAA3OAJQRPR8oWgCQcRNAEAAAAAcIMnBE1EyxeCJhxE0AQAAAAAwA2eEDQRLV8ImnAQQRMAAAAAADd4QtBEtHwhaMJBBE0AAAAAANzgCUET0fKFoAkHETQBAAAAAHCDJwRNRMsXgiYcRNAEAAAAAMANnhA0ES1fCJpwEEETAAAAAAA3eELQRLR8IWjCQQRNAAAAAADc4AlBE9HyhaAJBxE0AQAAAABwgycETUTLF4ImHETQBAAAAADADZ5UU9Bs2knGNOssE7L9OoidLwRNOIigCQAAAACAGzyppqCJvOELQRMOImgCAAAAAOAGTwiaiJYvBE04iKAJAAAAAIAbPCFoIlq+EDThIIImAAAAAABu8ISgiWj5QtCEgwiaAAAAAAC4wROCJqLlC0ETDiJoAgAAAADgBk8ImoiWLwRNOIigCQAAAACAGzwhaCJavhA04SCCJgAAAAAAbvCEoIlo+ULQhIMImgAAAAAAuMETgiai5QtBEw4iaOaPX7WXkTriPg4AAAAAQOV4QtBEtHwhaMJBBM380bK/LNYR93EAAAAAACrHE4ImouULQRMOImjmD4ImAAAAALjNE4ImouULQRMOImjmD4ImAAAAALjNE4ImouULQRMOImjmD4ImAAAAALjNk2oKmvX3lDYN9pZjs/06iJ0vBE04iKCZPwiaAAAAAOA2T6opaDbvLR8ddLGsyPbrIHa+EDThIIJm/iBoAgAAV+2RGHcmxiuJ8W1i/JAY7yXG0MTYOcbjyrZ7pPAH9UPL2AYgf3hC0ES0fCFowkEEzfxB0AQAAC46MzH0F2r9gXVzYnyQGPMTY1PRth8To3VsRydSOzFqZem5CZoAUnlC0ES0fCFowkEEzfxB0AQAAK45RQp/UNV4eX5i1A3d1ygxhhfd/0ViNK72oxM5quj1B2fp+QmaAFJ5QtBEtHwhaMJBBM38QdAEAAAuqZMY30jhD6odStlvXNE+F1THQaUgaAKobp4QNBEtXwiacBBBM38QNAEAgEt6S+EPqS+WsV/7xNiSGC9F/PrbS+Hp5KUpb9DcqZLHUN1Bs7LHCaD6eELQRLR8IWjCQQTN/EHQBAAALhkvhT+k/rEKz6FR8vrEeCsxfkqMBYnxdGK0SrPvkKLX2zsxHkqMjYmxLTG+TIzRibFryv4vFu0fHmckxsiiz/WU+H6JsTQxplbymCoTNHslxhQpvO6oLqD0ghRG31RlHSeA3OQJQRPR8oWgCQcRNPMHQRMAALhksRT+kHpAJR/fIDFmFT3HksR4NjHeSYyfE2NDYnRJ2T8Imi8V3f/vxBgTOo43UvbvLL9EQQ2IA4qONdh2sRRe+/O5xLioksdU0aAZnH6/rOh1p8svYXZAyr6lHSeA3OUJQRPR8oWgCQcRNPMHQRMAALhknRSGuDqVfPwgKfwh97GU5zi+6LmXJ8aOoe1B0NRZk4eFtteXwlmUel+zlNdId8p5EAo1Kv5PFY+pIkGzW9H2J4uOOdA8Mb6SwtPyw7NASztOALnLE4ImouULQRMOImjmD4ImAABwic5Y3JoYO1Ty8T8mxsrEaJjmvmFS+ANwn9C2IGjekmb//yu676iU7aUFzZsjOKaKBM2PE2ONFA+igR5Fj7mtnMcJIHd5QtBEtHwhaMJBBM38QdAEAAAu+VoKf0htXo5960nh6dy1im7vWfTYFzLsf3zR/cNC24KgeWKa/YP7KhI0T0nZtzLHVN6gqdfl1BmYixLjL2nG7UWPebYcxwkgt3lC0ES0fCFowkEEzfxB0AQAAC6ZKIU/pJ5ajn1/kMLT03cpuv2/RY99MMP+LYvufzq0LVO0LO2+0oLmkSn7VuaYyhs095OSCxSlG6+U4zgB5DZPCJqIli8ETTiIoJk/CJoAAMAlF0rhD6nTytjvsKL9PgptC2ZDTsrwmOOK7h8R2hZ10Gydsm9ljqm8QVNnqGrQnZzhudPJdJwAcpsnBE1EyxeCJhxE0MwfBE0AAOASPYVcZ17qD6qdM+xTWwpXI089VVutLnr8Tmked0fRY/qFtmU7aFbmmCpyDU093fw7KYybqdoXPe735TxOALnLk2oKmk07yZhmnWVCtl8HsfOFoAkHETTzB0ETAAC4pqsU/qD6c2IMlOKxThe/eazo/iWJ0SjlsbcU3TdWCq8xGWgnv6woHg6LVQma4ZhaWiis6DFVJGheXLT9GSn+9+Qlhs6w0gWWwqu0EzQBN3lSTUETecMXgiYcRNDMHwRNAADgogukcPVu/YFVF76ZnRgzE2Nt0TaNgMemeZzO8Hy/aJ/FiTE+Md6QwjiqK6j/KWX/ygTNVkXblybG3YlxuJQeCit6TBUJmttJ4TUy9T6dqanXIH276Ll1219S9idoAm7yhKCJaPlC0ISDCJr5o2Fz6awj7uMAAACoKJ1Z+PfEeCsxViXGt4nxuhSGxtSZmWE6C/JGKQygPyXGQilcdOegNPtWJmgWSOE1L3VFdj2dXFdILysUVuSYKhI0la7yPkAK/27072lZYrwkhaecpyJoAm7yhKCJaPlC0ISDCJoAAAAAALjBE4ImouULQRMOImgCAAAg1+hMw/0S44TEOFMKF8o5n8FwfOjXsX49n5AY+0rh1zlQUZ4QNBEtPzFMnz59bCBiMFwZ+jUrBE0AAADErG5inJ0YEwoKClZK4Q+oDEaNHUVf57qIk0bOOgKUjyeFX0OPxHwcqDl8yYH/J9bUUbtO4Yj7OGr48AUAAACoZrUT47yCggJdqdz+YLrffvtt69Gjh7nlllvM/fffb0aPHs1g1IihX8+DBg0y+vW97777bgu+5hNf/3odVl+YtYmyeVL4dfNIzMeBmuMAKfz/DyMLY7e28qyOuI+jhg/9GgYAAACqzRGJ8XFimPr162+78sorzfz58+O+JBNQbebNm2euuOIKU69ePRs3CwoK5iY+/ibetyVynCcETcAJtetIo4MulR916OdxHw8AAACAqjunoKBgQ61atbadf/755ptvvom7LQGxWbp0qenbt6/R90PifbE+8f44K+43KHKWJwRNwAm7tZWbDrlKjA79PO7jAQAAAFA11yTGtkaNGm17+eWX425JQM6YPHmyadiwoc7W1HFVzO9T5CZPCJpAzrOzMwfIqkOukm06imZpNo77uAAAAABUTtfE2KbXDy/dtFUAABAASURBVPzvf/8bdz8Cco5edqHo+po6mKmJVJ4QNIGcF56dySxNAAAAwG1H6GnmOjOTmAlkplFTZ2oWnX7ONTUR5glBE8hpwezMVoWzM4OgqbM0V9euK03iPj4AAAAA5Ve7oKDgY71GIKeZA2XT08+Lrqn5kbD6OX7hCUETyGnpZmcySxMAAABw03mJYfr37x93JwKc0adPHw1XOnrF/P5F7vCkmoJm/T2lTYO95dhsvw5Qk2SYncksTQAAAMBBdQsKCr6uX7/+NlYzB8pvyZIlpl69ejpL86vE+6hO3G9k5ARPqiloNu8tHx10sazI9usANUlpszOZpQkAAAC4RRc2MVdeeWXcfQhwzsCBA4NZml1ifh8jN3hC0ARyUnJl8yvTzs4Mz9JkxXMAAADAARMSwy50AqBiPv744yBoPh3z+xi5wROCJpCTdjtabkwXMA9Jc/r57m3l5riPFwAAAEApCgoKVu63337b4g5DgKuaNWump51rWGJxIHhC0ARyjp2deYmsSgmZ5sB+slBHeJsOZmkCAAAAuc+ce+65cTchwFndu3cPZml6Mb+XET9PCJpAztntaLkhPAOzRT/5rMnB0rOglmynQz8PhU1maQIAAAAOMIMHD467CQHOGjRoUBA0O8T9ZkbsPCFoAjmlaHbmymTIbCW9NGKm7heETd3HztIcIKuYpQkAAADkLjNq1Ki4mxDgrHvvvTcImmfG/WZG7DwhaAI5RWdntjjfhkw/NWQ2ailn6whvs2GzlfRq0U8WMksTAAAAyF3mkUceibsJAc7S948URqxecb+ZETtPCJpALilo2Fw6p5uRqVr2l8U60j4w8Rh9rBRwfWQAAAAgFxE0gSoIBU0/5vcy4ucJQRNwRmlBE0D5/Kq9jNQR93EAAID8Q9AEqoCgiRBPCJqAMwiaQNXxPgIAAHEhaAJVQNBEiCcETcAZhBig6ngfAQCAuBA0gSogaCLEE4Im4Iz9usoMHXEfB+AygiYAAIgLQTMmy5YtMzNmzDAvv/xymWPKlCkZtwf3BZ8HY+rUqcmPr7/+ulmxYkXcf+QaiaCJEE8ImgCAPELQBAAAcSFoVrPNmzebm2++2Zx33nlmzJgx5vHHH0+Of/7zn8U+D4/HHnusxO3UbamP1c/HjRtn7r//ftOrVy8zcuRI8/PPP8f9V1CjEDQR4kk1Bc2mnWRMs84yIduvAwBAaQiaAAAgLgTNajZ06FAzduxYs3Xr1mp93W3btpn/+7//Mw899FC1vm5NR9BEiCfVFDQBAMgFBE0AABAXgmY1Wr16tTn99NNtXIzDli1bzDnnnGNniSIaBE2EeELQBADkEYImAACIC0GzGn3++eemd+/esR5D3759zcqVK2M9hpqEoIkQTwiaAIA8QtAEAABxIWhmycaNG0tcr/K///2vDYpx6tevHwsERYigiRBPCJqAM/bvITN1xH0cgMsImgAAIC4EzSzRBX+OOeYYM2rUKPP999/bbfPmzcuJoBkcD6qOoIkQTwiagDMIMUDV8T4CAABxiS1oPv3006Z79+5ZGz169KjwqMrzpu53xBFHmIKCAjsaN25sunbtau68886MQfOnn36yi/Zs2LAhkr/fNWvWpF3RnKAZLYImQjwhaALOIMQAVcf7CAAAxCW2oHnuueca3/fN/fffb0aPHl3m0BmPFR3led4oRrrX08V3NGZuv/32Nm4OHz7cTJw40Zx//vlp/z4ee+wx8z//8z9m6tSpxbYHCwiFFxLSz9MtLBTedtNNN5lFixaV2IdTzqNF0ESIJwRNwBmEGKDqeB8BAIC4xBo0//nPf8by2tXhmWeeMZdeeql59913zdatW+22Tz75JG3Q1Pt1lufMmTPNhRdemNw+adIk89e//tXcfvvtZuDAgXbGpZ62ft1119nxyiuv2P308/vuu89GzCFDhpivvvrKtG3b1tx8880lwqfOECVoRoegiRBPCJqAMwgxQNXxPgIAAHGJLWj27NnTzkqsqdLNoNQYqTMkU3322WfmkksuscGyQ4cO9vTz7777zp6mrtv0FPGjjjrKno7ep08fs27dOrNp0ybTpUsXs3btWnPaaaeZ2bNn2zCqj1m1apUNobqqeipdZX3y5Mlm1qxZdrz33nuVGsHjszkq8pr69xUHgiZCPCFoAs5o2Fw664j7OACXETQBAEBcYg2a//jHP2J57bh8/PHHaYPmoEGD7HU37777bnPccceZJ554wrz99tt2u9I42q1bN/Pll1+aI4880tx6663mtttus0Hz66+/thFTr5mpNFguXbrUXHvttWmDpp4K36pVK/s8eip88LF169YZh95fnqHPVZVRkdcIb9trr73MxRdfnN3/eBkQNBHiCUETAJBHCJoAACAuzNCsRumC5saNG03nzp3NypUr7cxMncV5xhlnmIULF5r+/fvbfVavXm1+97vf2Zmaeqp+YMaMGWbz5s02UgZBs1evXmbJkiUZg6aecl7TFgXSleQzXZs02wiaCPGEoAkAyCMETQAAEBeCZpbp6eHB6efpgqbOxNTZlgHd909/+pP55ptv7ExMPXX8qquuMp06dbKnn9977712gSH9eMMNN9j9L7jgAnvqufrLX/5iZ2g+/PDD9tqaqae+18RFgf7+978TNJELPCFoAgDyCEETAADEJSeDpkY4nbmo14wMxvr16+0If56NEX7NdK9f0efQWZZ6jcvx48ebN998s0R40+teaqgM27Jli/3zz5kzx87A1Cj65z//OXm/LvqzePHiZKzU/VM/16GPTVVTg6ZG3TgQNBHiCUETAJBHCJoAACAusQbNTKuc6wI3l112mXnooYfsePDBB5Mfg/HAAw9kHGPGjCkxMu1T2mNT7wu/fuoIH1/4uHW18Xr16tlrY+qMynTX0ExHI+fgwYPNjTfeaC6//HIbN6Ogr//DDz9E8ly5gqCJHOFJNQXN+ntKmwZ7y7HZfh2gJmvUUs7WEfdxAC4jaAIAgLjk5KJAuqL1lClTqvmIsuO1114zn376qZ2JmWlRoNKkzt6sKoJmtAiaCPGkmoJm897y0UEXy4psvw5QkxFigKrjfQQAAOKSk0Hz3XffrTFBM0zDpi7aEyddFGjVqlWxHkPUCJrIEZ4QNAFnEGKAqmvYXDrriPs4AABA/oktaOpq3fkwQzNMZ0aedNJJkc+6LC+9pueZZ55pNm3aFMvrZwtBEznCE4Im4AyCJgAAAOCu2ILm2WefbZ588sm099XUoKkhU1ce11XKqztq6mJBgwYNsquf1zQETeQITwiagDMImgAAAIC7CJrVTGdpXnzxxeaMM86wiwTdfPPNNjQGHys79PHBCG+75ZZbbETt0qWL/VxnadY0BE3kCE8ImoAz9usqM3TEfRwAAAAAKi62oHnWWWeZp556Ku19NTloqs2bN5v//ve/5oUXXjDjx483zzzzjJkwYYL517/+Zcezzz6b/Dy4XdpIfYw+lz6nPreOF1980SxevDi2U92zjaCJHOEJQRMAAAAAgKwjaMJ5BE3kCE8ImgAAAAAAZB1BE84jaCJHeELQBAAAAAAg6yILmvPmzSux7euvvzbr1q1Lu39pQfPdd9/NStBcuXJl5M+J+BE0kSM8IWgCAAAAAJB1VQqac+bMsfFxxYoVpkePHmb16tVmwYIFZtq0aWb9+vXmjjvuMFOnTrWfv/baa+b7779PPlYXxdFrPaYTDprbtm2zj9+4caP9fNWqVfZjEEp/+ukn+3Ht2rX2o77Gpk2bkvvoIji6wvePP/5ohg4dWuk/K3IXQRM5whOCJgAAAAAAWVfpoKmL2jz66KNm9uzZ5vPPPzc33XSTDY+TJk0yX375pbn//vvtKuZffPGFGTZsmJ0dqat6ByHytNNOMxMnTkz73OGgqbG0W7duNp6OHDnSvP766+buu+82Dz/8sF0x/A9/+IMNqQ8++KBdAOeNN94wV155pQ2Y55xzjnn//ffNbbfdZmbMmGF836/UnxW5jaCJHOEJQRNwxv49ZKaOuI8DAAAAQMVVOmhqmNTH3n777WbhwoXmlltusdFS49Lzzz9vRowYYVfa/uqrr0zfvn1toNToGMyo1KD573//O+1zh4Pmd999Z8aOHWtnXurz6IrdQ4YMMR988IFd0VtDqp66rqFTY6a+toZMDZr6eho7NagqnTGKmqe8QVMvgfDhhx+at99+287cjQJBEyGeEDQBZ7TsL4t1xH0cAAAAACqu0kFz0aJF5p///KeNijr7UWdffvzxx3YW5SuvvGIGDx5sZ2DOmjXLDB8+3C70o7M29fRvVd6gqSHzH//4hw1Qt956qw2peqq6noLevXt3s3jxYtOxY0cbLq+66io7S1TDpwZN/bPpfoMGDbIh9aKLLqrUnxW5TYPm+eefbz/funWrDenjxo2zs4OXLl1qnnjiCXvpA/060ssOvPrqq/YSBZMnT7aziJcsWWI/169H/ZrevHlzuV+boIkQTwiagDMImgAAAIC7qnQNzW+//dYsW7bMXq9STw3XePjNN9/YuKgzKzUM6T4aMTU86v2B8gZNDZl6SrvS53jppZfsdTSVnu6ur/3mm2/aj7rf9OnT7Sy85cuX25mj6rPPPrMRS2d1ouYZNWpUMmjq9VPfeecdO1v3vvvus7NydZtGd/3vrzN877nnHntNV43x+jX5t7/9zcZy/VrW+zXClxdBEyGeVFPQbNpJxjTrLBOy/TpATUbQBAAAANwV2SrnFVXeoAmUJTxDc+7cuWb06NE2dmu41FCpszY1dv/nP/+xMzF1u8ZMnUn8888/2+ipUVNn/+qCVjNnziz3axM0EeJJNQVNAFVH0AQAAADcFWvQzLQokJ6eTtBEeYWDpl6zVS9x8Oyzz5p7773XzszU08r1dHOd4fvAAw+Yxx9/3M4c1hmcjz32mJ2Rqdt1NrBeX1NjaHkRNBHiCUETcEbD5tJZR9zHAQAAAKDiIg+aenqvDp0VVxpdnVxP700ndYamnk6uM+n0I5AqHDSVfu3p10rwNRhct1Xp11H4fr0dPEbp9op8nRE0EeIJQRMAAAAAgKyLNGjqwjvjx4+319B87rnnSt23U6dO5uWXX057X+oMTX0+XdBHFyLS04mBsNSgWZ0ImgjxhKAJAAAAAEDWRRo0dUXprl272oVWNG6WpiJBU1er1msh6ky7Hj16RHa8qBkImsgRnhA0AQAAAADIushPOddrEl566aVlnrZbkaCpz6nXOHz44YeTK54DgUxBc9WqVVl/bYImQjwhaAIAAAAAkHWRBk0NSBoyr776arNmzRqzdu3ajPtWJGgOGDDALF++3J52HoRSrqeJQLqguWTJEnPllVdm/bUJmgjxhKAJOKNRSzlbR9zHAQAAAKDiIg2azzzzjPnhhx/MK6+8YtatW2eeeuqpjPuWN2iuXLnSnsaui7YMGjTIztDU5//+++8jO264LTVoauz+z3/+Yy6//PIyF6eqKoIhbJyBAAAQAElEQVQmQjwhaALOaNlfFuuI+zgAAAAAVFykQVNDkl7nUj8uW7bMLFiwIOO+J5xwgg2T6YSDpl6L86uvvrJhSmd96izQGTNmRHbMcF9q0HzjjTfMuHHjTJcuXcz69euz+toETYR4QtAEnEHQBKruV+1lpI64jwMAAOSfyK+hGVixYoUNkJkcf/zxGcNk6innqebMmcMp50gKB01dkEq/rjSA33XXXWbu3Llm3rx5ZtOmTVl5bYImQjwhaALOIGgCVcf7CAAAxCVrQbMs7du3r3TQBMJGjRqVDJqvvvqqvSyBBu8XX3zRfh1NmzbN/Pzzz1l5bYImQjwhaALOIMQAVcf7CAAAxIWgCefpDM0LLrgg4/3Tp0/P2oxegiZCPCFoAs7Yr6vM0BH3cQAuI2gCAIC45GTQnDVrVpWD5oYNG8zmzZvL3G/27NnmX//6l/n3v/9tH1Neel3Phx56yPztb39zfgwdOrTYSL3/0UcfNd98801V/nNkVWlBU0OmXoc1WwiaCPGEoAkAyCMETQAAEJfYguZxxx1nXnvttbT3RRE0Fy9ebK/jWRZdif2jjz4yI0eONMuXLy9zfw1kGjJ79uxpXnjhBRtEP/zwQzv02p46Um+nDn1MdY5MxxEewTGnHreuFq6xt1evXnYV+1xU1gzNbCJoIsSTagqa9feUNg32lmOz/ToAAJSGoAkAAOKSk0EzilPOlyxZYlauXFnmftdff70ZMWKEve5iqnSnKeuxXXjhhXY193yis1379u1b6sr1cUld5bw6ETQR4kk1Bc3mveWjgy6WFdl+HQAASkPQBAAAcYktaP7+9783b775Ztr7opihuWrVKrNu3bpS99FTkYcPH27eeuut5MIxujp2cKr6/Pnzi0VRDZwXXXSR+fTTT6t0bK764IMPzC233BL3YZRA0ESO8ISgCQDIIwRNAAAQl1iDpobEdKKYofnll1+Wecr5Z599ZqOqhsypU6eat99+2wZM/aixM/W0dZ2V2bFjx6xekzGXff/996Z///5ZW2CnsgiayBGeEDQBAHmEoAkAAOKSk0HznXfesYGxKnQRG52lqTRYarjU09BLs2jRIrvvjz/+aG/rwj/ffvtt8v5NmzaZY445Jm+D5g8//BBbOCwNQRM5whOCJuCM/XvITB1xHwfgMoImAACIS04Gzblz55prr73WPPDAAyXGmDFj7EjdFr794IMPmvfff98GOL0+ZosWLUzt2rXNJZdcYvfVP7OO+++/3w5d5EdH8Dxjx441Dz/8cPK2fq5j2LBhZp999snroNmvX7+4D6MEgiZyhCcETcAZhBig6ngfAQCAuORk0FQ6G7I8Q693mW6bLvKjsysXLlxo7rjjDvPrX//aTJgwwW7TU6c1zgVj9erVyaGxcu3atcXGhg0b7NB9f/vb32YMmnoqtl6DUz8Gn5dX8JhcpqfjM0OzOIImQjwhaALOIMQAVcf7CAAAxCVng2ZVLV++3AbKgF7/UmNnVejjjz32WLNmzZq0948cOdIuGnTTTTeZm2++2S6gEz6G0mgw1RmgcdPrh2YKq5xyXhJBEyGeEDQBZxBigKrjfQQAAOISW9A8+uijzcyZM7P2/DqbUGdXlkUX/dEZm7qIUFnKCpoDBw601/9MpbNCddaoXqNTH6vBcOnSpcn79fXXr19vr/sZ3KezQHWVdr2t1/5ctmxZsefT/fX5Nm7caLfpYzSKfvHFF/a1ND6Grxmqs0V1kSP9e9Hn1H30z6639c+u2/Qxp556qj2OdIJTzsPBUz/XaPuvf/0r4+OyTS8bcMEFF8Ty2gRNhHhC0AScQYgBqo73EQAAiEtsQfN///d/7Wrm2aIrmH/33Xdl7jdu3Dgb5b7++usy99V4WFbQfPnll+1iRDqC2Zl9+/a11wTV8HbyySfb8Ni5c2cbLfW1fd+38bFbt242NLZq1cqGQ72W6G233WaGDBliBg0aZEaNGmUXLTrppJPMrbfeameE6n4aK0844QR7av3tt99u79fP9XieeeYZG2KvueYac99995kBAwaYadOm2fDZpk0b+xxXXnml/ThnzhxzxBFHmBkzZqT982n81D+LHrPOeJ01a5a57LLLTNOmTU2tWrXMBx98UGz/dDM9g1Prw6Oq9O+FoIkc4AlBE3BGw+bSWUfcxwG4jKAJAADiUmODps5izBQewzTCPfbYY+UKaxo0dZXz0oLmxRdfbIYPH25PH9e/W42NvXv3Np9++qndR4OiXt/zrrvuMs8//7yd1ajbdDZm9+7dbdA8/PDDbfTUyKrblB5f165d7Qrsp512mp19qts0jOrxdOjQwX7Ux+ksS31djaSXXnqpjax/+9vf7KxOncl59tln29mdf/rTn+xza6g899xz7ecaVzNd+1P3O++888yTTz5pw6dGzIKCguTQ49a/H72cgIZfPaaOHTvaj8HnGnRPOeUU+zEY+mc444wzMo4uXboU+/zMM89MftSh10f985//XOZ/v2wgaCLEE4ImACCPEDQBAEBcamzQ1NOjyzrlPDilO5hVGabxT2cxhmksLCtopjvlXCNgcMq47rNgwQLz1VdfmQsvvNCuyD5lyhR7LDpDU2dTtmvXzh6XnpKv1+IM6OxIvTaoBsngeqAaN3Wm5/HHH29DpB7jWWedlTxVXWcu6gxGfUwwg1OvOal/tiBi6kzSHj162M81vmYKmsE1NPXP/9xzz9kQ2bhxYxs2dYwePdq89tprdrz66qtm6tSp9s8WjJdeeslMmjTJhtzw0NPVx48fX2Lo7NLyDN1XF3+KA0ETIZ4QNAEAeYSgCQAA4lJjg6bOQNRZmqXRWZM65s+fb69j+cknn9gZkzoLUn344YfF9i8raF5++eV2UR0Ngjr09HClQTO4vuQVV1xhg6YGR42DOgNT46kGzXPOOcfO0AyCph7T6aefbp9HX1tnJerHcNDU2ZilBc3+/fubN998MxlGdYbmAw88YP9+gqCpf94gaOrHTIsnadDUQBrMZg1eQ2eb6uzM2bNnl/4fpQYiaCLEE4ImACCPEDQBAEBcYg2a7777btaeX2Oghr6Axjc91VuvR5k6G1NpcNTZj3rtTf1cw2LqbEuNhXo6dfh5w5544glz3XXX2dfQobMh9TqeDz30UDKSPvXUU8nZmq+88ooZO3as/Vwjos6c1GtT6mMDuv9f//pXe51LDcD659AZl7qf0mtfahDVU9yDxX7uuece+7meIq7Pr5/r9TMHDx5sn0sXAdIFgXRGpdLHB5/r18Ozzz6b9s8XzNBMd3p+EHHzDUETIZ4QNAEAeYSgCQAA4hJb0DzyyCNt8NNThidMmJBxlPe042A8/fTT9hRkjYU6k1JPp9YoqAvlNGjQwGy//fb2FHOdTahDo6qe2q2zGN944w37uOnTp9uFc/T06BdeeMG8+OKL9qMuINSiRYtknKwuGgqjWDxHZ3pW5XlKC5r5iqCJEE+qKWg27SRjmnWWCdl+HaAma9RSztYR93EALiNoAgCAuMQWNG+55Rbzxz/+scTQBWNSbwcjvJBMMILt4f106OI2OttSVxdv1KhRcuEavdbjwQcfbE+Rbt26tV3cRlf7DsbRRx9tT/nWcdxxx9lTuf/whz+YTp062ds77bSTPW07HxE0SyJoIsSTagqaAKqOEANUHe8jAAAQl9iCZraFFwXSGZUPP/ywjZI77rijve5jadIFu+B0bo2amU45r+mCa2jiFwRNhHhC0AScQYgBqq5hc+msI+7jAAAA+afGBk29dmVqeNRTt3VBHr0WZmXodSt1xmY+B01maBZH0ESIJwRNwBkETQAAAMBdNTZoLly4sMxVzitKr0GpK5Hr4kH5SFeEv+yyy+I+jJxC0ESIJwRNwBkETQAAAMBdNTZo6krm69ati/x5H3jgATNixIjInzfX6axMve7p5MmT4z6UnELQRIgnBE3AGft1lRk64j4OAAAAABVXY4OmnnKuK5xHTa/L2b17dzNq1Ch7bU49fb2mDz3VfOTIkebCCy+0p93jFwRNhHhC0AQAAAAAIOtqbNDU8Lhx48asPLeGzOHDh9vVz3V07NjRjhNOOMEOXXxIh34e3NehQ4fk0Otwtm/f3i4wpB916LbyjGD/8GPSbQuP8GunjuD4wscZPGfwWF1t/u9//3vW/j5dRtBEiCcETQAAAAAAsq7GBs3qoIsM6YxFXf1cP2Yaer+OTZs2lTo0GJY2ynp88Byp24LXDx9H6rbU+8NDrx2K9AiaCPGEoAkAAAAAQNYRNIEqIGgixBOCJgAAAAAAWUfQBKqAoIkQTwiaAAAAAABkHUETqIJQ0OwV95sZsfOEoAnkkoKGzaVzQS3ZLt2d+/eQmTrSPjDxGH2sFEit7B4iAAAAgMqwq3UDqJx77703CJpnxv1mRuw8IWgCOWW3o+WGFufLZ01aiZ8aNlv2l8U6wtt0n8S+vVr0k4W7t5Wbq/NYAQAAAJSfGTx4cNxNCHDWoEGDgqDZIe43M2LnCUETyCm160ijgy6RlYdcJaZFPxs2ewVhMxw0bcg8WHrqPrrvQQNkVeKxjWM9eAAAAAAZmR49esTdhABndevWLQiazeJ+MyN2nlRT0Ky/p7RpsLccm+3XAWoCnaWpkTIYNmweLD2DoKmfH9hPFob3YXYmAAAAkMMKCgpW7rvvvtvijkKAq/bZZ59tiffRCn07xf1+Ruw8qaag2by3fHTQxbIi268D1ARFszRXhYLlNv3Y6grZoiO8zc7OvFR+ZHYmAAAAkNueSQwzb968uLsQ4Jy5c+cGszOfivl9jNzgCUETyEm7HS03hmdghiLmttTtzM4EAAAAcp8uZGKuuOKKuNsQ4JzLL788CJp/ivl9jNzgCUETyEl2luYAWXXIlSUDZjhwMjsTAAAAcEOdgoKCr+rVq7dt6dKlcfchwBlff/21qVu3rp5u/mXifbRD3G9k5ARPCJpAztqtrdxUSsy0Q/eJ+zgBAAAAlE+vxDD9+vWLuxEBzujdu3cwO7NHzO9f5A5PCJpAzgpmabZKc5p50ezM1bXrSpO4jxMAAABA+dQqKCiYW6tWrW2TJ0+OuxMBOW/SpEkm8X7RcDVH3z9xv4GRMzwhaAI5rbRZmszOBAAAANzzm4KCgvUNGzbcNn/+/Lh7EZCzPvnkE7PTTjvpqebrEu+bw+J+4yKneELQBHJahlmazM4EAAAAHHZWYmzbd999iZpAGhozmzVrtk3fJ4nRJeb3K3KPJwRNIOelm6XJ7EwAAADAbVclxjadqfniiy/G3Y+AnKGnmevMTCmMmVfG/D5FbvKEoAnkvOSK54WzNFnZHKiCX7WXkTriPg4AAAB1lp5+rtfU7Nu3r1myZEncLQmIja5mft5559lrZhadZs7MTGTiCUETcEJ4liazM4HKa9lfFuuI+zgAAAACv0mMDxPD1KtXb9vAgQPt6bZAvpg7d665/PLLTd26dXVGpsZMXQCIa2aiNJ4Qr+sDzQAAEABJREFUNAEn2Fmal8qPRbMzG8V9PICrCJoAACAX6erNvQoKCr6Swl/S7fUDu3XrZgYNGmRGjRplRo8ezWDUiKFfzzfffLPp2rWr2WeffbYFX/OJr/8vEx/PFVYzR9k8IWgiWgckhs/IztitrTyrI+7jqOFDv4ZRgxE0AQBALqsjhafZji8oKNBfoA2DUZNH0df5U4nxJyn8+gfKw5PCr6FHsv1CBM284UsO/D+xpo7adQpH3MdRw4cvqNEImgAAwBU6S81LjOMT48zE6JsYKxo0aGB69erFYDg19OtWv36Lvo7PLPq61q/vgljeXXCdJ4W/wD+S7Rdq2knGNOssE7L9OoidnximT58+5pFHHmEwnBn6NSsEzbxA0AQAAC5b3KxZs7gveQhUmH7d6tdv3G8g1BieVFPQRN7wE8MGIsAl+jUrBM28QNAEAAAuI2jCSQRNRMwTgiai5QtBEw4iaOYPgiYAAHAZQRNOImgiYp4QNBEtXwiacBBBM38QNAEAgMsImnASQRMR84SgiWj5QtCEgwia+YOgCQAAXEbQhJMImoiYJwRNRMsXgiYcRNDMHwRNAADgMoImnETQRMQ8IWgiWr4QNOEggmb+IGgCAACXETThJIImIuYJQRPR8oWgCQcRNPMHQRMAALiMoAknETQRMU8ImoiWLwRNOIigmT8ImgAAwGUETTiJoImIeULQRLR8IWjCQQTN/EHQBAAALiNowkkETUTME4ImouULQRMOImjmD4ImAABwGUETTiJoImKeEDQRLV8ImnAQQTN/EDQBAIDLCJpwEkETEfOEoIlo+ULQhIMImvmDoAkAAFxG0ISTCJqImCcETUTLF4ImHETQzB8ETQAA4DKCJpxE0ETEPKmmoFl/T2nTYG85Ntuvg9j5QtCEgwia+YOgCQAAXEbQhJMImoiYJ9UUNJv3lo8OulhWZPt1EDtfCJpwEEEzfxA0AQCAy4oFzbvvvtv+ENuuXbu0P+S+9957wQ+5ZsGCBWn3ad26tb1/7Nixkf+QfcQRR5gdd9wx8ueFewiaiJgnBE1Ey5eUoNmlSxf7/bFx48Zp/7+m3zel6HvslClT0u5Tv359e3/fvn0j/X9qgwYNTEFBQaTPWVkTJ040y5cvj/sw8hZBM380bC6ddcR9HAAAAJVRLGh++OGH9odY/cXm559/LvFD7pAhQ5K/bN13330l7t+wYYPZfvvt7f2LFi2K/IfsOIPmiy++aE4++WSzyy67mIMPPthceOGF5scff4zlWEDQROQ8IWgiWr6kBM3x48cnv4du2rSpxP/XOnXqlLz/7LPPLnH/qlWrkve/9tprkf4/NVeC5rPPPmv/fLfddlvch5K3CJoAAABwQbGguW3bNrPzzjvbH2Rnz55d4ofcDh062F949P7TTz+9xP1vvfWWva9p06ZZ+SE7rqB5zz33mFq1apl69erZv4MWLVrYP2fLli3NkiVLqv14QNBE5DwhaCJavqQEza1btya/hz755JMl/r8WfP/Vseeee5a4//7777f31a5dO/L/p+ZK0PQ8j6AZM4ImAAAAXFDiGpqnnXaa/UF21KhRxbZv3LjRBr22bduavffe2zRq1KjELM4RI0bYx3br1i0rP2THETTnz59vtttuO7PbbruZxYsXJ7ffeOON9s965plnVuvxoBBBExHzhKCJaPmS5hqae+yxh/3ecc455xTbvnr1aru9YcOGNlhqXEydxRl8f9boF7U4g+bjjz9uzj33XNOkSZNk0CVoxoegCQAAABeUCJrDhw+3P8j27Nmz2Pbp06fb7RryevfubT9/5513iu1z1lln2e2jR4+O9Ifrn376yX6szqAZvObll19u/0w6MybVvvvua3/x/Pbbb6vlmPALgiYi5glBE9HyJU3QPPXUU+33lP3337/Y9uAfBI855hjTvHlz+/lDDz1UbB/9x0Td3qNHj8j+X/rNN9/Yj9UdNIPXVcGlasKDoBkfgiYAAABcUCJovv/++/YHWf2FKuy6665LXrdr3Lhx9vPBgwcX26coMtlZjYHNmzfb/Y4++miz00472efVWY1z585N+4P0pZdeap9Dr085ZswYe9qdnuat0gXNFStWmEMPPdSeEv7oo48Wu08XWOjYsaO97qXOsDzppJPMtGnTKvSahxxyiP0lb+nSpSUed8kll9jHPfHEE2n/LMgegiYi5glBE9HyJU3QfOyxx+z3DY14YXr2g27Xxfkuuugi+/nxxx9fbB89W0C3v/DCC8lt69ats/vp91f9XqXPu9dee9lrUaY6/PDD7eO/+uorOyNS/0FOT3NX6YKmLv6nZ2boY84///wSz6cLE+n3V32cfg/eddddzZ133lmh11WTJk0yTz/9tB2cch4/giYAAABcUCJo6mnkespb4j4bCwNt2rSxq6vqKXA6I1F/gTn22GOT9y9btsw+Rn+hCaxdu9ZGSCm6rmbnzp3NUUcdZX+ZqVu3rl0gIVUQF/WXuh122MGeYqfXsFSpQfOHH34whx12WNqY2bVrV/s8enqfPsdxxx1n6tSpY4/7rrvuKtdr6vXO9Lb+wpaOxk993A033FD6bweIHEETEfOEoIlo+ZImaOr30OA6mhoMA/q9TbetWbPGfPLJJyVWQw8W7dPvdwH9XqwhUoquq/mrX/0q+Tw6Bg4cWOy1g7AYrLau3x+Dy6akBs3PPvus1JgZ/AOmHo8+T/h08dRrbJf2uqmCfQma8SFoAgAAwAUlgqbSmYyJ++ysCaXX9tJflk444YTkPjorUmOfRkv13HPP2cecccYZyX2C60zq6XF6Dc7AK6+8YuPo7rvvbn95Cwviov7CM2/evGL3hYNmaTFTr8clRavE6uyVgP7yqKfs6SyX8AzRTK+pMzZ1+4EHHpj2h/4JEybY+3XFc1QvgiYi5glBE9HyJU3QVPoPf3rfTTfdZG/r4nJ6O/yPZ0FMDC5pcs0115RYdE9PT9dtevkT/T4dGDZsWDI2Ll++PLk9iIW6Pfj+HggHzbJi5l/+8hd73z777GO+//775PYpU6bYnxX0vvAM0dJeNxVBM34ETQAAALggbdC844477A+z119/vb09ceJEe3vo0KHJfa644gq7bfLkyfZ28MuWznIM6MJBOmsj/ItW6uMffPDBYtuDuBj8ohcWBE2NmcEvPanXGFMHH3yw3S81lqrgdL9rr722zNfUXwR1e+vWrUs8j5o6daq93/f9tPcjewiaiJgnBE1Ey5cMQfPEE0+03zt+97vf2dv6vVZv6z8mBo488ki77ZZbbrG3f/vb3yZnOQY0QOrQIJoqeHyvXr2S24Lvm+GzKwJB0AzHTL1edjrB2Q7hWBro37+/faxeZqY8r5uKoBk/giYAAABckDZozpw5s9j1uwYMGGBvz5o1K7nPyy+/bLdddtll9nb79u3t7Tlz5tjbes1JSfkFLUxnaer9GjbDgrj4/PPPl3iMBk39RSr4hUfHkCFDiu2j1+zUGZg6Y+Xee+8tMYLwqqe/l/Wa+lz6S1uLFi3S/hmCGZqpp/Uh+wiaiJgnBE1Ey5cMQfOBBx6w3zuC60jq2QZ6+x//+Edyn9tvv91u+81vfmNvB6d063Um1X/+858Sl3kJC2ZpatgMBN879eyJVMGp60HM1NGpU6cS++lZD3qffp/VhQBTRxBe9fT38rxuKoJm/AiaAAAAcEHaoLllyxb7y40uMqDXkWzVqpW9lpd+Hli/fr2Ni7pojm7XfcP7vPvuu/YH4j59+qT9gVkXDtL7U6+jFcTF9957r8Rjgutx6uxLPa1cP+ovX59//nlyH/1cRMoc4cUWSnvN//f//l/GXxh1dqk+TleGR/UiaCJinhA0ES1fMgTNDRs22O8d+g9m+v1WrykdfB7QMxF0H71PtwezMYN9Hn744VIviaILB+n9ukBQIIiFumBeqiBo6mvoKeXBdT5nzJhRbD+9LeX4Hhte9Ke0101F0IwfQRMAAAAuSBs0la4OnrjfXhNL0lzkXwWzMoN9TjnllOR9wQzNk08+Oe3zT58+vdgMz0AQF3W19VQaNPX6XG+++aa9rYv7SMosEg2t+ouYntJXXqW9ps6c0ef77rvvStwXnDb/5JNPlvu1EA2CJiLmCUET0fIlQ9BUer1MvT+4xMuee+5ZYp9gVmawj153OhDM0Nxtt93SPv+IESOKzfBUQSzUS6+kCoLm3//+d3tbv+frbf1HvbAgtGb6h750SnvdTPsSNOND0AQAAIALMgbNwYMH2x9o27VrZz8GK42H6ene4X30FLcwXS1dZ2n89NNPJR579dVX28foSuFhZQXN8CrnuiK7Xt9S93/iiSeS2/V0c/1lS+NmqmnTppmLLrrIvP766+V6zUGDBmWcWdKyZUs7Q3TVqlUl7kN2ETQRMU+qKWg27SRjmnWWCdl+HcTOl1KCpp4loPfrmQ2S5mwFpf9YF94n/I+GKpi1+c0335R4bJs2bexjzj333OS2soJmeJVzXY1dF+/T/S+++OJi++rp5rrAj8bNVHfeeaf59a9/bS/xUp7XTUXQjB9BEwAAAC7IGDT/P3t3AudEef9x/Le77HKzHArKZQBZ6HJIwYIFBcWrXojiVbUY5dBaFVsVsSJgsaJFpFovvECrVrGtFhXRqliR26r1qK1axdp/PWq964WS//wyMzCbnewm2clMnuTzfr1+L9knM3meZI8kX59nHg38xLN8LHXHcaXX1PQeo8vMvS644IJku25KoNejdK1cuXLrLuepYWc2gabS43TWpu5Q7gaLujGR3ofuuO4NNV9//fXkrBj9ILZp06aM+nzzzTeT99+7d+/Ee++9t7X96quvTp7DhkDRINBEwGISUqCJkhGXBgJNDfzE8/rpt/u3XlPTe4wuM/faY489ku19+vRJXtvStXDhwmS7vtZ5w85sAk3lbqKX+pqpGxNpu+647g01V61atXWp+urVqzPqNxWBZvQINAEAAGCCtIHmF198kbx2l3VMMiz0o9fLdJfN6Ych7/W/1Keffrp1BqX2ox+CdFdXDQj1vnVTnVTZBprec3R3VaXjcGe/6EzNQw45JLlRgfarbd6ZI431qfR4/ZCmH95OOumk5H3rfX3rW9/y3V0W+UegiYDFhEATwYpLA4HmRx99tDWo1MDQj3vtTPc4vfam1zvvvLN1FqXOmtTrZerKCPf4c845p87x2Qaa3nNqa2u3tuk4dPWFO3b9n5N6HW23X90cKNN+0/VHoBkdAk0AAACYIG2gqdyl5Mcdd1zaY3SZnB6j19z0ozMzddm2Ln/TDzw777xz8pwXX3zR9/hcAs1PPvkk+UFOP4ytWbMm2aZhq15jU2ew6HI9DWV1+Z4uOc+mT9fdd9+d3LFdP8QNGDAgGZ56Z2wiXASaCFhMCDQRrLg0EGgqdyl5LBZLe4y+tukx+j8P/ejMzL322iv52qivgZWVlclzli1bVu/YXALNt99+e+v/DPReIkbDVr3OZikY3fkAABAASURBVHV1dfI8DTb1epu65DybftMdS6AZHQJNAAAAmKDBQBMoVASaCFhMCDQRrLg0EmgChYhAEwAAACYg0ISRCDQRsJgQaCJYcSHQhIEINAEAAGACAk0YiUATAYsJgSaCFRcCTRiIQBMAAAAmINCEkQg0EbCYEGgiWHEh0ISBCDQBAABgAgJNGIlAEwGLCYEmghUXAk0YiEATAAAAJiDQhJEINBGwmBBoIlhxIdCEgQg0S8eOY2WhVtTjAAAAyAWBJoxEoImAxYRAE8GKC4EmDESgWTr6nyKbtKIeBwAAQC4INGEkAk0ELCYEmghWXAg0YSACzdJBoAkAAExGoAkjEWgiYDEh0ESw4kKgCQMRaJYOAk0AAGAyAk0YiUATAYsJgSaCFRcCTRiIQLN0EGgCAACTEWjCSE6g+YlViygqgLpDQgo0W3WV3Vr3kDH57geRiwuBJgxEoFk6CDQBAIDJCDRhJCfQpKiga7HkWd8T5bna0+W9fPeDyMWtItCEcQg0SweBJgAAMBmBJozkBJr/sqo3VfRVY9WwkComeUagWTLiQqAJAxFolg4CTQAAYDICTRiJa2jCVASaJSMuBJowEIFm6SDQBAAAJiPQhJEINGEqAs2SERcCTRiIQLN0EGgCAACTEWjCSASaMBWBZsmIC4EmDESgWToINAEAgMkINGEkAk2YikCzZMSFQBMGItAsHQSaAADAZASaMBKBJkxFoFky4kKgCQMRaJYOAk0AAGAyAk0YiUATpiLQLBlxIdCEgQg0SweBJgAAMFmDgeb777+fOP/88xPf/va3Ex06dEi0aNEi0atXr8TEiRMT69atC/QN9KhRo5IhFUW59eabb6b9edHbhUATBiLQLBlxaSTQDOs19u6774787zlVWHXWWWel/Xkh0CwdBJoAULR2sOoyqx6x6h2r/mvVBqsutapjhOMy1WKx3xv1KfExuCaIPZbFWZyTl/GnDTT/+Mc/Jrp16+a+qU3EYrHkh66qqqrk1xUVFYmZM2cmvvrqq0A+cOk49D6jfpNPRV+tW7dO/oy9/vrrDf68SBMCzYrmUl1WIVXB/BoBmSPQLBlxaSDQDPM11g2oOnXqFPnfdyracn/mTjjhhEZ/XoRAs+gRaALIh4oW0iHqMeRLWblUlldJ26jH0YgjrdLPGvpa/pVVf7bqJau+dNo+tGpYZKMzUxRhYoVV5RGPIZ3CDjSXLl2aKCsrS9Z5552X+M9//rP1ti+//DJx3333JXbYYYfkG95x48Y1+cOWct9sA/pBS/IUaFovQG22HyHn7nS4LAvyFwnIFIFmyYhLmkAz7NdYN6Bi+Tv0dVUINOEg0AQQpBadZZeeh8rStr1k/6jHkk87HSa/7zJK5lQ0l/ZRj8XHwWK/hmt4OdWqFp7bqq1a4Nz+ulWFOP5C1duqEVY1D6k/7Uu/T3MjHENDcgk08zL+eoHmJ598svX/4C9btiztG9533nkn0b9//+Rx9957b5PfZBNowpWPQFNnZHYeKbNqp8kHg6ZLonVP2SvIXyQgUwSaJSMuPiFiFK+xBJpwEWjCi0ATQBBa7SgjYkfIA/oZq8/xsjbq8eRbm51krD7W2jPk/c7flZnlVdIu6jE5NCj6t9iv4fs0cNwdzjEnhzEo5MQv0CwkuQSaeVEv0NTZIjq4Y445ptE3xg888MDWpXJNXRZHoAlXkIHm1iDzDDvI1Or9fXk8v79WQHoEmiUjLj4hYhSvsQSacBFowotAE0BTtOoqu8WOkOXuZyytYp+d6bI+T/7Jfcy10wom2DxR7NfvBxs5bqxVm61aEXD/rawqK4D7yEWl2Eu8C0WYgWYuj71wA0394KSD++tf/5rRm+Ndd901efwTTzyxte3ggw9Otl100UUZv8km0IQriEAzdUbmwHNki/ui07qn7BnKbxfgo9v+cv1O4+V3UY8DeRcXnxCxqa+xuby+EmjCRaAJLwJNALlo1VW+GztSVniDzOTszONkddRjC4uu9nMf98Dp9ufMZLA5Ui6IMNi8W+zX70NyPF+DrZlW6ffxY6tetmqpVQPTHD/P6W+IVSudf39m1Z+sGuccc6hVD1v1vlX/supaq9oFfB/q1865XXzG6V67sZtPvz2susmqL6zaYtUbVi2yavuU+7hW/K//qLNiL7JqvdjP2VNiL+tv7TMOd8m/HvOJVe9atcaqk1KOe9Dpy1sTGhiDyuZ7l+1j95NLoNnQ+HNWJ9DU63hpJ7rT6jfffJPRm+MpU6Ykz7nsssu2thFooimaEmi618jcGmRO3xZkJmdnHiOPBfkLBABpxCUlRAziNZZAE01BoAkvAk0A2UgGmRPkvtQg0602OzW4zLno6Kq/lOcg+blzwJnyyQ5j5JIIrrG5SezX751zOFcDuI3O+Roa3mPVOqu+tupzq47wOccNxl6z6m2xw617xQ7H9BqeV1n1jVX3W3WD2Lut6/HXB3wfKtdAc4Xz+P7g3Ocmp31Vyn34hXG6W/wzTrsGiBooP+t8/VzKWDpb9X/ObU9b9RurHrDqU6ftbM+x461a6LRrkDtN7O9pukAw2+9dto/dT2EGmi+++GLyTeygQYMyfnOsH7L0nOnTp29te+211xLPPvts4u233874fgg04col0NTd5hoKMrfOzuwhY4L8BQKANOKSEiIG8Rqby+srgSZcBJrwatdXxmtFPQ4Aha1VNxnZUJBZarMzXd5Zmg0Gm+Ht+v4/sYPAXDZduVDs1/5fp5y/t3O/Gja2STnHDcZeEDvcc82QujMLXT3FDtD+FfB9iOQeaOpsxiGedl3y/rJz206edr8wzg0d9b68y+QvcNqv8LTNdNpmp4yth/N4nktp91tyni4QzPZ7l+1j91M8geb8+fOT55x77rlNeItNoIltsgk0Mw0ynRfaNVXtpXc2VVaenL6dtcq20iPbvkzqT5f064tztmX9qS+nP5SIuAQQaAbxGkugCReBJgAgU5kEmW7p/xzJ5j1zeaXvktxGlVVIVS7v0XPtT1f/NfRZaufjZV0Dz4sdbP44tGBTgzGdzViVw7kfir2k22+5/Hyx3xdMSml3g7Hvp7R/22n3C7n/LPb1O4O8D5VroPkzn+OvcG4b4WlLDeP050lnkOrM0tTrT1Y5477V07a72M9fx5RjNQjVmZtvpbRnE2hm+73L9rH7KcxA07scbsuWLRm9OZ40aVLynAULFjTpTTaBJlyZBpqdhsl/3SAzX1XVIacp+9JvirxCf/SHkhaXBpach/kaS6AJF4EmAKAxVdUS63W0PJLPz1g9DkoGUFlrP0CON6E/v9LPrdbn1zNyGUeG3hT79btvBse2FDuU08kYXZ3zHkhz7N7O7fNT2t1gbLeU9n5O+80+96XLmf0Czabch8o10DzA53j3toYCTTdwXeRzfkP0+e5l1V5ih4y/ce4n10Azl+9dto/dT2EGmsrdsOCll17K6M3xd77zneTxTz75ZBPeYhNoYptMA82K5vLPzqNktvXi8KHzQpF2dqbWzhNlY7f9ZVE21axV8noXWeuyh8zV83seKkuzqWatZYdc+uu6j1yZbV/0Vzj9oSjFxSdEjOI1lkATLgJNAEAm2uwkY3sfK09kENRtGXiWfNnzMPl9Nu+ZOw2V03MZV+vuskcu79Hz1V/fk+T5xp6fZJh5pnyoG9bqKrBcxpGhZWK/fo9r7EDLf8Vent7JquHOeTemOba/c/vSlPZ04ZcbRt7gc1/pAs2m3IfKNdD0C+4yCTQPE/8l5OnoqsifW/Wec54+9+71LrUt10Azl+9dto/dT+EGmuedd17yjexxxx3n+0b3ueeeS1x11VXJf99///3JY7t165bYvHlzk95kE2jCle01NDNcdr5Fg88ILs4MoDTFxSdEjOI1lkATLgJNAEA2WneX3XsdLY82Fmxuv5ucF/VYw6a7mdeeIe8POsfns+c5oS83V6eK/fr9aCPHDXGOc6/b6M7yuz/N8Xs5t1+e0m5KoPlbCT7Q3M35+mqf81WF1F2KfpdsCx713Jae216Sps/QzOZ7V9yB5ieffJL88FRWVpZ48MEH673RPfnkk5NvdCdPnpzo06dP8t+/+tWvmvwmm0ATrlx3Oc8k2Ow8MnmRXgDIt7j4hIhRvMYSaMJFoAkAyIUGm72PkcfSzUKsPUP+q5/Foh5nmDp/V2amPhcDw79uppcuIdeZl/oanm7DNw3Z/iD1lyF/5Jzr9z28xDl+Skp7IQaaO6W06+N9XYIPNHWSlF6v9EWRenso6Ne6Ec8/nK81vPxM7J3I/fxbmnYNzWy/d8UdaKqlS5cmP2yVl5cnLrzwwsRHH3209bavv/46se+++7pvdhP77LNP4ptvvqlz/htvvJF44YUXEu+++27Gb7IJNOHKNdB06SzMLqNkjk7t9/4fMv2vhp15nuoPACouaULEprzG5vL6SqAJF4EmAKAp2sRkvz7Hy5o0szRnRD2+sPjMznSXln/UZXe5MMJVgbq5jr6Gf23VWVJ3JqDudO0Gf7rc2fuZ+GdO+xKROpvG7inbdspODcwKKdC83Dn+zJT2OU570IGmutlpm5Vy/llO+zXO17rz+FdibyDk3YXcXYaux/4n5T7cQNMbOqcLBLP93hV/oKkefvjhRNeuXZPffP3gVVNTkxg9enRyZokzkGR79+7dE0899VSdcw8++ODk7RdddFHGb7IJNOFqaqDpSp2xySxNACGKSwMhYq6vsbm8vhJowkWgCQAIQnLG5vfl8Tqb3pTQLM3U2ZkDfiyfRjAjM52TrfpE7NdyDf6esWqtVZ86bRpwjUk5R2d3PuXcvsmqu8UODjUY1d3TD/fpp5ACzd2cseq1Ke+z6iqxZ0Tqfbwh+Qk0de+EvzvtOlNTN/hZ73ytGzR5dzRf7Glf4pQGnC+L/f3R267zjHGg06Y7oF8p9iZE6QLBbL93QQaaGow/2ED19pwTbqCp/vvf/yav9zVkyJBEdXV1olWrVon+/fsnjj322OQGBatXr0506dIl0bJly8Qrr7yy9TwCTTRFUIGmyzNj8yPnxfZ9/b9qQf4iAUCKuDQSIubyGkugiaYg0AQABKltbzmgzw9k/dZZmiPk3KjHlG9bZ2faQebHuhlsRYs64VUh0KXXGiCttuoDq96x6gmxA6t0qxV1dp/ONtTw82OrXhF7M5naNMcXUqCpvmfVGmfseq4uCV9g1XmSn0BTaZh4mVVPix0Y/03sMHW7lON0pqzOpNQAU2dN/tmqi532vZzzNIQe7BxfJvasUw1AdUn5AQ2MQWXzvQsy0GysdvGcE36gmQld/nbxxRc36T4UgSZcQQearq3B5jT5UP+vWpC/SACQIi4BhIhBvMYSaMJFoAkAyIe2feSgnX8gG751mrxbXpVc2ly0Ou8mPx2gS8sLM8iEbUdJH9yiiDQ50AzK9ttvn2jTpk1i0qRJVIlX3759kx+mXnzxxbQ/L7kEmi4NNrcbJtPKyqVZoL+VfRDDAAAQAElEQVRNALBNXAokRLz00kuTf1N1SXvUf9+paOvoo49O/iwccMABaX9eCDQBALlq20cObhOTfaMeR75Ynx8rt/uO/IQgEygMdQLNK6+8Mvkmds899/R9k7thw4at00dffvll32OGDRuWvH3JkiVZfeBq1qxZJlNWqRKqVatWpf15aUqgCQAhiFtVJ9CM6jVWgywJ8W83VfjVp0+ftD8vBJoAAAAwQZ1A8y9/+UvyTWzr1q2TO62mmjdv3tY3w1dffXW92z///PNEZWVl8vbXXnst4w9bSmdodurUKflGmirtGjVqVPJnKF8zNAEgBHGrkn/Ton6NdWdoarAZ9d93KtqaP39+8meBGZoAAAAwXZ1Ac8uWLYmOHTsm38g+88wz9d7k7rPPPsldV/X2ww47rN7tuoGB3qa7tGaLa2jCla9raAJAiOKSEmhG9RrrBlTesaA0cQ1NAAAAFIt619A89NBDk29kr7nmmjrtX3zxRXKnVZ0916NHj+SOrKkzTC6//PLkubpDa7YINOEi0ARQBOLiEyJG8RpLoAkXgSYAAACKRb1Ac8GCBck3shMnTqzT/thjjyXbZ82alTjxxBOT/163bl2dY4466qhk+6JFi7J+k02gCReBJoAiEBefEDGK11gCTbgINAEAAFAs6gWaTz31VPKNrO407XX++ecn2//0pz8l7rjjjuS/586dW+cYJ2RKvPTSS1vbDj744GTbRRdd1OCbbAJNuAg0ARSBuPiEiFG8xhJowkWgCQAAgGJRL9DUJW7t2rVLvpl97733trbvtttuiVatWiW+/PLLxDvvvJO8zteYMWO23v7WW28lz9HNfbwINJEtAk0ARSAuPiFiFK+xBJpwEWgCAACgWNQLNNWBBx6YfDN7//33J7/+6KOPEhUVFYn99ttv6zG77LJLoqqqKvHpp58mv7733nuT50yYMKHOfelOrM8++2zi7bffbvBNNoEmXASaAIpAXNKEiGG/xhJowkWgCQAAgGLhG2hecsklyTezM2fOTH69bNmy5NeXXnrp1mPOPvvsZNvy5cuTX5933nnJr6+88sqc3mQTaMJFoAmgCMQlTYgY9mssgSZcBJoAAAAoFr6B5tq1a5NvZvfee+/k19OmTUt+vXHjxq3HPPTQQ8m2H//4x8mvx44dm/xaZ4rkgkATLgJNAAWirAnnxiVNiBj2ayyBJlwEmgAAACgWvoHm5s2bE61bt060bds28c033yQGDhyYaN++ffLfrs8++yzRvHnzxKBBg5LtemzqMdkg0ISLQBNAgTjCqkusap/DuXFJEyKG/RpLoAkXgSa8dhwrC7WiHgcAAEAufANNte+++ybf0D788MPJ/x522GH1jnFnjLjH6OYEuSLQhItAE0CBaGbVq1a9b9UFVlVncW5cGggRw3yNJdCEi0ATXv1PkU1aUY8DAAAgF2kDzblz5ybf0O65557J//7qV7+qd8y8efPqHDN//vyc32QTaMJFoAmggMTFDne0PrBqlmQWbCbPSxcihvkaS6AJF4EmvAg0AQCAydIGmk888YT7hjZZf/3rX+sdo9f78h6zfv36ese88cYbiRdeeCHx7rvvNvgmm0ATLgJNAAXEnaXpfb37UBoPNuPSQIgY5mssgSZcBJrwItAEAAAmSxtofvHFF4kWLVok39TusMMOvsfotbw6deqUPEavB6bXBUulS+T09osuuqjBN9kEmnARaAIoMHGpG2hucf77iaS/xmbynHQhYpivsQSacBFowotAEwAAmCxtoKncZW7HHXdc2mOOPPLI5DF6PTA/BJrIFoEmgAJTYdXfZVuQmS7Y7OA5Jy6NhIhhvcYSaMJFoAkvAk0AAGCyBgPNMBFowkWgCaAAnSB1w8zGgs24FEiISKAJF4EmvAg0AQCAyQoq0KyoqNgabFKlW7q0UjILNDeLHWpSFEWFUfo3J3WWpl+wqdfYvEcKJER0Aypdvh7133cq2urWrRuBJrYi0ASAorFQ0r8/9atpeRrHRrH/B38QdILARVY9LfbGnJ9Z9Q+rlli1Z5pzRlv1nFWfWzUxg9t+JfbzsUtAY26q48Qez6SU9sVOe5/QR1TgCibQHDVqVORv9KnCqjfffDPtz4veLgSaFEWFW0YGmnfffXfkf8+pwqqzzjor7c8LgWbpINAEgKLxQ6v+mFKbxH49/5vPbYfnaRxBBZp7W/WmbHuP/ZrYweaXnra7rGrpOafcqn+L/X59qVXfzeA2Ak3DFUygCWRDf25FeBMOIDTGLjkHskGgWToINAGgqM0T+/X8RyH2GUSgeYTY762/sWquVZ08t1VZdZBVb4n92O7z3NbTp62x20wJNHtbNcKq5qGPqMARaMJIBJoAQpSXTYGAQkSgWToINAGgqJkYaLYWe2amvsc+qIHjOlv1ktiP72CnrZ/z9a98jk93mymBJtIg0ISRCDQBhCh1dmZDQaYrLgSaMBCBZukg0ASAomZioKnXzNQx35HBsQc5x75iVTMh0KwUexJGSSHQhJEINAGERN8gvSp1A029RuZsq9o3cF5cCDRhIALN0kGgCQBFraFAs9qqBVY9JXYA+a5Va6w6Kc197W/Vw2Jfh/JTq563arrUXwLtF2jqkvFnxV5CnrpRT6rXnDF/q5HjXH+WbdcJTb0k1MnOMYsbuC1doKnh4EyrVlv1sVUvi33tzYFpxpHt86kzTG+w6q9WvW/VCqvGSfpA81qpfw1N9/vbw6qbrPpC7EkXb1i1yKrtffptYdV8sb9/71m1TOzribr31SXNeAsWgSaMRKAJICTe2ZkaZM6RhoNMV1wINGEgAs3SQaAJAFnT/9H9M6t6RT2QDKQLNDVM+z/nNt1o5zdWPSB2UKltZ6ccP9Fp1w15NKS7W+xgU9sWpxybGmh2tOoZySzM3M65T92FvLyRY103Oufo+C92/r1K7F3cBznH7NvAbX6BZmvncWj7v8Te6HOdVV87YzsiZQzZPp8a1rrP3yaxQ0WdPKHP0R8l+0BzhTOuP1h1vWzbDGpVyn3o41rv3PaiVb93jv3CGTeBJhCWXAPNynbSs7KtdA/+VwlAsWnZRXataC7/sP75gWQeZLriQqAJAxFolg4CTQDIiQZiX4k9wy4W7VAalC7QnOm0z05p15l+Gow9l9KuS7o1nOvmadNw7HWxQ7g2nnZvoJlNmKlqnXGl9t+Q6c45GlgGteT8Qqft11J3BqruvP4/q96Wuo852+fzYc+YvcGtu9w+20BTZ5AO8bS3EntGqd62k6f9fKft5542nYl6h6dfAk0gDNkGmhpkdt1brqiZLH8rq0jujgYADapqLz+qPUM+32GM/LKihe91MhsSFwJNGIhAs3QQaAJATlrKtl22N4s9Ky4W5YDSSBdo7i52YNYxpb1M7JmGb6W0a5j5jtQN8VSN2Dtvt/S0uYGm3rc76y/dsutUuQSaZzrnXCrBBZq6IkuXgbfzuZ/5Uj9wzOb5dB/j087tqce7Gx1lE2j+zGecVzi3jfC0/VfsDZcqU47VEPMLIdAEwpNpoFnZTnbqtp9cN/As+WrQdEl0GMyOYQAyVtb9QFmsfztqz5QPu4ySORXNM56lGRcCTRiIQLN0EGgCQM50lqb3mow6Y1OvW7hTQyeFrLFNgXR2oC6d30vsAO03zvGpgaZ7Dcp/ih3oHSL28nA/Gmh6lzBrzchwvN4l56lhXzqLnHM02Awi0Owq25aw+9nbuX2+z22ZPJ9HOG1z0ty/uzQ+m0DzAJ/7cW9zA033cd2Vpt9nhEATCE9jgWZqkKnVb6q8VlZe7/9IAEBaVe2lz8Cz5Wv370gWwWZcCDRhIALN0kGgCQA5081V9DqIugmLN9jUGZu3St3gKSrpAk39PKzLjt9zbtfH4F4rUttSA009/jSxN+BxH68uI18rdrjp5V57UmdpHuv89zOremc45tclu02B3GtC6sY2QQSaw52vb0zTX3/n9qWetmyezzOcYyanuf+TJftAc4TUl3rbSEn/3KgHhUATCE+6QDMZZO4vi7YGmefIFjeI6DAo4+nuALBV9wPkZvfviFVb3GCz8yiZ3UCwGRcCTRiIQLN0EGgCQJP8WOrvnl1IwWa6QPMu2Rba7SZ1l4zrkufUQNNLd87WEPNysZdm6/3s77ldA03dPGeU87U7k3VFlmO+PYNj93OO1WBZZ0cGOUPz/jR97uXcfrmnLZvnc7w0PENzhuQn0OzlfH1nmn7d3eIJNIEwpAaa7jUyB/5EvkgNMgdOly39pso/mJ0JIBfuLM2B07f9XXH/xgz4sXyywxi5xOcam3Eh0ISBCDRLB4EmADRJulmaCU+bG2xmOkMxSH6BpoZtOmNyY5pz9PF4AzgNwnR59ZE+xx7v3P8VnrbUXc4rrHrKOe6YDMbcVuzrTurz57eU2qXL0//q3O/JTltQ19D8SOzrTbb1uZ9LnOOnOF9n+3y649AA0W9Z/WOSn0BTA1/d0EgvG9As5djtnMdAoAmExQ00GwoyvdVhkJwY9S8bAHOlzNJMZBBsxoVAEwYi0CwdBJoA0tAdqf/YxFoldpCVSTW1ryjr75J+lqY32PzSqqut6p7F96Gp/AJN3bVbr/f5mtTdwdtdNq3H/8fT7l7XcpPUD7vc3cDP8LSlBppqmNizNjXYy+Ra9EeL/bx94/RR7blNwzidEfp/Tt+6VLrCuS2oQPNnTtsSqbuBzp6ybZdzN+zM9vlUy532uVI31HSXo+cj0PQ+rjmeNn0+b/X0S6AJhCH2rW6JbvvLJ35Ly1PDhm+dJm+37y/HVPeTIzOtqurk/43KWssdZNds+jGtv9Y9ZHTHXWRqttW8U/J6I/RHf8b257mWpv/fmvpL0X8oBJowEIFm6WjXV8ZrRT0OAAVntjQc0lG51RuS+Y7fQUi35Hyx0647Xi9xSgO5l2Xb5jDXWdXNOd7deEeDSt0s5zarnnXaXpS6IaVfoKkWOsdfm+HYdTm5G1puccam18v8zNOm427lOSeoQLO1bJtVusmqu8UO6DWU1Q2LDk+5j2yfT70+6L+d9let+p1VLzhfu8vX8xFo6mzSDU77s05f2r/+XK5x2jPd/LRgEGjCOKv//lBi0FllfoFCYNVxcNoL9Tao2/fkBvqjP/orzv56HS2PZnqf/U6WdyvbEWjCPASaAFDydCl1edSDMIS7KY1fubMzNejSa0m2CHls6QJNDbZ0tp4GbjrjUJc/X+y06zUi/yZ2KDnYOb7KqtOd49636mOr/iL27MmOKfedLtBsI/bzoM/JdzMcf0dnXBoKfuj0q/e/xKqhPscHFWgqnWE5S+yNj7TfV8TeCKjW576zfT5VZ7GvuflX57E9InbYPVDyF2gq/Rlc4DweDYx1dmYPq1aLPSPWuEv0EWjCSL0Gdk30OEg+HXiOvfvwwIZmaP5I3u60i5xi+gwx+qM/+ouuv6xmaI6UWczQhKkINAEAyMjB0nCQqdcrjCLIBPzohkW7+7TrliC+ZwAAEABJREFU/7zQywG8Gu5wgkGgCSO519DUpdPJXc3toCGRLmxoXyvHRf3LBsBc3Q+Uxen+p4n+l2toolgQaAIAkBF3+S5BJkygO7frz+c+Ke0TnfYZoY8oAASaMFLqLueNBJtbaqbIK2Xl9Xb0AoBGscs5SgmBJgAAjTpE6geZm6yaKvYSbaDQ6AxNvQaoblJ0pdjL5H8r9s+vbm7lt6t7wSPQhJFSA01X847Sr8fBctvAc+Sb1KXo7QfI8eH/igEwXZ3Zmc7flNppW5eWV6c5LS4EmjAQgSYAAA3SnandTWPcz6RTxMDrD6Lk6LVH7xH7+pl6XU+dZXyp1N1cySgEmjBSukDTpdfE8wabWjWT5eWyMqkI79cLgOmqOsjOnpnfGmR+0EiQ6YoLgSYMRKAJAECD3NmZm6zSjSUJMoGIEGjCSI0Fmq7UYLP9APlB/n+tABSL7gfKkiyDTFdcCDRhIAJNAAAadLfY18hsHvVAgFJHoAkjZRpoutxgs2aS/JVZmgAyobMza8+Q95PXyGwu7bM8PS4EmjAQgSYAAGlVCjMygYJBoAkjZRtoujTYrGwnPYP/VQJQbFp0liFZzMhMFRcCTRiIQBMAAAAmINCEkXINNAEgJHEh0ISBCDQBAABgAgJNGIlAE0CBiwuBJgxEoAkAAAATEGjCSASaAApcXAg0YSACTQAAAJiAQBNGItAEUODiQqAJAxFoAgAAwAQEmjASgSaAAhcXAk0YiEATAAAAJiDQhJEINAEUuLgQaMJABJoAAAAwAYEmjESgCaDAxYVAEwYi0AQAAIAJCDRhJAJNAAUuLgSaMBCBJgAAAExAoAkjEWgCKHBxIdCEgQg0AQAAYAICTRiJQBNAgYsLgSYMRKAJAAAAExBowkgEmgAKXFwINGEgAk0AAACYgEATRiLQBFDg4kKgCQMRaJaOHcfKQq2oxwEAAJALAk0YiUATQIGLC4EmDESgWTr6nyKbtKIeBwAAQC4INGEkAk0ABS4uBJowEIFm6SDQBAAAJiPQhJEINAEUuLgQaMJABJqlg0ATAACYjEATRiLQBFDg4kKgCQMRaJYOAk0AAGAyAk0YiUATQIGLC4EmDESgWToINAEAgMkINGEkAk0ABS4uBJowEIFm6SDQBAAAJiPQhJEINAEUuLgQaMJABJqlg0ATAIrGQrFfuzOtaXkax0arPmnC+dXS8Lj/a9UGq35iVfMmjRRFgUATRnICzX9Z1ZtqsLpb1YHKuFoLEIy4EGjCQASapYNAEwCKxg+t+mNKbRL79fxvPrcdnqdxBBVofiH1x/yYVS9Y9Y1zzCNWlTVlsDAfgSaM5ASaFBV0LRYgGHGrCDRhHALN0kGgCQBFbZ7Yr+c/CrHPoALNNxs45ttOH3rchCb0hSJAoAkjOYGm/iFblMf6tVVLqZKoB4RAE8GKC4EmDESgWToINAEgO82aNascPHjwyKjHkaFiDTTV5c5xlzShLxQBAk0YiWtoImAxIdBEsOJCoAkDEWiWDgJNAMjehRdeeMtNN9305PDhw/eOeiyNKOZA81TnuJub0FdTtAihj0qrKkLox2gEmjASgSYCFhMCTQQrLgSaMBCBZukg0ASA7PXo0WPn9evXb37qqacS11577aNDhw4dHfWY0mgo0NTgcIFVT4kdQL5r1RqrTkpzX/tb9bBV/7bqU6uet2q61N+Yxy/Q7GTVs2Jf+3JiI2PONNC81Dnupz63neCM9T2r3hF7Jd7YBu4rk8f2ulUrrdrdqhedvj+06lGrjk9zvxpIzrRqtVUfW/Wy2CsDB6Y53v1+9bDqJrGvI7rFqjfEXj26fY5jd2X7vBiBQBNGItBEwGJCoIlgxYVAEwYi0CwdBJoAkJs5c+Ys0UDTrQINNtMFmp2t+j/ntqet+o3Y4danTtvZKcdPdNq/FDv0vFvsAM3vs1NqoNnRqmckszBTZRJo7mLVB051S7ntDuf8t6y6V+yNhNxg0G9n90wfmwaar4n92P4ndpD5hFWfO8cuTLlf3Wh2o3ObbmR8j1XrrPraOecIn7G4368VzjF/sOp62ba506ocx57L82IMAk0YiUATAYsJgSaCFRcCTRiIQLN0EGgCQG6cWZpfe0NNreuuu+6xAgo20wWaM5322SntOjNQg7TnUtpfETvs9IaHGthpyKdBZRtPuzfQzDbMVN5dzh9MKZ1d+LxzfzrbcXjKucc6595pVStPe1+r/mnVZqk/OzLTx/a6c9+vWtXHc2x/sYNOve07nvYLnTbdk8M7W1IvU6CB6NtS93lT7vdLZ3MO8bS3ch6v3rZTDmPP5XkxBoEmjESgiYDFhEATwYoLgSYMRKBZOgg0ASB3s2fPXpwaaLpVINfYTBdo6rLpSWIHjl5lYs/cfCulXUMzXaKcGsDVWDXCqpaeNjfQ1Pt+2uk/3TJ2P26g2VjpfQ9KOfcFp+/UcarjnfN+ntKe6WNzA83DfO77MOe22z1tuhz9fava+Rw/3zl+Ukq7+/36mc85Vzi3jchh7Lk8L8Yg0ISRCDQRsJgQaCJYcSHQhIEINEsHgSYA5K579+59nFmaWwo02GxsU6Byq3pZtZfY4dpvZNuyZK/FTrvO5tMw7hCrtktznxpo6uxKN8zUmpHFmBtbcq7L5S9wjtnkPAal16vUmYY6W/JHPnWxc849OT42DTR1ebbfZkDaty4lf9r5uqtznw+keQx7O7fPT2l3v18H+Jzj3uYNNDMZe67PizEINGEkAk0ELCYEmghWXAg0YSACzdJBoAnAT01NzZBDDjkk7q2RI0d+z+/Y1OO0OnXqtEOp3OcNN9ywKl2YWQBL0dMFmhpy6Yy895zbNahzr/OobamBph5/mlV/do7Vc3RJ81qxQzQv97qROiPwWOe/n1nVO8MxZ7op0HrnuF2cr3tLZjM7H8nxsWmg+V4D49GZrf91/j3cuZ8b0xzb37l9aUq7X2jZ0G2ZjD3X58UYBJowEoEmAhYTAk0EKy4EmjAQgWbpINAE4Gfq1KlzUgO566+//nG/Y/3Cu2HDhu1ZqvfZWE2ZMmWW333lSbpA8y7ZFrjtJnWXjL8k9QNNL91pW8Oyy8VeVq33s7/ndg00dbbiKOfrabJto5tMZBpoXpfStz4GDfWWZ9iPn4YemztD02/38GZiz4J8wfnanaF5f5p+9nJuvzylPdtAM5OxB/G8FDQCTRiJQBMBiwmBJoIVFwJNGIhAs3QQaALwUwgzH025z0xnaC5atGjl0KFDx/jdTx75BZoacOmMyY1pztFdsr2Bpi5J1+XMR/oc615/8QpPW+ou5xVWPeUcd0wGY8400FzgHHeUp02XVb8rdQNa11irfmXVHp62bB6bew3NQ32OPdi57W5P20diz9hs63P8Jc7xU1Laswk0sxl7ts+LUQg0YSQCTQQsJgSaCFZcCDRhIALN0kGgCQC5M/QamjrD8CuxQy7vbEN3Gboe/x9P+3ay7XqVXVLu393J+wxPW2qgqYaJPWtTg9L2jYw500DzMqm/4dDpTttvpW54FxN7ubgux97J057NY3MDzZed+3PpTuGvOrd5Q8GfOW1LxH5uXXvKtl3OU8PObALNbMae7fNiFAJNGIlAEwGLCYEmghUXAk0YiECzdLTrK+O1oh4HAJho1qxZNxdokOlKt+Tc3UxGQ8MlTmnAqWHdM85tuqS7m3P8Itl2XUzd6OY2q5512l6UuiGlX6CpFjrHX9vImDMNNGd4xunSpd+POO06I3GZVWvEDlP9ngeV6WPTQPMDq553jl3h9PU/59irU+63tWybmbpJ7Nmbq5yxfG7V4T5jyXbJeaZjz+V5MQaBJoyUa6BZViYVFS2kQ/C/SjBcTAg0Eay4EGjCQASaAAA0zJ2duXHjxkJYWp5OukBTZ+npDEINMDWQ001lLnba9fqOfxM7JBvsHF8l9iw/Pe59qz626i9izwTsmHLf6QLNNmKHlHo9x+82MOZMA82xsm0TnFpPu+56rtftfELsAFJnha5wjveT6WN73RmTzqq8Ruxrjeq1KldadUKa+9aZmXrN1LXO/b4i9kZAtWmOzzbQzOb7ku3zYgwCTRgp60CzTMqr+8mRfX4g6wk04SMmBJoIVlwINGEgAk0AABo2e/bsxakbBxVQkInguYEmCgyBJoyUaaCpMzI7DJCJNVPklUHTJdFllMzJ+28VTBQTAk0EKy4EmjAQgSYAAOn16NFj5/Xr1292g0y/3dJRdAg0CxSBJozUWKCZGmRq1Z4pH1Y0b/RCxChNMSHQRLDiQqAJAxFoAgCQns7O1Gtkjh49+pCox4LQEGgWKAJNGCldoFlWLs1SgswtbqDZeZTMDv9XDIaICYEmghUXAk0YiEATAAB/lZWVVUOGDNk96nEgdASaBYpAE0aqF2g618ismSx/TwaY52wLMjXUrD1TPuLamWhATAg0Eay4EGjCQASaAAAAdezgFAoMgSaMtDXQbDjI3FqdRyZ3GAPSiQmBJoIVFwJNGIhAEwAAACYg0ISRdortlKjuJ+82FmTq7MwBZ8onLTvLkKr20jvTKq+Strn8QjVrJdtn00+Q/TVrKdvpLNRMqqxCmufSX3mltMq0jyD7y/X8LMSEQBPBiguBJgxEoAkAAAATEGjCOOtffTRR+8NmfuFlYNVxsEzO5Req2/fkBvoLvr9OQ+X0XM7PQkwINBGsuBBowkAEmgAAADABgSaM8/U3mxM7j+mU6DdFNqdu/ONX/X8o/9dtf1mUTbXuLjld7LnjEDml56GyNNtqs5OMpb/6uuwhcwk0Yai4EGjCQASaAAAAMAGBJoyUvIZmmWxyrp/5ciPLzhOte8joqH/ZkL3qGplAoAlDxYVAEwYi0AQAAIAJCDRhpDq7nG/bGChtsNnraHkk0t805IRAEwaLC4EmDESgCQAAABMQaMJIdQJNR1m5NOswUOL9pso//ILN1t1lj2h+zZArAk0YLC4EmjAQgSYAAABMQKAJI/kFmlulzthklqaxCDRhsLgQaMJABJoAAAAwAYEmjNRgoOmoN2OTWZrGIdCEweJCoAkDEWgCAADABASaMFImgabLE2y+yixNsxBowmBxIdCEgQg0AQAAYAICTRgpm0DTlQw2B8mJle1kp/z8OiFoBJowWFwINGEgAk0AAACYgEATRsol0IR5CDRhsLgQaMJABJoAAAAwAYEmjESgWRoINGGwuBBowkAEmgAAADABgSaMRKBZGgg0YbC4EGjCQASaAAAAMAGBJoxEoFkaCDRhsLgQaMJABJqlY8exslAr6nEAAJpM/5YnsqhpeRrHRqs+acL51dLwuP9r1QarfmJV8yaNFEWBQBNGItAsDa12lBE9D5WlbXvJ9/LcVUwINBGsuBBowkAEmqWj/ymySSvqcQAAmuyHVv0xpTaJ/Xr+N5/bDs/TOIIKNL+Q+mN+zKoXrPrGOeYRq8qaMtgiUGFVedSDiBKBJoxEoImAxYRAE8GKC4EmDESgWToINEDw5CgAABAASURBVAGgqM0T+/X8RyH2GVSg+WYDx3zb6UOPm9CEvkw3QuznYG7UA4kSgSaMRKCJgMWEQBPBiguBJgxEoFk6CDQBIDvNmjWrHDx48Miox5GhYg001eXOcZc0oS/TEWgKgSYMRaCJgMWEQBPBiguBJgxEoFk6CDQBIHsXXnjhLTfddNOTw4cP3zvqsTSimAPNU53jbm5CX6Yj0BQCTRiKQBMBiwmBJoIVFwJNGIhAs3QQaAJA9nr06LHz+vXrNz/11FOJa6+99tGhQ4eOjnpMaTQUaGpwuMCqp8QOIN+1ao1VJ6W5r/2tetiqf1v1qVXPWzVd6m/M4xdodrLqWbGvfTmxkTFnGmhe6hz3U5/bTnDG+p5V71j1gFVjG7iv9lZdZdVzVn1o1Uqxn7NBTh+TPMf+2mnr4nM/i53bujVxTJk81w9K/Q2TSnL5PYEmjESgiYDFhEATwYoLgSYMRKBZOgg0ASA3c+bMWaKBplsFGmymCzQ7W/V/zm1PW/UbsQO2T522s1OOn+i0fyl26Hm32GGb32en1ECzo1XPSGZhpsok0NzFqg+cSg0P73DOf8uqe8XeSEg3GNoi/ju7x6x6zTnnDauWib2Jkn79ggQTaGYzpkyf6/GybWf7h5372dlnTEWPQBNGItBEwGJCoIlgxYVAEwYi0CwdBJoAkBtnlubX3lBT67rrrnusgILNdIHmTKd9dkp7D6s+F3umotcrYoed3qCutVWvix1UtvG0ewPNbMNM5d3l/MGU0uDueef+XrZqeMq5xzrn3mlVK097X6v+adVmqwamnLPUOUefK+9u4dNl28zHpgSa2Y4pm+eaJedCoAlDEWgiYDEh0ESw4kKgCQMRaJYOAk0AyN3s2bMXpwaabhXINTbTBZq7ix3SdUxpLxN75uZbKe0asOky6TYp7TVih2otPW1uoKn3/bTTf7pl7H7cQLOx0vselHLuC07fqeNUxzvn/dzT1stp09C1zOec9dL0QDPbMWXzXBNoCoEmDEWgiYDFhEATwYoLgSYMRKBZOgg0ASB33bt37+PM0txSoMFmY5sC6YxEDfX2Eju0+41sWxrt5QZ1OqNwvlWHWLVdmvvUQFNnV7phptaMLMbc2JJzXS5/gXPMJtk2q7JS7NmOunz8Rz51sXPOPZ77OsRpm5Omr9nStEAzlzFl81wTaFo2derUKfnmlaJMKv25FQJNBCcmBJoIVtyqxKRJkyL/e0lR2ZT+zAqBZkkg0ATgp6amZsghhxwSpxqvG264YVW6MLMAlqKnCzQ1aNNZge85t+u1HP8ldrCmbamBph5/mlV/do7Vc3T581qxAzevjc7tOivxWOe/n1nVO8MxZ7opkDt7chfn696S2czORzz3cYbTNjlNH1OkaYFmLmPK5rkm0BQ7EMrkSaZKoLp16xb5GLKsTQIEIyb2z9TiiMeB4hGX6P9GFm1VNLcr6nEUecUFRY1AE4CfqVOnzskkpKOyrylTpswK8VuZLtC8y2m/0ardpO4y5pekfqDptb3YwdrlYu8Irvezv+d2DTS/tmqU8/U055gVGY4500DzupS+9TFoALg8w37U0c59zElz+yzn9kwDzd86t7mBZi5j8mrsuSbQtBwh9htWqkBqzJgxV1h/6O4Ju9+qqqrJDz744Ac9evSYHvVzkEXpzy8QhJjYLwiLIx4HiofuNBin8lOdR8k9WlGPo8irJHfLLCUEmgD8MEMz+BmaixYtWjl06NAxIX8r/QJNDdl0xuTGNOfojtreQFOXpOvS5yN9jnWvAXmFpy11l/MKq55yjjsmgzFnGmgucI47ytOmS7vflboBrWusVb+yag9P2xDnPnQ2pN81NNdK+kBzp5Rj9XG+LnUDzWzHlO1zTaCJwnPllVcu37hx45b27dunu1ZCXgwbNmxP/WN75513Pt+qVSu/i9YCxSwmBJqAESqaS3XtmfKhlv476vEApiLQBIDcGXoNzeZWfSV20Nbc0+4uQ9fj/+Np385p2yT1ZyVe6Nx2hqctNdBUw8SetalBaftGxpxpoHmZc5x3w6HTnTadKekNEGNiL6XXpdupQeRq2RYKekPNs2XbihVvoHm503Zmyv3M8RzvDTSzGVO2z7UbaM4XoFC4U/xHjhz5vTD7Pfnkky90//Bedtll95RZwuwfiFhMCDQBI3QeJbMHTZeElv476vEApiLQBIDczZo16+YCDTJd6ZacL5ZtoeESpzTgfFnsHb/1Nl3S7QZzi5w2DSofsOo2q5512l6UuiGlX6CpFjrHX9vImDMNNGd4xulqJvb1KLVdZ0Uus2qN2GGq3/OgNGx937n9Vat+J/Zj0qDxYakfaO7m3J8uJb/Pqqtk23VD35D6gWa2Y8rmuR7otOvO9Fda9W2fxweEa/fddz8ogutryPXXX/8n7x/hSZMmzQyzf8BPZVvpXt1PjqzqkPeljzEh0AQKXnJ25jT5YNB02aLlzNJs7P/2A/BBoAkAuXFnZ27cuLEQlpanky7Q1JmCPxM7wPyf2EuuL3badcfzv4kdqA12jq8Se6ahHqfh38dW/UXsWYMdU+47XaCpK0A1pNQg8LsNjDnTQHOsc5wGj7Wedt31XK/b+YRVH4g9K3SFc3w6PcUODl9xztEAcrxVx0n9QFPpxDMNJT/2jEGXwJ8n9QPNbMeUzXOtE9B0xqg+Vx9ZdUADjxEIR4cOHbbXP4YLFy68L6w+mzdv3nLt2rVfun+Idcm71tixYyeENQbAT3WNTNBZWJ2GJv+w51NMCDSBguedncksTaBpCDQBIDezZ89e7A0yr7/++scLKMhEMNIFml47inD5I6COX/7yl/f/6Ec/ujis/nQ6fOo0eQ00V61a9Unv3r0HhDUOIBWBJgCXOztzoD070w00dZbmRxUtpEPU4wNMQ6AJANnr0aPHzuvXr9/sBpm6F0XUY0JeZBJoAojaD3/4w7nprv9xzz33vNy2bVuW8yESBJoAXH6zM5mlCeSOQBMAsqezM/UamaNHjz4k6rEgrwg0ARPoH+SGdme76qqrHiovL6+IepwoPQSaAFSa2ZnM0gSagEATALJTWVlZNWTIkN2jHgdCQaAJFLoWLVq0Wrdu3Vfpwky3TjvttHlRjxWlh0ATgGpodiazNIHcEGgCAJBWO6u+b9XwqAcCII0RI0bs21iYqbM39Zqa++2339FRjxelhUATwNadzc/xnZ3pnaXJjudAFtr1lfFaUY8DAAAARaRVq1ZtdKe0fC/11s2HMgg0k7V69erPampqhuRzPIAXgSaAziNlll+AOchn+XmXUTIn6vECAAAAQMmaNWvWTRoi5nuX8ZtvvnmNzr50dzbX/27YsOGb5cuXv6m7tq1Zs+ZLb6h53333bWrfvv12+RwT4CLQBEpbcnbmGfJBSpCZqJkir2h527SYpQkAAAAAEZowYcIpGiCOGzfuxHz1obNA169fv9kNMzds2PD1Mcccc8Ytt9yyfu3atV9WVVW1aN68ectdd911r1NOOeVnN9544yptv+666x6rqKholq9xAS4CTaC0dR4pF3hnYPabIq92GCATy8qlmZb+2xNsMksTAAAAAKLUv3//oRo0zpgx45p89TFy5MjvuTMvH3300fc0uNT2s88++wptGzx48HdTz9FNhPS6m/meOQooAk2gdDmzM9/fGmQOlBM0xEw9zg029ZjkLM1p8gGzNAEAAAAgAs2aNavUa1beeuutG/PVx+mnn36JBpe/+c1vnuvatWsvt33//ff/vrYfd9xxP8lX30AmCDSB0qWzM/tNTQaZ8dQgs7q/HK3lbUsGmwPlhH5T5BVmaQIAAABARBYvXrz2/vvvfyNfGwPp0vJLLrlkacuWLVt72zXc1EBz3rx5d+WjXyBTBJpAySrT3Zf9ZmSq/qfIJi3fE61zkjs3l0l5XkcIAAAAAKivVatWbfN4321OOOGEc8ssfrc/9NBDb2mYmq/+gUwQaALw01CgCQAAAAAoUQsWLLhXZ2l27ty5W9RjQelqtaOM6HmoLG3bS76X565iQqAJGINAEwAAAABQTzwen6GB5tixYydEPRYgBDEh0ASMQaAJAAAAAKhn2LBhe2qgecYZZ/wi6rEAIYgJgSZgjN7fl8e1oh4HAAAAACANvc5lvjYGSkc3Clq/fv3mG2+8cVWY/QIRiQmBJgAAAAAAQNONGzfupJUrV34wfPjwfcLu+/bbb396zZo1n1dWVlaF3TcQspgQaAIAAAAAADTdnnvuOV6Xfp944onnhd33jBkzrtG+a2trdw27byBkMSHQBAAAAAAAaLrttttuRw0V58+f//uw+z7ooIMmat9HHXXUaWH3DYQsJgSaAAAAAAAAwVi+fPmbK1as+HfY/fbs2bNGA825c+feFnbfQMhiQqAJAAAAAAAQDJ2dqcFi586du4XZr25G9Mgjj/zn3nvvfTXMfoEIxIRAEzBGn+NlrVbU4wAAAAAApPGtb31r2MCBA0dUVFQ0C7vvK6644gENUzt27Ngl7L6BEMWEQBMwRv9TZJNW1OMAAAAAABSgyZMnX6CB5ujRo8dFPRYgj2JCoAkYg0ATAAAAAJDWiBEj9tVA89RTT/151GMB8igmBJqAMQg0AQAAAABptW7dut2GDRu+vu666x6LeixAHsWEQBMwBoEmAAAAAKBBd9111/OrVq36NIpreAIhiQmBJmCMdn1lvFbU4wBMtuNYWagV9TgAAABQxPr27Tv4wgsvvGWPPfY4OOy+Z86ceYMuO6+pqdkl7L5R2irbSvfqfnJkVQfZOc9dxYRAEwBQQpjpDAAAgLwbMGDAcA0VzznnnCvD7nv8+PGTte/DDz/85LD7RmmrrpEJg6ZLotNQOT3PXcWEQBMAUEIINAEAAJB3VVVVzdesWfPFkiVL1oXdd+/evQdooDl79mzCHoSKQBMAgPwg0AQAAEAobr311g0aamq4GWa/ZZaVK1d+8Nvf/valMPsFCDQBAMgPAk0AAACE4txzz71aZ0rW1tbuGnbfV1999cMbN27cUl1d3SnsvlG6CDQB+KnuL0drRT0OwGQEmgAAAAjFiBEj9j311FN/3rVr115h933KKaf8TMPUkSNHHhB23yhdBJoA/BDEAE3H7xEAAACK3qhRow7UQHPq1Klzoh4LSgeBJgA/BDFA0/F7BAAAgKLXrl27jrrk/Kqrrnoo6rGgdBBoAvBDEAM0Hb9HAAAAKAm///3v//74449/WG6JeiwoDQSaAPwQxABNx+8RAAAASsKcOXOW6LLz3r1710Y9FpQGAk0Afnp/Xx7XinocgMkINAEAABCaVq1atRk7duzhQ4cOHRN230ccccQPNdAcN27cSWH3jdJEoAkAQH4QaAIAACA0Xbp06aGh4qWXXnp32H3X1NQM0b7PP//868PuG6WJQBMAgPwg0AQAAECoVqxY8e/77rtvU9j9lpeXVzzxxBOf3Hnnnc+F3TdKE4EmAAD5QaAJAACAUF1++eWTDC1EAAAQAElEQVTLdKZkp06ddgi770WLFq3csGHDN61bt24Xdt8oPQSaAADkB4EmAAAAQjV58uQLNNDcY489Dg6779NOO22e9j18+PC9w+4bpafVjjKi56GytG0v+V6eu4oJgSYAoIQQaAIAACBUI0aM2Hfp0qUv7rXXXoeF3feYMWMO1UBz0qRJM8PuG8ijmBBoAsboc7ys1Yp6HIDJCDQBAABQMjp27NhZA82FCxfeF/VYgADFhEATMAZBDNB0/B4BAACgpCxbtuy1Rx999L0yS9RjAQISEwJNwBgEMUDT8XsEAACAknLRRRfdrrM0e/bs2TfqsQABiQmBJmAMghig6fg9AgAAQEk55phjztBA88ADD/xB1GMBAhITAk3AGAQxQNPxewQAAIBIVFVVtdhhhx16ht1vbW3tdzTQPPfcc68Ou28gT2JCoAkYo11fGa8V9TgAk/F7BAAAgNBVVlZWrV69+rMbb7xxVdh9N2vWrFL7vu222/4cdt9AnsSEQBMAAAAAACC/7rjjjmeefPLJ/1VUVDQLu++bbrrpyfXr129u2bJl67D7BvIgJgSaAAAAAAAA+fXTn/50kS79rqmp2SXsvs8888zLtO+hQ4eODrtvIA9iQqAJAAAAAACQX+PHj5+soeJhhx02Jey+99577yO07xNOOOHcsPsG8iAmBJoAAAAAAAD51bdv38EaKk6fPv1XYfe9/fbbd9W+58+f//uw+wbyICYEmoAxqvvL0VpRjwMAAAAAkKXy8vKKHj167BxV/8uXL3/z4Ycffjuq/oEAxYRAEzBG/1Nkk1bU4wAAAAAAGOaSSy5ZqrM0u3btGot6LEATxYRAEzAGgSYAAAAAICfHH3/8WRpo7rfffsdEPRYUp8q20r26nxxZ1UHyPRM5JgSagDEINAEAAAAAORk8ePBIDTTPOuusX0Y9FhSn6hqZMGi6JDoNldPz3FVMCDQBYxBoAgAAAAByUlVV1XzNmjVfLFmyZF3UY0FxItAE4Kf39+VxrajHAQAAAADI0YUXXnjLzTffvCaKvm+55Zb1a9eu/bKqqqpFFP2juBFoAgAAAAAAFKErr7xy+caNG7e0b99+u7D7Pvvss6/QZeeDBw/+bth9o/gRaAIAAAAAABShqVOnztFQceTIkQeE3ff+++//fe37uOOO+0nYfaP4EWgCAAAAAAAUod133/0gDRWnTJkyK+y+u3bt2kv7njdv3l1h943iR6AJAAAAAABQhDp06LC9hooLFy68L4r+H3roobceeOCBf0bRN4obgSYAAAAAAECRmjBhwikDBw4cEUXfCxYsuFcD1c6dO3eLon8ULwJNAH76HC9rtaIeBwAAAADAUPF4fIYGmmPHjp0Q9VhQXAg0Afjpf4ps0op6HAAAAAAAQw0bNmxPDTSnTZs2P+qxoLgQaALwQ6AJAAAAAGiSli1btl6/fv3mG2+8cVXUY0FxIdAE4IdAEwAAAADQZLfffvvTa9as+byysrIq6rGgeBBoAvBDoAkAAAAARWKvvfY67Lzzzru2vLy8Iuy+Z8yYcY0uO6+trd017L5RvAg0Afhp11fGa0U9DsBkO46VhVpRjwMAAAAlbtasWTdpqNinT5+BYfd90EEHTdS+jzrqqNPC7hvFq9WOMqLnobK0bS/5Xp67igmBJgCghDDTGQAAAAVhwoQJp2ioOG7cuBPD7rtnz5412vfcuXNvC7tvIAAxIdAEAJQQAk0AAAAUhP79+w/VUFGXf4fdd5nlkUce+c+99977ath9AwGICYEmAKCEEGgCAACgIDRr1qxy9erVn/36179+Kor+r7jiigc0UO3YsWOXKPoHmiAmBJoAgBJCoAkAAICCobMzTzvttHlR9D158uQLNNAcPXr0uCj6B5ogJgSagDGq+8vRWlGPAzAZgSYAAABgGTFixL4aaJ566qk/j3osQJZiQqAJGIMgBmg6fo8AAAAAS+vWrdtt2LDh6+uuu+6xqMcCZCkmBJqAMQhigKbj9wgAAABw3HXXXc+vWrXq04qKimZRjwXIQkwINAFjEMQATcfvEQAAAOCYOXPmDbrsvKamZpeoxwJkISYEmoAxCGKApuP3CAAAAAWlffv22+2xxx4Ht2rVqk3YfR966KGTNNA8/PDDTw67b6AJYkKgCRij9/flca2oxwGYjEATAAAABeXUU0+9SEPF4cOH7xN237179x6gfc+ePZtgCCaJCYEmAKCEEGgCAACgoIwZM+ZQDRVPOumkn4bdd5ll5cqVH/z2t799Key+gSaICYEmAKCEEGgCAACgoHTq1GkHDTQvu+yye6Lo/+qrr35448aNW6qrqztF0T+Qg5gQaAIASgiBJgAAAArO8uXL31yxYsW/o+j75JNPvlAD1ZEjRx4QRf9ADmJCoAkAKCEEmgAAACg4v/jFL353zz33vNKmTZvqsPseNWrUgRpoTp06dU7YfaO4VLaV7tX95MiqDrJznruKCYEmAKCEEGgCAACg4FRUVDSLqu927dp11CXnV1111UNRjQHFobpGJgyaLolOQ+X0PHcVEwJNoJCUtesr48vKxfe1rM/xslbL90TrHD1XyqQ8v0MEzEagCQAAAKT43e9+97fHH3/8w3JL1GOBuQg0gdLVeaRc0G+qvNphoMRTg02/IEaPsY49od8UeaXLKJkT5lgBExFoAgAAACnmzJmzRJed9+7duzbqscBcBJpA6apoLtW1Z8j7+jeg35RksHmCG2x6g5hkkDlAJuoxemztNPnAOrd9pIMHDECgCQAAAKQ44ogjfqiB5rhx406KeiwwF4EmUNp0lqb+DXArGWwOkIluEKP/rpkir3iPYXYmkBkCTQAAABSsZs2aVVZVVbUIu9+ampohGmief/7514fdN4oHgSZQ2pxZmh94Asst+t+BZ8tmLW9bcnbmmfIhszOBzBBoAgAAoCDtu+++R61Zs+bzAw888Adh911eXl7xxBNPfHLnnXc+F3bfKB4EmgA6j5RZ3hmYnhBzS2o7szOBzOnmWckNtAAAAIBCMmDAgOE6S/Kcc865Mor+Fy1atHLDhg3ftGnTpjqK/mE+Ak0AyVma0+SDQefUDzC9ASezMwEAAACgCFRWVlatWbPmiyVLlqyLov/TTjttngaqw4cP3yeK/mE+Ak0AqvMomd1AmJksPSbqcQIAAAAAAnDrrbdu0FCzqqqqedh9jxkz5lANNCdNmjQz7L5RHAg0ASh3luZAn2XmzuzMjypaSIeoxwkAAAAACMD06dOv0lCxtrZ217D77tixY2ft+5e//OX9YfeN4kCgCcDV0CxNZmcCAAAAQBHp3r17n969e9eWW6Lof9myZa89+uij75VZougfZiPQBOBKM0uT2ZkAAAAAgGBddNFFt+sszZ49e/aNeiwwD4EmAC+/WZrMzgQAAAAABOqYY445QwPNAw888AdRjwXmIdAE4LV1x3N7liY7mwMAAAAAgldbW/sdDTTPPffcq6MeC8zTakcZ0fNQWdq2l3wvz13FhEATMIJ3liazMwEAAAAAgWvWrFnl6tWrP7vtttv+HPVYgAbEhEATMEJyluaZ8qEzO7M66vEAAAAAAPKgZ8+eNb/4xS9+N378+MlR9H/TTTc9uX79+s0tW7ZsHUX/QAZiQqCJYO1sVZzKT3UeJfdoRT2OIi/9GQYAAACAaOywww49ddn3JZdcsjSK/s8888zLtP+hQ4eOjqJ/IAMxIdBEsOJi/0xReaiK5nZFPY4ir7gAAAAAQJRWrFjx7/vuu29TFH3vvffeR2igecIJJ5wbRf9ABmJif4BfHPE4UDziViUmTZqUWLx4MUUZU/ozKwSaAAAAAArB5ZdfvkxDxY4dO3YJu+/tt9++q/Y9f/7834fdN5ChmBBoIlhxq5IBEWAS/ZkVAk0AAAAAhWDy5MkXaKi4xx57HBxF/8uXL3/z4YcffjuKvoEMxIRAE8GKC4EmDESgCQAAAKBg9OvX79snnXTST7t3794niv71+p0aqHbt2jUWRf9AI2JCoIlgxYVAEwYi0AQAAAAAx/HHH3+WBpr77bffMVGPBfAREwJNBCsuBJowEIEmAAAAADgGDx48UgPNs84665dRjwXwERMCTQQrLgSaMBCBJgAAAAA4qqqqmq9Zs+aLJUuWrIt6LICPmBBoIlhxIdCEgQg0AQAAAMDjlltuWb927dovq6qqWkQ9FiBFTAg0Eay4EGjCQASaAAAAAApKixYtWh100EETx44de3gU/Z999tlX6LLzwYMHfzeK/oEGxIRAE8GKC4EmDESgCQAAAKCgNG/evOW6deu+uvHGG1dF0f/+++//fQ00jzvuuJ9E0T/QgJgQaCJYcSHQhIEINEvHjmNloVbU4wAAAAAadfvttz/95JNP/q+ioqJZ2H137dq1lwaa8+bNuyvsvmGmyrbSvbqfHFnVQXbOc1cxIdBEsOJCoAkDEWiWjv6nyCatqMcBAAAANOqnP/3pIg0Va2pqhkTR/0MPPfTWAw888M8o+oZ5qmtkwqDpkug0VE7Pc1cxIdBEsOJCoAkDEWiWDgJNAAAAGGP8+PGTNdA87LDDpkTR/2WXXXaP9t+5c+duUfQPsxBowmBxIdCEgQg0SweBJgAAAIzRp0+fgUuWLFmn17OMov94PD5DA82xY8dOiKJ/mIVAEwaLC4EmDESgWToINAEAAIAMDRs2bE8NNKdNmzY/6rGg8BFowmBxIdCEgQg0SweBJgAAAJChli1btl6/fv3mqHZah1kINGGwuBBowkAEmqWDQBMAAADIgu60vmbNms8rKyuroh4LChuBJgwWl5RA88orr0wGRXvuuadvkLRhwwY3SEq8/PLLvscMGzYsefuSJUsCDbF23XXXRJs2bQK9T5iJQLN0EGgCAAAAWZgxY8Y1uuy8trZ216jHgsJGoAmDxSUl0PzLX/6SDIpat26d+Prrr+sFSfPmzdsaaF599dX1bv/8888TlZWVydtfe+21QEOsKAPNjz76KHHmmWcmBg8enGjVqlWiV69eiQkTJiSee+65SMZT6gg0SweBJgAAAIzTtm3b9jvvvPOgKPo+6KCDJmqgefTRR+c7pILhCDRhsLikBJpbtmxJdOzYMRkWPfPMM/WCpH322SdRVlaWvP2www6rd/vq1auTt3Xr1i3wECuqQPPjjz9OxGKx5OPq3r178nGPHDky+XVFRUVi5cqVoY+p1BFolg4CTQAAABjnj3/847t/+MMf/hFF3z179qzRQHPu3Lm3RdE/zEGgCYPFxecamoceemgyLLrmmmvqtH/xxReJli1bJkaNGpXo0aNHorq6ut4szssvvzx57rHHHht4iBVVoHnOOeckH9Opp56aDHxdv/vd75Lt/fr1C31MpY5As3QQaAIAAMA4V1xxxQMaKnbo0GH7sPsuszzyyCP/iSpQhTkINGGwuPgEmgsWLEiGRRMnTqzT/thjjyXbZ82alTjxxBOT/163bl2dY4466qhk+6JFcADokgAAEABJREFUiwILr3SGpAo70HT73WWXXZJL8L/88st6xwwcODD5eN9///3QxgUCzVJCoAkAAADjTJ06dY4GmiNHjjwgiv7dQLVjx45dougfZiDQhMHi4hNo6t89be/bt2+d9vPPPz/Z/qc//Slxxx13JP89d+7cOsfstNNOyfaXXnppa9tXX32VPE6Xabdt2zZ5v0ceeWTi+eefrxdU6XUq9fwPP/wwcf311ye6du2aXOau/ALN9957Lxk4lpeXJ2655ZZ696cbE+27776JTp06JTp37pw48MADE48++mhW/R588MH1wl2X9q3nvfnmm763Iz8INEsHgSYAAACMM2rUqAP1g/XUqVNnR9H/5MmTL9D+R48ePS6K/mEGAk0YLC4+gaYuI2/Xrl0yMNLA8P/ZuxewKOv0/+OPnARUUFBUVERMNFQUKi0ULDyjQYJpZekkhohrumqewxNrHggNEbXU9ZClmCjmEZVMFAF/27bb1m7tVrv7++9W23ltO5nNn3t+jouKivjMfOeZeb+u67mKYfje924zw/V8+B6s7r77bsuBODJT8ZNPPrHspdmnT59L3//oo48sP9OsWbNLj33zzTeWIFK7uK/mAw88YO7Zs6dl70lvb2/zrl27LqttDRbltHUvLy/L8vfVq1dbvndloPn555+bu3fvfs0w8+GHH7aM1aJFC8s49913n7l+/fqWvletWlXrutdy9OhRS22ZpVl9KTpsj0DTdRBoAgAAwHBkqbkEigsXLtyion7VTXd/qZ+RkfErFfVhDASaMDCTVkOgKWQmo3xv//79lq/llG8JIQcMGHDpOTI7UcI/CS3F3r17LT8jp39byfJ0eezRRx+17MFpdezYMUs42rx5c/O5c+cuPW4NFiWEfOeddy7rqXqgeaMwc/v27ZZxRo4caf7Pf/5z6fH33nvPsv+nh4fHZTNEr1e3utLSUsvs0h49elj+/5Ae3n333Ws+H7ZBoOk6CDQBAABgSAEBAUGqajdo0MCvsrLyp3Xr1pWo6gGOz7el1jMkSSto1E4bZONSoRqBJvRl0q4RaC5dutQSGM2bN8/y9b59+yxfL1u27NJzpk+fbnns4MGDlq9nz559aZajlRwc1KRJE0sgeiXrz2/YsOHSY9Zgcf78+Vc93xpoSpgZFRVled7GjRtrDLw6d+5seW71sNRq27Ztlp+dM2dOrepWt2fPHsuSeRlbni+zTc+cOXPdn4H+CDRdB4EmAAAAUAc7d+58q7S09Bt3d3cP1b3A5YVqBJrQl0m7RqApIZ18r2/fvpavJ0+ebPn67Nmzl55z5MgRy2O//OUvLV/Hx8dbvn7zzTctX//jH/+wfC2zPWsiszTl+xJsWlmDxVdfffWq50ugKUvGrWGmXM8888xVz5M9O2UGZrt27cx5eXlXXdbgVZa/16butRw6dMgS2MrJ7++//36tfw63jkDTdRBoAgAAAHUwb968F2TZeXh4eDfVvcDlhWoEmtCXSbtGoHn+/HnLyd5yiM+FCxcs+0Q2btzY8u9W3377rSVg7Nq1q+VxeW7151RUVFhCp9TU1BpDKTk4SL4vS7itrMFiZWXlVc+37sUpsyNlSbn8s6YwUb7WLgae17usYe2N6l6PdSbrlYcjwbYINF0HgSYAAABQB0lJSakSaCYnJ49X3QtcXqhGoAl9mbRrBJpCTgeX7xcXF1v+OWzYsKueY52VaX2OnAhuZZ2hOWTIkBrHLykpuWyGp7AGi/K5eyUJNGXfylOnTlm+loN95LkDBw687HkStMrBP4MHD75hMHajum+88Yblf9PatWtr/DnrvqFPPvlkrWvh1hFoug4CTQAAAKAOwsLCOssN7vz58wmRoFqoRqAJfZm06wSaMutQvn/vvfda/lnTqd+y5Lv6c1asWHHZ9+W09ICAAPO///3vq3525syZlp95/vnnLz12o0Cz+innchr7HXfcYXn+yy+/fNlzZbm5nLYu4eaVjh8/bv7FL35hPnny5A3ryiFC8njv3r2vGqf6//5rBZ6wDQJN10GgCQAAAMPKzMzcePjw4X+6ubm527t2vSqvvfbal6+88sof7V0buEKoRqAJfZm06wSaEvhp1ZZo13T6t+ypWf05ssy8uqefftry+JgxYyx7W1pVfa5eOuW8eth5M4GmkOfJrE05nfzLL7+89LgcTKRdPHG9eqj54YcfmgMDAy2no//1r3+tVV05zV2+d+Vp6nJKuozFHpr2R6DpOgg0AQAAYFgSaMpNpsyWVFF/zZo1xVU37T/7+/sHqqgPXBSqEWhCXybtOoHm999/b/b29rYERxIY1kT2y5RQT54je27K3pvVffPNN5dmUbZt29Y8fPhwy2xHCSFl7N27d1/2/JsNNKv/THp6+qXHpA/ZI1Mel5ma999/v/mee+6x1JXH5HCg2taVkFbCV/m+HEg0YsQIc1xcnOXgIQlGX3jhhRr/v4HtEGi6Dr8O2gNyqe4DAAAAuGkpKSnpcpOZmJj4uIr648ePXyj1Y2JiBquoD1wUqhFoQl8m7TqBprAuJR81atQ1nyOH+shzZM/NmsjMzIULF5rvvvtuy8FBt912m+Vn3n777aueW5dA89y5c+bWrVtb9s0sKyu79LiErbLPZmxsrOWwIgllZb9NWXJ+M3WFHGD02GOPmVu1amU5CKlDhw6W2Z+//e1vr/n/C2yHQBMAAACAw+vUqVO03GTOmjUrX0X9Xr16JUj9tLS0BSrqAxeFagSa0JdJu0GgCTgiAk0AAAAADs/Dw8Pz9OnT327btu1/VNT38/MLkCXneXl5R1TUBy4K1Qg0oS+TRqAJAyLQBAAAAGAI8fHxKeHh4d1U1d+9e/efTpw48ZVbFVU9wOWFagSa0JdJI9CEARFoAgAAAEAtLFiwYPPFg4kiVPcClxWqEWhCXyaNQBMGRKAJAAAAALVQ7WCisap7gcsK1Qg0oS+TRqAJAyLQBAAAAIBaCA8P7y6B5ty5c59X3QtcVqhGoAl9mTQCTRgQgSYAAAAA1IKbm5v7yZMnz+3YseP3qnuBY/FspLX276g96NVEu83GpUI1Ak3oy6QRaMKACDQBAAAAGMZ999037Fe/+tVLjRo1aqyi/vr161+rrKy80LBhQ38V9eGY/MO1lK4zNHNgtDbJxqVCNQJN6MukEWjCgAg0AQAAABhGRkZGliz77tGjRz8V9SdOnLhEZX04JgJNGJhJI9CEARFoAgAAADCMPn36JEmgOHbs2Dkq66emps5TUR+OiUATBmbSCDRhQASaAAAAAAwjMDCwhQSK2dnZe1TUDwgICJL6q1at2q+iPhwTgSYMzKQRaMKACDQBAAAAGMrBgwf/9/Dhw/9UVX/fvn0fHD9+/LN6VVT1AMdCoAkDM2kEmjAgAk0AAAAAhiLLzdPS0hZ4eHh4qqiflZW1XWZphoSEdFBRH46HQBMGZtIINGFABJoAAAAAcBMeeuihJyXQTEhIeEx1L3AMBJowMJNGoAkDItAEAAAAgJsQERFxlwSaM2fOXKO6FzgGAk0YmEkj0IQBEWgCAAAAwE2Qpe6nT5/+9sUXX/yN6l7gGAg0YWAmjUATBkSgCQAAAAA3aePGjacqKirO+/r6NlTdC9Qj0ISBmTQCTRgQgSYAAAAAwwkMDGwxYMCAkU2bNm2pov6UKVOyZdl5dHR0HxX14VgINGFgJo1AEwZEoAkAAADAcEaMGPELlQfz9O3bd7jUHzNmzEwV9eFYCDRhYCaNQBMGRKAJAAAAwHA6d+7cQwLFp556KldF/WbNmgVL/ezs7D0q6sOxEGjCwEzaDQLNL774wjx37lxzVFSUuUmTJmZvb29zu3btzKNHjzaXl5frFlDt2rXL3LZtWy6uS9e0adMINKG1jNdWyqW6DwAAAOCWeXp6epWVlX2/efPmclU9HDx48H+Li4s/UVUfjsO3pdYzJEkraNROG2TjUqEagSb0ZdKuE2gePXrU3KpVK2twZA4NDbUEm15eXpav3d3dzfPmzTP/+OOPtxxoWgOqwMBA5UEal9rL+pobM2YMgSa0TunaX+VS3QcAAACgi61bt1ZKqFl1Y11fRf2lS5cWyCzN4ODgUBX14ZJCNQJN6MukXSPQLCgoMNerV89yzZ492/zpp59e+t4PP/xgfvXVV80tWrSwhEqJiYm6BZosf8eHH35IoIlLCDQBAADgVKZPn/7cSy+99NvmzZu3UVH/0UcfnSaB5oABAx5SUR8uKVQj0IS+TFoNIeK5c+cuzZLbt2/fNUOlTz75xNypUyfL8/bu3XtLIRaBJqwINFEdgSYAAACgo8jIyBgJNKdNm7ZKdS9wGaEagSb0ZdJqCBFlRqY8/tBDD90wfDpw4MCl5ei3svScQBNWBJqojkATAAAA0JEsdVe9jydcTqhGoAl9mbQaQkQJJ+Xxd955p1YB1J133ml5/smTJy1fDx061PJ1VlZWrUMsAk1YEWiiOgJNAAAAQGdbtmypOHPmzA9eXl7eqnuBSwjVCDShL5N2RYgoe2XKY3Ka+YULF2oVQD3xxBOWn8nOzrZ8TaCJW0GgieoINAEAAACdyT6esuw8MjLyHtW9wCWEagSa0JdJuyJEfPvtty1BUdeuXWsdQEmQKT8zY8YMy9cffPCB+c033zR//PHHtR6DQBNWBJqojkATAAAATsnHx6dBw4YN/VXUHjhw4MMSaI4aNWqqivpwOaEagSb0ZdJ0CDRXrFhh+ZmZM2fWOcQi0IQVgSaqI9AEAACA07nnnnsGVlZW/jR69OinVNQPDg5uJ4HmM888s1NFfbicUI1AE/oyaddZcv7zzz/XKoBKTU21/Myzzz5b5xCLQBNWBJqojkATAAAATqdFixYhEiguW7Zsl6oejhw58tGBAwf+rqo+XEqoRqAJfZm06xwK9Mc//rFWAdRdd91lef6pU6fqHGIRaMKKQBPVEWgCAADAKR0+fPifr7766l9V1c/Ozt4joWpQUFArVT3AZYRqBJrQl0mrIUScPXu2JSwaNWpUjWHS73//e3NeXp7l3/fv3295bqtWrcznz5+vc4hFoAkrAk1UR6AJAAAAp5STk1MkgWLTpk1bqqhvMplmSf34+PgUFfXhUkI1Ak3oy6TVECKeO3fOElDWq1fPfOjQoavCpPHjx1vCpHHjxpnbt29v+ffVq1ffUohFoAkrAk1UR6AJAAAAp5SamjpPAsVevXolqKgfHR3dR+pPnjx5hYr6cCmhGoEm9GXSrhEiFhQUWAJNNzc388KFC81ff/31pe/99NNP5v79+1sDJXO/fv3MFy5cuPT9v/3tb+Y//OEP5n/961+1DrEINGFFoInqCDQBAADglAICAprLXpqq6nt7e/tWVFSc37BhQ6mqHuAyQjUCTejLpF0nRCwuLjYHBwdbgiMJN8PDw81xcXGW2ZvaxTBTHm/durVZ/rBjNXToUMv3srKyah1iEWjCikAT1RFoAgAAADayffv2N8rKyr7z9ISu4jsAABAASURBVPT0Ut0L7M+zkdbav6P2oFcT7TYblwrVCDShL5N2gxDx888/t+yp2b17d7O/v7/Z19fX3KlTJ/MjjzxiOQTo9OnT5ubNm5t9fHzMf/7zny0/Q6CJW0GgieoINAEAAAAbmTVrVr7MToqIiLhTdS+wP/9wLaXrDM0cGK1NsnGpUI1AE/oyaTqEiLLEfMmSJbc0BoEmrAg0UR2BJgAAAGAjQ4YMGS2B5siRI20daMEBEWjCwEyag4SIy5YtswRUsqQ9NTWVy4Wvqt+lltfC4MGDr/l6IdB0HQSaAAAAgI2EhISES6C5ePHiF1X3Avsj0ISBmbQrAs3c3FxLUHTvvffWGCRVVlZe2j/zvffeq/E5d9xxh+X7mzdvrnWgKUGWdVwuLrnat29PoAkCTQAAADivoKCg1nl5eUfGjx+/UEX9elWOHTv2aVFR0fsq6kMtAk0YmKnquizQ/N3vfmcJiho0aGA5zfxKzzzzzKXAac2aNVd9/7vvvjN7enpavv/BBx/UOtC0ztCUYFP64XLda8WKFZbXAjM0IQg0AQAA4LS8vLy8y8vLf9y4ceMpVT0899xzB2SWppy6rqoHqEGgCQMzaVcEmj///LN8jlnCot/+9rdXBUn9+vWznGwu3x82bNhV35dDguR7chL6zbAGVNV7gWtiD01UR6AJAAAAp2Y9adzDw8NTRf1x48Y9LYFmXFxcoor6UIdAEwZm0moIEZOSkixhUX5+/mWPf//995bTzHv16mVu06aN5dTzK2dx5uTkWH5WTkG/GQSasCLQRHV+HbQH5FLdBwAAAGATc+bMWSeBYnh4eHcV9Xv27Nlf6k+cOHGJivpQh0ATBmbSaggRn332WUtYNHr06MseLykpsTyemZlpfvzxxy3/Xl5eftlzRowYYXl8/fr1NxViEWjCikATAAAAgMtISkpKlUAxOTk5TUX9Bg0a+FVWVv60bt26EhX1oQ6BJgzMpNUQIspnqTzeoUOHyx6fO3eu5fHXX3/d/NJLL1n+ffHixZc9p23btpbH//jHP156bOjQoZbHsrKybhhQEWiCQBMAAACAy2jZsmXbhx566Mk2bdrcpqqHnTt3vlVaWvqNu7u7h6oeYH8EmjAwk1ZDiCjLyP38/CyB0WeffXbp8bvvvtvs6+tr/uGHH8yffPKJZS/NPn36XPr+Rx99ZPmZZs2aXTYegSZuBoEmAAAAANjRvHnzXri47L2b6l5gPwSaMDCTdo0QMSEhwRIY7d+/3/L1119/bXZ3dzcPGDDg0nO6detm9vLyMn/zzTeWr/fu3Wv5mZSUlMvGktPO33zzTfPHH398w4CKQBMEmgAAAABgR9Zl71U38+mqe4H9EGjCwEzaNULEpUuXWgKjefPmWb7et2+f5etly5Zdes706dMtjx08eNDy9ezZsy1f5+bm3nSIRaAJKwJNAAAAALCjsLCwzhJozp8/n8DJhRBoQrF6t/CzJu0aIeKZM2csgVHfvn0tX0+ePNny9dmzZy8958iRI5bHfvnLX1q+jo+Pt3wtszFvFoEmrOwYaN7KewcAAAAAnEO9Kq+99tqXu3fv/pPqXmA/BJpQbHjVtbTqalyHnzVp1wgRz58/b27QoIG5UaNG5gsXLpi7dOlibty4seXfrb799ltz/fr1zV27drU8Ls+98jm1RaAJK1sHmm5eWsNmPbWZfh20pDq8ZwAAAABAX3IYz4MPPpgxfPjwCap6WLNmTfHZs2d/9vf3D1TVA+zLt6XWMyRJK2jUThtk41KhGoEmriaHkP2l6vqi6nq66vK/iZ81adcJEfv3728JjYqLiy3/HDZs2FXPsc7KtD5HDgCqCwJNWNkq0HSvr/kHxWhPRzypfdExTftLPTeNA/wAAAAAOIaqm+pPioqK3ldVf/z48Qtl2XlMTMxgVT3AaYVqBJqomUn7v9eGXF9WXZla7YJNy89dK0RcvHixZcx7773X8s/Vq1df9ZxnnnnmsuesWLGiTiEWgSas9A40LwaZmRFPal/KbHq5mnRh700AAAAADuS55547IIFikyZNmqmo36tXrwSpn5aWtkBFfTi1UI1AEzWzztI0V7u+0m4cbJq064SIJ0+erD6e+Z133rnqObKnZvXnVFRUXPWcv/3tb+Y//OEP5n/96183DKgINKFXoHkpyJz83yBTro5PMDsTAAAAgIORIPHiDElbL/+tkZ+fX4AsOc/Lyzuioj6cWqhGoIlrM2mXB5o/X/znOe3ae2xafuZaIeL3339v9vb2tozXokWLGp8j+2UGBgZaniN7bsrem1eSZejy/aysrBsGVASauNVA07pHpjXI7DJD+7l6oNmkizZG7zcfAAAAANyS3r17D5FA84knnshU1YMcCnTixImv3Kqo6gFOKVQj0MS1uVdd72r/DTKvFWw2qfYzJu0GIaJ1KfmoUaOu+ZwHH3zQ8hzZc7MmBJq4GXUNNN28tEbXCzLla2ZnAgAAAHBIAQEBQWvXrj2ekJDwmKoeFixYsFlC1bCwsAhVPcAphWoEmrg+mXlmvsZVU7Bp0hwkRCTQhNXNBpo3CjIvm53ZWRtt7zclAAAAABhCSkpKugSaiYmJY1X3AqcSqv3fDfy/q673ubhquD6oun7Urp6lWVOwKXts7tEcJES0BlSyfL1t27ZcLny1atWqVoGme33NHBSj7YmYrH11MbC8ZpAp3+syXTvfKV37q15Xy3htpaYzvw7aA3r26Op9AgAAALgJ4eHh3SXQnDt37vOqe4FTaa2pD8y4HPsybKC5a9cu5UEal2Nd06ZNu+br5VKg2YtAkz4BAAAA6MLNzc395MmT53bs2PF71b0AcCmGXXIO3AyWnAMAAACADaxfv/61ysrKCw0bNvRX3QsAl2CTQ4EAR1SXQ4G6cigQAAAAAEcXFBTUKjo6Ok5V/YkTJy6RZec9evTop6oHAC7lytmZ1wsyrUwagSYMqKZA0+pGwSazNAEAAAA4LFnuLcu+Zfm3ivp9+vRJkkAzNTV1nor6AFyKzDj7i3Z5oCl7ZM6vuhpf5+dMGoEmDOh6gaaVe32tcVAvbX7ElEt7bFouZmkCAAAAcFiZmZkbJVBs3759FxX1AwICgqT+qlWr9quoD8ClVJ+dKUHmAu36QaaVSSPQhAHVJtC0kmCzeS9tQfVgs0kXy3sGAAAAABxLSkpKugSKiYmJj6vqoaio6P3jx49/Vq+Kqh4AOD2ZafbnqutLrfZBppVJI9CEAd1MoGl1KdicrH3Z8Qntz8zSBAAAAOBwOnXqFC2B5qxZs/JV9ZCVlbVdeggJCemgqgfYnmcjrbV/R+1Brybabap7gUtK0a69R+aNmDQCTRhQXQJNK+sem363aYl1eM8AAAAAgO14eHh4lpaWfrNs2bJdqnoYOXLkJAk0ExISHlPVA2zPP1xLkSWMgdHaJNW9wCXdygxwk0agCQO6lUBTp/cOAAAAANhG/fr1fVTWj4iIuEsCzZkzZ65R2Qdsi0ATBmbSCDRhQDoFmgAAAACAK8ks0dOnT3/74osv/kZ1L7AdAk0YmEkj0IQBEWgCAAAAgA1t3LjxVEVFxXlfX9+GqnuBbRBowsBMGoEmDIhAEwAAAABsaMqUKdmy7Dw6OrqP6l5gGwSaMDCTRqAJAyLQBAAAAOD0ZOm3qtp9+/YdLoHmmDFjZqrqAbZFoAkDM2kEmjAgAk0AAAAATm3GjBmry8rKvm/UqFFjFfWbNWsWLIFmdnb2HhX1YXsEmjAwk0agCQMi0AQAAADg1DIyMrIkUOzZs2d/VT0cPHjwf4uLiz9RVR+2RaAJAzNpBJowIAJNAAAAAE6tT58+SRJojh07do6qHpYuXVogPQQHB4eq6gG2Q6AJAzNpBJowIAJNAAAAAE4tMDCwheol348++ug06WHAgAEPqeoBtkOgCQMzaQSaMCACTQAAAABO78CBA38/fPjwP1XVj4yMjJFAc9q0aatU9QDbIdCEgZk0Ak0YEIEmAAAAAKcXHR0dFxISEq6qvpeXV305mGjz5s3lqnqA7RBowsBMGoEmDIhAEwAAAADsYMuWLRVnzpz5wcvLy1t1L9AXgSYMzKQRaMKACDQBAAAAwA6mT5/+nCw7l+XnqnuBvnxbaj1DkrSCRu20Qap7AW6SSSPQhAERaAIAAACAHQwcOPBhCTRHjRo1VXUvAHCRSSPQhAERaAIAAACAHQQHB7eTQPOZZ57ZqboXALjIpBFowoAINAEAAAC4hLi4uMSVK1e+2qZNm9tU9XDkyJGP5MR1VfUB4AomjUATBkSgCQAAAMAljBgxYqLMkBwyZMhoVT1kZ2fvkR6CgoJaqeoBAKoxaQSaMCACTQAAAAAuoXPnzj0kTJwxY8ZqVT2YTKZZ0kN8fHyKqh4AOK16dfgZk0agCQMi0AQAAADgEjw9Pb3Kysq+37x5c7mqHqKjo/tIoDl58uQVqnoA4Jya99YWBnTT0uq5aR438WMmjUATBkSgCQAAAMBlbN26tVJCTS8vr/oq6nt7e/tWVFSc37BhQ6mK+gCcV/0mWocu07Xz4eO0dxt31h6rV09zr8WPmTQCTRgQgSYAAAAAl5GUlJT62GOPTffx8Wmgqoft27e/UVZW9p3MGFXVAwDn1DpB29x1hmaWK/wJ7c9NOmujbxBsmjQCTRgQgSYAAAAA2NGsWbPyZdl5RETEnap7AeBcvJpot3WZrv10MdT8uRbBpkkj0IQBEWgCAAAAgB3JKesSaI4cOXKS6l4AOJ/WCdqvrbM0LddT/xdsdhyvfVjDHpsmjUATBkSgCQAAAAB2FBISEi6B5uLFi19U3QsA5+PVWGsvszS7XJyheYNg06QRaMKACDQBAAAAwI7qVTl27NinRUVF76vuBYBzaj1Y23RZmFlzsPnXgG7a5npuBJowHgJNAAAAAC4lKCiolRwO1K5du9tV9bBq1ar9MkszICCguaoeoL/QFO3Vjmna+zd71Q/UIqhHPT3rWWdpdr1ylubll3WPTfNTK8eZf7pwXnVGBdQagSYAAAAAlxIfH58iYeLo0aNnqOph3LhxT0sPcXFxiap6gP6cKRCjnrHrXQw0z9cm0OwogeYqAk0YC4EmAAAAAJfSvHnzNhImLlu2bJeqHnr06NFPepg4ceISVT0AcF7XW3Ju3VuTJecwMgJNAAAAAC7n8OHD/9y/f//fVNX39fVtVFlZ+dO6detKVPUAwDld61CgK4JMDgWCoRFoAgAAAHA5OTk5RTJDsmnTpi1V9bBz5863SktLv3F3d/dQ1QMA59M6Qft1LYJMK5NGoAkDItAEAAAA4HIeffTRaRs2bCgNCwur0953epg3b94LEqqGh4d3U9UDAOdS7TCg/55m/oT2lyZdtDFXBJlWJo1AEwZEoAkAAAAACshJ6xJopqSkpKvuBYBzqD478wZBppVJI9CEARFoAgAAAIACYWFhnSXQnD9//q9V9wLA+LyaaLfJyeYd0yxBpukGQaaVSSNkrvU/AAAQAElEQVTQhAERaAIAAACAAvWqvPbaa1/u3r37T6p7AWB8zXtpC2rYI/NGTBqBJgyIQBMAAAAAFFmzZk3x2bNnf/b39w9U3QsAw6tXh58xaQSaMCACTQAAAAAuq0mTJs1UnnQ+fvz4hbLsPCYmZrCqHgC4NJNGoAkDItAEAAAA4JIiIiLukjBx6tSpK1X10KtXrwTpQYJNVT0AcGkmjUATBkSgCQAAAMAleXl5eZeXl/+4cePGU6p68PPzC5Al53l5eUdU9QDApZk0Ak0YEIEmAAAAAJe1ffv2N8rKyr7z8PDwVNWDHAp04sSJr9yqqOoBgMsyaQSaMCACTQAAAAAua86cOetkyXd4eHh3VT0sWLBgs/QQFhYWoaoHAC7LpBFowoAINAEAAAC4rKSkpFQJEwcPHjxKVQ8pKSnp0oP0oqoHAC7LpBFowoAINAEAAAC4LF9f30b+/v6BKnuQ2aESaM6dO/d5lX0AcEkmjUATBkSgCQAAAAAKubm5uZ88efLcjh07fq+6FwAux6QRaMKACDQBAAAAQLH169e/VllZeaFhw4b+qnsB4FJMGoEmDIhAEwAAAAAUmzhx4hJZdt6jR49+qnsB4FJMGoEmDIhAEwAAAAAU69OnT5IEmqmpqfNU9wLApZg0Ak0YEIEmAAAAAJfWqFGjxps2bTqdmZm5SVUPAQEBQRJorlq1ar+qHgC4JJNGoAkDItAEAAAA4PKKi4s/2bt3719U9lBUVPT+8ePHP6tXRWUfAFyKSSPQhAERaAIAAABwebm5uQfPnj37c+PGjZuq6iErK2u7zNIMCQnpoKoHAC7HpBFowoAINAEAAAC4vLS0tAUSJsbExAxW1cPIkSMnSQ8JCQmPqeoBgMsxaQSaMCACTQAAAAAur3fv3kMkTHziiScyVfUQERFxl/Qwc+bMNap6AOByTBqBJgyIQBMAAACAy/Pz82uSmJj4eHBwcDtVPXh4eHiePn362xdffPE3qnoA4HJMGoEmDIhAEwAAAAAcxMaNG09VVFSc9/X1bai6FwAuwaQRaMKACDQBAAAAwEFMnjx5hSw7j46O7qO6FwAuwaQRaMKACDQBAAAAwEH07dt3uASaY8aMmam6FwAuwaQRaMKACDQBAAAAwEE0a9YsWALN7OzsPap7AeASTBqBJgyIQBMAAAAALho1atTU9PT0RSp7OHDgwN+Li4s/UdkDAJdh0gg0YUAEmgAAAABw0Y4dO35/8uTJc25ubu6qeli6dGmBzNIMDg4OVdUDAJdh0gg0YUAEmgAAAABw0dNPP71BwsT27dt3UdWDzBKVHgYMGPCQqh4AuAyTRqAJAyLQBAAAAICLkpOTx0uYmJiYOFZVD5GRkTHSw7Rp01ap6gGAyzBpBJowIAJNAAAAALioU6dO0RImzp49e62qHry8vOqXlZV9v3nz5nJVPQBwGSaNQBMGRKAJAAAAABd5eHh4Ll++fPf9999vUtnHli1bKsrLy3+sX7++j8o+ADg9k0agCQMi0AQAAAAABzN9+vTnZKaoLD9X3QsAp2bSCDRhQASaAAAAAOBgBg4c+LAEmnJAkOpeADg1k0agCQMi0AQAAAAABxMcHNxOAs2lS5cWqO4FgFMzaQSaMCACTQAAAABwQEeOHPnowIEDf1fdBwCnZtIINGFABJoAAAAAcIWQkJAO8fHxySp7yM7O3iOzNIOCglqp7AOAUzNpBJowIAJNAAAAALhCXl7ekbNnz/7s5+fXRFUPJpNplgSa8fHxKap6AOD0TBqBJgyIQBMAAAAArjBhwoTFEib27Nmzv6oeoqOj+0gPkydPXqGqBwBOz6QRaMKACDQBAAAA4ApxcXGJEiaOHTt2rqoevL29fSsqKs5v2LChVFUPAJyeSSPQhAERaAIAAADAFQIDA1tIoPnss8/uVdnH9u3b3ygrK/vO09PTS2UfAJyWSSPQhAERaAIAAABADfbu3fuXlStXvqqyh1mzZuVLsBoREXGnyj4AOC2TRqAJAyLQBAAAAIAauFVR3cOQIUNGS6A5cuTISap7AeCUTBqBJgyIQBMAAAAAHFRISEi4BJqLFy9+UXUvAJySSSPQhAERaAIAAACAg6pX5dixY58WFRW9r7oXAE7JpBFowoAINAEAAADAga1atWq/zNIMCAhorroXAE7HpDlAoPnzzz+bv/76a/NXX32ltA8YB4EmAAAAAFxHw4YN/WWmpKr648aNe1oCzbi4uERVPQBwWiZNUaD5008/mb/44gvzBx98YP7tb39rls85CTWB2iDQBAAAAIBrePLJJ5efPXv259DQ0E6qeujRo0c/udGfOHHiElU9AHBObm5uY6v+YU5NTbUERLa+tm3bZi4qKjKfOHHCXFlZaQkxrVd5ebldeuByjktesxqBJgAAAABcbcSIEb+QG+2EhITHVPXg6+vbqOrG/6d169aVqOoBgPPx9PT0ysnJeWPSpEnWYMgmV0hIiHn06NHmTZs2XRViVr+mTZtm0z64bnwNHTrUPGfOHJvXcXNzs7wudBrPpAEAAAAA/qtz58495Eb7qaeeylXZx86dO98qLS39xt3d3UNlHwCcg5eXV33r/rxV/3zz4kxNk15XWFjY3LS0tL3btm378FoB5pVXRETEQj174Lr5Ky8v7y35bxEVFbXElnUaNGgw4fXXX/82NjZ2pQ7j3aYBAAAAAP5LZjCVlZV9v3nz5nKVfcybN+8FuckMDw/vprIPAMZ3cWZmkXym5ObmHvLy8vLWY9ygoKDWM2bMWH3gwIG/1zbElEu29SgsLPyzHj3g1kRGRt4j/03y8vKO2LJO06ZNW0odWX3w8MMPT7ZlLQAAAABwSVu3bq2UUFNmNKnqISkpKVVu/lJSUtJV9QDAOUyfPv25izMz9+v9uda6dev2cpDZK6+88sfqgeWNQs20tLQFevaBupMw8+IszVhb1QgJCelQ/b//4sWLX9QrWAcAAAAAVOnQoUNks2bNglX2EBYW1llu+ubPn/9rlX0AML6AgIDmEmra+o80nTp1ip4yZUr2oUOH/nGjcLNt27YdbdkLai8yMjJG/pssX758t61qhIeHd7/yNbBx48ZTVa/NIFvVBAAAAADYWb0qJSUlX+zevftPqnsBgJvhViUhIeHR0tLSczUtN9+6detZ1T3ickOGDBndsGFDf1uN37179941BdsSfkdERNxpq7oAAAAAADuTZYBy8+/v7x+ouhcAqK3Q0NBOBw8e/H8SWB0+fPijK2dpPvLII79U3SPs65577hl4jf1UzWfOnPl+8ODBo1T3CAAAAADQwfjx4xfKDV9MTMxg1b0AMAZZVv7II49McXNzc1dRPywsLOLw4cP/lBBT+pC9MqsHWJWVlReCgoJaqegN6sTHx6dc75AouSZNmrRUZveq7hUAAAAAcAskyJSbPQk2VfcCwPFJmCkH/1ycBTnF3vVlD83jx49/JuHUiBEjJspjV+6dmJ+ff8zefUE9WdJ+vUOirLN45fXboEEDP9X9AgAAAIAhxcTEDFq3bl1Jt27deqnqoVGjRo3lJk+WnqvqAYAxeHp6euXk5BRJKJSbm3vI3idIR0RE3FVSUvJ5ZWXlT/fff7+p+vf27dv3gTW4SkxMHGvPvnDzQkJCwtu1a3e7nmMOHz58wvUCzerXyy+//LuWLVu21bM+AAAAALgE6/K40aNHz1DZhxwKdOLEia9YhgfgWlSHmdHR0XEnT578d0VFxXk5DOjK70+dOjVHejtz5swP8ocae/aGm9OmTZvbJJTW+w9pVb9Ln6ptoCnXsWPHPo2KiorVswcAAAAAcHrNmzdvIzdVy5Yt26WyjwULFmyWPmRfOpV9AHBc9evX98nPzz+qIsyUw15Onz79rYSV991337CanhMdHd1HPseWL1++2569oW4kzJT/XnoGilfupVp1WfbNfO21175csmTJy9nZ2XvkNbxly5YKmaFZVFT0vpyAPmjQoEf06gEAAAAAXILcTO3fv/9vKntISUlJl5u/pKSkVJV9AHBsEmrKHpr2rNm7d+8hZWVl31Vd38fFxd1/refJAUVHjx79l8x8t2d/qJvIyMh75PeOnrM0p0yZkl19v0w52TwnJ2effB0bGztUrzoAAAAA4PKsSzibNm3aUlUP1gM15s6d+7yqHgDgSv369XuwvLz8x9LS0m969OjR70bPnzp16koJXe3RG26d3rM0Z8+evbZ6oDlgwICR7du37yL/vnbt2uN61AAAAAAAVJFZIzJDUuWebzKz6eTJk+d27tz5lqoeADgWmYnp6+vbUFX9gQMHPiz7Zcr+vpGRkTG1+ZmqfhvZui/oR/67yhLw8PDwbnqMt2jRom3WQHPChAmLrY+vWbOmWB7r2LFjlB51AAAAAAAOYv369a9VVlZeaNiwob/qXgCoJWHmqlWr9r/wwgsnVYSaDzzwwDj5PJK9D7t06dLT3vVhTCtWrCiU4FL2yqx+yF1MTMxgeXzhwoVbVPYHAAAAANDZxIkTl8gNX22WdQJwXqpPM5cZ6xJmFhcXf6LXzD24BpmJWVBQ8HaDBg38qj9er4o8LtsXBAUFtVbVHwAAAABAZ3369EmSACM1NXWe6l4AqKE6zBw9evRTUru4uPhj2fvQnrVhfCtXrny1devW7Wv63rBhw56Q11ZGRkaWvfsCAAAAANhIQEBAkNzsyTJT1b0AUGPkyJGTrJ8D9j7NfMyYMTOl9oEDB/4eEhLSwZ614Rjc3d09buXnW7RoEXKt78nrWYLykpKSz318fBrcSh0AAAAAQJWgoKBWDz/88OTaHnxhK0VFRe8fP378M1mep7IPAGrIvoMSato7zBw/fvxCCTP37dv34bVm2MG5yT6X8t/flr8Hra+z4cOHT7BVDQAAAABwGXIDJzdZU6dOXamyj6ysrO3SB7OjANiD/PGk6nMvRz53du/e/Sf2N3RdVb8H75HXQV5e3hFb1ZCVCGVlZd8VFha+V/3QIAAAAABAHcg+dXJYwcaNG0+p7MO63DQhIeExlX0AcH4SZj711FO58pmza9eud5o1axasuieoJWGmvB6ioqJibVUjMzNzk9SIjY0daqsaAAAAAOAyXnzxxd/IzBEPDw9PVT1ERETcJTd6M2fOXKOqBwD2IcvKZ8yYkaciSHRzc3O3Bkvbt29/o3Hjxk3t3QMcjz1macphU2fPnv157dq1x21VAwAAAABcxpw5c9bJjVzHjh2jVPUgYerp06e/lXBVVQ8AbE/CTDn4R8UfMCTMXLRo0VapvW3btv/x9/cPtGd9ODYJM48dO/ZpQEBAc1vVWLNmTbHq37cAAAAA4BQGDBjwUG5u7qGIiIg7VfYhy94rKirO+/r6NlTZBwDb8PT09MrJySmSQEc+c2TLC3vWXr58+W6pvWHDhtIGDRr42as2jEFOKrf17x85gEhegwsXLtxiyzoAAAAAADuZPHnyCrnRi46O7qO6FwD6koNQrDMz5Z/2PM1cZIx+HwAAEABJREFUalmD1Oeff/4EfzSBKrJ/a0FBwduydzUHUQEAAACAE+jbt+9wCRzGjBkzU3UvAPT36KOPTrP3zExvb29f6zLfqtoH69ev72Ov2kBNkpOT0+T1mJGRkaW6FwAAAADALZIDQuQmLzs7e4/qXgDYhszUtFctmYm5bt26EvlcWbly5av2nBUKXIu8DouLiz8uKSn53MfHp4HqfgAAAAAAt+jAgQN/r7rR+0R1HwCMrVGjRo1//etfn5Ewc8mSJTvk4DHVPcE4wsLCIh5//PHZthp//PjxC+W1OXz48Am2qgEAAAAALiE4ODg0JCQkXGUPS5cuLZCbPOlFZR8Abo3MQqv6POmgorafn1+TrVu3VspnyeLFi190d3f3UNEHjGv16tWH5fUTGRkZY4vxAwICgsrKyr4rLCx8z56zlgEAAADAqQQHB7e7OJPpZZV9jBo1aqr0ISevq+wDQN1JmCkH/xw7duxTe/+RJCAgoPmOHTt+L58jc+bMWU9YhLqIjIy8R15DeXl5R2xVIzMzc5PUiI2NHWqrGgAAAADg9GSpd1FR0fsqe5DZMHKDN23atFUq+wBQN56enl7WE8XtfQBQ06ZNW8oJ0lJ75syZa+REaXvVhvOxHiYVFRUVa4vx27dv3+Xs2bM/r1279rgtxgcAAAAAl/Dcc88dkJurxo0bN1XVg8zsKisr+37z5s3lqnoAUDcqw8yWLVu23bt371+k9qRJk5baqy6clz1maVpD044dO0bZqgYAAAAAOLW0tLQFcmMVExMzWGUfW7ZsqSgvL/+xfv36Pir7AHBz7rjjjnsrKirOy3Jze54oLsva5UAxwkzoLT09fVGXLl162mp8+X0rr9uFCxdusVUNAAAAAHBqvXr1SpAw4sEHH8xQ2YcsN7flYQwAbEdCTXuGmaGhoZ0OHTr0D/nMSE1NnWevuoAeZFsE2SZB/ogXFBTUWnU/AAAAAGA4slzUx8engeo+Bg4c+LCEE3JAkOpeADiu8PDw7kePHv2XbJXx8MMPT1bdD1AXycnJafI7LyMjI0t1LwAAAACAOgoODg6Vm7ulS5cWqO4FgGO6/fbb7zh+/PhnlZWVF5KSklJV9wPUlcxoLi4u/rikpORzR/ijIgAAAACgjo4cOfKR7Imnug8ANZMZ3cuWLdsVFxd3v71rd+vWrdfrr7/+dWVl5U9Dhw4dY+/6cE0SPAYFBbWyxdjjx49fKH/IGz58+ARbjA8AAAAAsIPs7Ow9cnNnq5tHAHUnwY4c/CPv0eXLl++2Z+3o6Oi4kydP/lv2HOzbt+9we9aG6/L39w+UP7LJqeS2GD8gICCorKzsu8LCwvfcqtiiBgAAAAA4PdU3VCaTaZaEJfHx8Skq+wBwOZmZmZOTUyTvz9zc3ENeXl7e9qodExMz6PTp09+eOXPmh3vvvfcBe9UFRF5e3hF53UdFRcXaYvzMzMxNMn5sbOxQW4wPAAAAAE7L3d3dY/v27W+sXbv2uMo+oqOj+8iN3eTJk1eo7APA5ZYsWfKyvDdlhqY9TzPv3bv3EJnBdurUqf/cfffdA+xVF7CKjIy8R177EmzaYvz27dt3kQOuVP/+BQAAAABD2rFjx+9LS0u/kXBTVQ/e3t6+FRUV5zds2FCqqgcAV5NQR0JNe4aZ/fv3HyFLzOVzqUePHn3tVRe4kq1nacqSdhm/Y8eOUbYYHwAAAACc1tNPP71BbqhktojKPmSmqMzIkiWuKvsAoM6gQYMekT9unDhx4qvIyMgY1f3AtUmgX1xc/El8fHyyLcaPiYkZLL9/Fy5cuMUW4wMAAACA00pOTh4vN1SJiYljVfYxa9asfOkjIiLiLpV9AFBj2LBhT1RWVl4oKSn5okuXLj1V9wMIW85OrleloKDgbZmRHBQU1NpWdQAAAADA6chSNwkSZ8+evVZlH0OGDBktfYwcOXKSyj4AVyXBjaoDSoYPHz5B9hOU2XDh4eHdVPQAqJCcnJwmv/syMjKyVPcCAAAAAIbh4eHhKXvWqZ4dEhISEi43dVlZWdtV9gG4Igkz5eAfCRXtHWqOHj36KXnvHzly5CPVW18A9ibvveLi4o9LSko+9/HxaaC6HwAAAADATZCld8eOHfu0qKjofdW9AK5E9q3NyckpklAxNzf3kJeXl7e9ao8ZM2am1N2/f//f2rRpc5u96gKOZPz48QvlfZCSkpKuuhcAAAAAwE2SGWJyUxcQENBcdS+AK1AZZqanpy+Suvv27fuwVatWYfaqC9RF27ZtOy5fvny3LQ6rqvqdFySH4hUWFr7rVkXv8QEAAAAANjRu3LinJeCIi4tLVN0L4ApatGgRcuDAgb/LHxNsefhJdTIbe+rUqSvlvb579+4/qd7uAqgNOfFcXrN5eXlHbDF+ZmbmJhlf1T62AAAAAIA66tGjRz+5oZs4ceIS1b0ArqJ58+Zt7BlmzpgxY7W8z3ft2vVO06ZNW9qjLqAHCTPltRsVFRWr99iyf6zsYbt27drjeo8NAAAAAE5LDubIzMzcqLIHX1/fRpWVlT+tW7euRGUfAPTn5ubmPn/+/F9LILR9+/Y3Gjdu3FR1T8DNsPUszTVr1hTL+B07doyyxfgAAAAA4HTkBk1mh/j5+TVR2cfOnTvfKi0t/cbd3d1DZR+AM/Lw8PBUUVfCzEWLFm2TsGbr1q1nqz5nAlT0Adwq6+/Kdu3a3a732DExMYPlPbJw4cIteo8NAAAAAE5pwoQJi+VGqmfPnv1V9jFv3rwXpI/w8PBuKvsAnI31ACDZv9LedVesWFEo7+sXXnjhZIMGDfzsWR/QkywN79SpU7QtxpYtGQoKCt4uLy//kb1lAQAAAKAW5CAeCRzGjh07R2UfSUlJqdJHSkpKuso+AGcie2TKwT/y3pJ/2mumptS1nqK+fv3613x9fRvaoy5gVMnJyWnyfsnIyMhS3QsAAAAAOLzAwMAWchOVnZ29R2UfYWFhnaUP2WtPZR+As7DOzJT3VW5u7iEvLy9ve9T19vb2zc/PPyp1n3vuuQP2qgsYmfwRoLi4+OOSkpLPfXx8GqjuBwAAAAAc3syZM9ckJiY+rrIHWXJXdSP3xe7du/+ksg/AWUyZMiXbOjPTXqeZy0xMOdxL6ubk5OyzV13AGaSnpy9ipQIAAAAAGIz10AV/f/9A1b0ARicHfUmoaa9QsVGjRo03b95cLoHMkiVLXuaALzir+vXr+/Tr1+9BvccNCAgIKisr+66wsPBdtyp6jw8AAAAAsIHx48cvlDBETnxV3QuA2mvSpEmzl1566U15/y5evPhFwkw4Mwns5bUeGRkZo/fYmZmZm2Ts2NjYoXqPDQAAAACwAQky5UZOgk3VvQConYCAgOY7duz4vbx358yZs46ZZXB2kZGR98jrXVYV6D22nKYuKxXWrl17XO+xAQAAAAA2IEtW5UbOFjeJgDOTZeUmk2mWvU4xt2revHmbwsLC9yTcmTFjRp7shWvP+oAq8ntKXvdRUVGxeo+9Zs2aYhk7PDy8u95jAwAAAIBTkVPGk5OTx6ueXSWHAp04ceIr1X0ARiFhphz8IwGIhJr2qtuyZcu2e/fu/YvUnTRp0lJ71QUcgS1naVpXKyxYsGCz3mMDAAAAgFNZuHDhFrmBCg0N7aSyD7mBkz7CwsIiVPYBGIGnp6dXTk5OkbxncnNzD3l5eXnbo25ISEj4wYMH/1fqpqWlzbdHTcDRyO+rhx566Em9ZybLeAUFBW+Xl5f/GBQU1FrPsQEAAADAqYwYMeIXEk4MGTJktMo+UlJS0qWPpKSkVJV9AI5OVZjZrl272w8dOvQP2R5i1KhRU+1RE3A1ycnJafLezsjIyFLdCwAAAAA4rM6dO/e4uA/eapV9yJ5h0sfcuXOfV9kH4Ogk0MzOzt5jzzBT3p9Hjx79l4SZMjPNHjUBVyRbSRQXF39cUlLyuY+PTwPV/QAAAACAQ5JwpKys7PvNmzeXq+zDzc3N/eTJk+d27tz5lso+ACOQ960EH/aodfvtt99x/PjxzyorK39KTEwca4+agCtLT09fJH/gk5ULqnsBAAAAAIeVn59/LDc396DqPtatW1dSWVl5oWHDhv6qewGgad27d+/9+uuvfy1hpuptKQBHpfcfFwICAoLKysq+KywsfJeD8gAAAADAwU2cOHGJzErp0aNHP9W9AI5CwhIVIX90dHQfmTV95syZH+Lj41PsXR9wdLLlw8qVK1+1xYnnmZmZm+T3YWxs7FC9xwYAAAAA6KhPnz5JcgOXmpo6T3UvgCOQMHPVqlX7t27detaeoWZMTMzg06dPfyth5r333vuAveoCRiNhpvzeioqKitVz3Pbt23eRPWvXrl17XM9xAQAAAAA6k2V2cmMoAY7qXgDVVJ1mLjPCZLnrqVOn/nP33XcPsEdNwKgiIyPvkfeoLWZp5ufnH5Wx5VAuvccGAAAAAOioqKjofTmApF4V1b0AqqgKM/v37z+ivLz8x9LS0m/uuuuueHvUBIzOVrM0e/XqlSDjLliwYLOe4wIAAACAU2nWrFmwvU5OvpasrKztcgMXEhLSQWUfgErDhg17wjpb2V7vyUGDBj1SUVFx/sSJE1/JrDN71AScgbxf5EC7xx9/fLae48of9goKCt6WPzIEBQW11nNsAAAAAHAK48aNe1oClDvvvPM+lX2MHDlykvTBicpwZRJkSKhprzAzOTk5TQKZkpKSLzp37tzDHjUBZ9KqVaswW4wr7035nZiRkZFli/EBAAAAwNDi4+OT5aZpzJgxM1X2ERERcZf0MXPmzDUq+wBcxYMPPpghh48UFxd/0qFDh0jV/QD4L/mjRtV78+OSkpLPfXx8GqjuBwAAAAAcSvPmzdtIkLh8+fJXVPbh4eHhKacrb9++/Q2VfQCuYPTo0TPkfX/kyJGPwsLCOqvuB8DV0tPTF8n7NCUlJV11LwAAAADgcA4dOvSP/fv3/011Hxs3bjxVWVn5k6+vb0PVvQC2JjOw5s6d+3xwcHA7e9aV2dgSksh7vk2bNrfZszaA2gsICAgqKyv7rrCw8F23Kqr7AQAAAACHIqcqyz56TZo0aaayj8mTJ6+QoCU6OrqPyj4AW5MwUw7+kde7hJr2qjthwoTFUnPfvn0f2jtIBZyZLAsfPXr0U126dOmp57iZmZmb5D0bGxs7VM9xAQAAAMDwWrZs2bZhw4b+qvvo27fvcEfYzxOwJU9PTy/5I4K81nNzcw95eXl527qmHDY0bdq0VVJz9+7dfwoKCmpl65qAK5ETz+X9lZeXd0TPcdu3b99F9rpdu3btcT3HBQAAAADopFmzZsFyQ5idnb1HdS+ALUiwaJ2ZKf+0x2nmUnPGjBl5UrOgoODtpk2btrR1TcAVSZgp77OoqKhYPcfNz88/KuOGh4d313NcAAAAAIBODhw48Hc5dVl1H4CtDBs27Inc3NyD9piZ6ebm5r5gwYLNEoa8+OKLv2ncuHFTW9cEXJWtZmn26jD6MyAAABAASURBVNUrQcaV97Ke4wIAAAAAdLJ06dICuXELDg4OVd0LYCsya9LWNTw8PDyXLVu2S95PW7durfTz8wuwdU3A1VlnaUq4qdeY8nkhs6vLy8t/DAoKaq3XuAAAAAAAnYwaNWqq3AwOGDDgIdW9AEYl+3TK1g3yXnrhhRdO+vr6NlLdE+AKOnfu3GP48OET5D2o57jJyclp8n7OyMjI0nNcAAAAADC0O+64416ZxdW/f/8RKvuIjIyMkZs2OcBEZR+AHmSPzLCwsM72rOnt7e1rnSW2fv3613x9fRvasz4A/clnSXFx8cclJSWfy4nqqvsBAAAAAIdg3ftr6tSpK1X2ITdtZWVl32/evLlcZR/ArZLXshz8c+LEia/kpGJ71JSgIz8//1i1Q4dsvk8nAPtIT09fJO/tlJSUdNW9AAAAAIBDkOBD9ufauHHjKdW9bNmypUJ6qV+/vo/qXoC6kOWmOTk5RRI+5ObmHrJHsNiwYUP/TZs2nZaashet7KFp65oA7CcgICCorKzsu8LCwnfdqqjuBwAAAAAcwvbt29+QmyXVQYgsN794qEKMyj6AulARZvr5+TWRWc1Sc8mSJS+7u7t72LomgBvTe8uJzMzMTfI+j42NHarnuAAAAABgWHPmzFknN0rh4eHdVfYxcODAh6UPOSBIZR9AXcj2DbJtwsUl3/VtXU9mbb300ktvyntm3rx5LzBzC3AMEyZMWKz3H+dk+4qzZ8/+vHbt2uN6jQkAAAAAhiZBTEJCwqN+fn4BKvsIDg4OtS6bVdkHUFddu3a92x5hZmBgYIudO3e+Je+X2bNnryXMBByHdW9qOaRLz3Hz8/OPOsIfHwEAAAAAVzhy5MhHBw4c+LvqPgBH1aJFi5DCwsL3JNiYPHnyinpVVPcE4HISZsp7NCoqKlavMXv16pUgYy5YsGCzXmMCAAAAAHSQnZ29R27YgoKCWqnuBXA0Mou5qKjofXmPTJo0aanqfgDUzBazNOWPFwUFBW/L4XlVvyNb6zUuAAAAAOAWjRkzZqbcBMbHx6eo7gW4FjkAaMWKFYWDBg16xF4127Zt2/HgwYP/K++PJ554ItNedQHUTW5u7sGsrKztem5DkZycnCafARkZGVl6jQkAAAAAuEXR0dF9rEtpVfcC1ETCCTn4R16nzz777F571GzXrt3thw4d+occCvLII4/80h41Adwad3d3D73HrPr88S4uLv64pKTkcx8fnwZ6jw8AAAAAhiKHjKSmps6Li4tLVNmHt7e3b0VFxfkNGzaUquwDqInMzMzJySmSMDM3N/eQhAu2rtmxY8eoY8eOfSph5siRIyfZuh4Ax5aenr5IPoNSUlLSVfcCAAAAAEoFBwe3kxukJUuWvKy6l+3bt79RVlb2nYRHqnsBqlu0aNE2eZ/IDE17nGYeERFxp8zEqqys/CkxMXGsresBcHwBAQFB8juysLDwXbcqqvsBAAAAAKWKi4s/kQNHVPcxc+bMNRIaRURE3KW6F6C68PDw7hJq2iPM7N69e+/XX3/9awkzExISHrN1PQDGkZmZuUl+T/bu3XuI6l4AAAAAQKnnnnvugNwgNWnSpJnKPoYMGTJa+mB5LVzVHXfcce/JkyfPnTlz5of4+Phk1f0AqDs5nXzs2LFzlyxZskOvMdu3b99FtqHIz88/pteYAAAAAGBIaWlpCyRIjImJGayyj5CQkHDpQ06HVdkHoIK8/2Q5adX1fZ8+fZJU9wPg1q1evfqw/F6LioqK1WvM/Pz8ozKmzBzXa0wAAAAAMByZFbZ8+fJXIiMjY1T2IbNZ5BAUR1j+Dtcly8r79u073J414+Li7pcg89SpU//p2bNnf3vWBmA7Xbt2vVvCxzVr1hTrNWavXr0SZMwFCxZs1mtMAAAAAMAtkENX5EYtICCguepe4HokzLS+Bu0Vag4YMGBkeXn5j6Wlpd/ceeed99mjJgD70XuWpvzxr6Cg4G353AgKCmqlx5gAAAAAgFswbty4p+XGLy4uLlF1L3Atnp6eXjk5OUXy+svNzT3k5eXlbeuagwcPHlVRUXH+tdde+1Jmctm6HgD7i4yMvEc+VxYuXLhFrzGTk5PTZMwJEyYs1mtMAAAAAEAd9ejRo5/cpE2cOHGJ6l7gOlSEmcnJyeMrKysvlJSUfBEREXGXresBUEdOJffw8PDUazz5jCouLv646vPjcx8fnwZ6jQsAAAAAqANfX99GlZWVP61bt65EdS9wHYGBgS0KCwvfk+Xmsuzc1vVGjBgxUU4qlkDitttu62rregCcT3p6+iL5I0xKSkq66l4AAAAAQAm3Ku3bt+/iCDPFdu7c+ZbsJ+ju7u6huhe4Dgk17RFmjhkzZqaEEIcPH/5nWFhYZ1vXA+CcAgICgsrKyr4rLCx8V36Hq+4HAAAAAOzO29vbV/bye/7550+o7mXevHkvSOATHh7eXXUvgJ6sYearr77619atW7dX3Q8AY5s/f/6v5TNFlrSr7gUAAAAAlHj55Zd/5wgzI5OSklJZRgdbkj0z5aRge9WTWlOmTMmW1/W+ffs+CA4Obmev2gAcS3R0dJxef7CTlRWyfUV+fv4xPcYDAAAAAMN5+umnN0jgonpPP1mGK30sWLBgs8o+4JysBwBlZmZutMcyTQkzp0+f/py8pl955ZU/BgUFtbJ1TQCOSX6/ymfBmjVrivUaMz8//yirGgAAAAC4LDl1WW6KEhMTx6rsQwIgOfl59+7df1LZB5yP7JEpB//I61z+KeGmLetJYCrBqdQrKCh4u2nTpi1tWQ+A41u9evVh+UyIioqK1WO8Xr16JfBHQAAAAAAuq2PHjlGnTp36z+jRo2eo7iUvL++ILKPz9/cPVN0LnIN1Zqbc+Ofm5h7y8vLytmU9Nzc3dwkYpN62bdv+h9cyANG1a9e79ZylKX8ElD+YlJeX/8gMcAAAAAAuR26KVO+faTV+/PiFcsMXExMzWHUvcA4ZGRm/ss7MtPVp5h4eHp7Lli3bJfU2btx4qkGDBn62rAfAWPSepZmcnJwm402YMGGxHuMBAAAAAOpAgky5OZNgU3UvcA6+vr4NJdS0dZgpM0Gzs7P3yOv3+eeff72qbiNb1gNgPJGRkffIDO7g4OBQPcaTGefFxcUfl5SUfO7j49NAjzEBAAAAADepUaNGjWXJuSw9V90LUFve3t6+8pq1LmuvX7++j+qeALiG9PT0RfLZk5KSkq66FwAAAABwWXIo0IkTJ76yx0nUwK2SWVFr1649Xm1Zu0336ASA6gICAoLKysq+KywsfJffmwAAAABckiPMLLMeqBIWFhahuhcYiywrT0tLm2+vULFhw4b+mzZtKpPX6zPPPLNT9tC0R10AqG7+/Pm/ls+h3r17D1HdCwAAAADYlZzILLMjVfchy+bkxiwpKSlVdS8wDgkzZYakvHYk1LR1PT8/vyZbtmypkHq/+tWvXnKUg7UAGIfs8avHOO3bt+8i27Xk5+cf02M8AAAAADAM2QNQbogkqFHZR3h4eHcJiebOnfu8yj5gHHIgT05OTpF1D0tbz9CUJZ4vv/zy76yvU5Z5ArhZgwYNekS2V+nWrVsvPcbLz88/Kp9J8jtUj/EAAAAAwBAyMjKy5GaoZ8+e/VX24ebm5n7y5MlzO3fufEtlHzCG6jMzL+5hadPTzAMDA1sUFBT8QerNnj17LWEmgLro2rXr3fI5smbNmmI9xuvVq1eCjCfbtugxHgAAAAAYQp8+fZLkZmjs2LFzVPeybt26ksrKyguyR6HqXuDYJABftGjRNnvMzGzRokXInj17/izvkyeffHK5LWsBcH6rV68+LJ8nUVFRsbc6Vr0qu3bteufMmTM/NG3atKUe/QEAAACAw5OZZ3JjlZ2dvUd1LxMnTlwivfTo0aOf6l7g+CTUtPXMzODg4NCioqL35XU5adKkpbasBcA16D1LMzk5ebyMN2HChMV6jAcAAAAAhiDLzRs3btxUdR9xcXGJclOWmpo6T3UvQNu2bTsePHjw/8lrcty4cU+r7geA85BZmoWFhe/qsX+1zFIvLi7+uKSk5HMfH58GevQHAAAAAKglOXTFuiei6l7gWGQmpj1D97CwsIjDhw//Uw7MeuSRR6bYqy4A1yC/72SWuV7jpaenL5LfnykpKel6jQkAAAAAqCVZ3nv8+PHPZF8w1b3AMVgPAJIDo+wRanbq1Cn62LFjn0qYOWLEiF/Yuh4A3CoJSMvKyr6TWZ8cWgYAAAAAdpaVlbVdZpmEhIR0UN0L/n979wIdRZXncbwkoCSgSIAoETEYzQGEiOExCjEqOMKEJcMCoqhAAbM85OEIkceiEscHyMQwSogMh0FRYFbQZIEF5GFgAQmvGXdX1/FxdmScUcZVFsYnjGht/Tvd0nRVQqDr0ZX7/ZxzD0l3p+p2d07/ub/cW9d/jRo1Or+kpGSt/E54sQFQx44du8myzf37958sKCgY5ea5AMBJc+bMeU4+K3Nzc/v73RcAAAAAUModd9wxWQZk/fv3H+F3X+Avr8NM2XF4586dn0uYmZ+ff4+b5wIAp2VmZnaSmeVlZWXb/O4LAAAAAHhi+PDhhaWlpZv9XqrWsWPH7hJgzZgxY5Gf/YD/8vPzh0euqer2buZdu3a9eefOnV9UVVWd6N279yA3zwUA0Xr06NFnypQp8504VllZ2Vb53MzKyurixPEAAAAAIKEVFRU9L4OgjIyM9n72o2HDho1279791cqVK3/vZz+QGGSmpNthZq9evfLl2nNmO56Xl1fg5rkAIJb8MVHqr8wSj/dY8nkmx5Ka7kDXAAAAACCxDR06dGKiLPVeunTpLln2m5KS0tTvvqB+y8vLGyBBpoToPXr0uNXv/gBQT3Z29g1SfyXYjPdYsqHemjVr3pbZ5i1btmztRP8AAAAAIGFdc801PWRANX369IV+9+W+++77pfQlJyfnJr/7gvrrtttuu3Pfvn3fylLzbt263eJ3fwCoy8lZmoMGDRonx5owYcKjTvQNAAAAABKWbMAiM9WWL1++z+++9OnTZ4gMxkaOHDnD777AG7KsXHbo9eqSB7KUXWYBb9++/Wjnzp2v9+KcAFCTyCzNZ555ZmO8x5IN1LZs2fLXysrKI8nJyU2c6B8AAAAAJKzRo0f/s2zE4nc/WrVqlS4Du+Li4gq/+wL3SZgpG//Iey6hptvnGzx48Pj9+/d/J4N92YTK7fMBQF3cdddd96enp2c4cazx48f/Qj5TZbamE8cDAAAAANTBhg0bPtyyZcsnfvcD7pKZwSUlJWvDM5M2ycwiN883fPjwwgMHDnwvs5euuuqqzm6eCwD8kpqamiabnZWXl7/bwOR3fwAAAABACfPmzVstIZdTs1WQmEpKStbJ+ywzNN3ezVwuYSDnkrC8bdu2V7t5LgDwm8x4l8+83Nzc/n73BQAAAACUcPfdd0+VgVjfvn2H+d0XuEc25lmwYMF6t2dmjh07tkh+n9avX3/xVFtlAAAQAElEQVSoTZs2mW6eCwASQWZmZieZkV5WVrbN774AAAAAgBKys7N7SgA1bdq0X/ndFwTXeab777//KfldkqWXaWlpbfzuEwCcSbNmzVo48ceXsrKyrfL5l5WV1cWJfgEAAABAQpJBz4gRIx5ISUm50M9+yPLjRNl1HcEkYWZhYeHTMph/+eWX/yCbTfndJwA4k7S0tMt27tz5+aJFi7bEe6xevXrly2dgUVHR8w50DQAAAAAS06RJk+bK4Kdbt263+N0XCTP37t379wsuuCDZ774gfhJSt2/fPseLczVo0CDp4Ycf/o38Lq9ateqN5s2bt/LivADghNLS0s3y+XXdddfdGM9x5A87a9asebuqqupEy5YtWzvVPwAAAABIKL179x4kgyjZQMXvvshyc+mLLD/3uy+Ij4SZsvHP7t27v3I71JQw85FHHlkuvzsvvvjiQVm66eb5AMBpZt27QT7DJNiM91iDBg0aJ8eaMGHCo070DQAAAAASjlxjUAY+8+fPf9nvvsiGQNIX2SDI777g3DVq1Oj8kpKStfJePvPMM5vc3ABIziW/u3KupUuX7mrSpMlFbp0LANzk1CxNWeWwbdu2TysrK48kJyc3cap/AAAAAJBQNm3a9NGGDRs+9Lsf6enpGTKYmzdv3mq/+4Jz42WYKbNAn3rqqX+Vcy1ZsmSH39eBBYB4yCzN1atX/7cTl4CR2Zny2SizNZ3oGwAAAAAknIceemhpSUnJOjfDp7ravHnz4UQIV3FuZHm5LDOX5eYSOLp1nsaNG6fIBhqR4JTrrgKoD+QamE4cJzU1NW3Pnj3flJeXv9vA5MQxAQAAAAA1KC4urpCQSnZ99bsvODcSaroZZsoSymefffY1+T1ZsGDB+kQI4gEg0cyZM+c5+ZzMzc3t73dfAAAAAKBek82JZADWu3fvwX73BYnnwgsvvHjZsmV75Hdk7ty5LzVs2LCR330CgESUmZnZ6cCBA9+XlZVt87svAAAAAOCLVq1apctu0m6fJycn5yYJq+67775fun0u1KyuSxSdWh5ZFxdddFHz5cuX75Pfj8cee2xlUlJSQ6/ODQCJRK4Z3K9fv7vO9LiysrKt8pmZlZXVxYt+AQAAAEDCuPbaa3t5NcNDro24b9++b2XHai/OB3t33nnnlDMFhrIBkGzK48WmE3I9uN/+9rf/KQPz2bNnL+GacADqs06dOv3o+eef35udnd3T7v7HH3981dixY4vOdJxevXrly+emLD93vJMAAAAA4DeZade2bduspk2bNou+fejQoZP27t379+nTpy/0qi8rV678vWxmIIGZV+fE6dasWfN2bTvtyjUyZeMfGSjLhlJuztRs0aLFpatXr35LzjVz5swyL2eFAoAfZMdz+cwrLS3dHHuf1GW5ry6Bpnxeyud5VVXViZYtW7Z2pbMAAAAA4CaZ/VjTfXfcccdkGSD17dt3mHwvu0Y/8sgjy+U2aTfffPNAr/o5Y8aMRXLOjh07dvfqnDhFrrsWCQ/t7peguaSkZG1kh3E3N+W59NJL21ZUVLwv55oyZcqTbp0HABKNhJny2XfdddfdGLmtQ4cOXSWcrGugKWQWvTx+woQJj7rWWQAAAABwiyxdW7Vq1X/IbEsJKGWDlej7ZMAzderUBenp6RkrVqz4XSTM3L9//8nox7qtf//+I+S8ErJ6dU6cMn78+F/I679t27ZP7ZadR3bOlRmabu5mbv4etlu3bt0f5VyTJ0+e59Z5ACARxc7SlOtmVlRUvBepzXUNNOUPlPJ5XllZeSQ5ObmJq50GAAAAADcMGTJkQnRQKZusTJo0aW7Pnj3zZWn5Sy+99JYMeiKPOXDggCGP8bKPbdu2vTqy8YuX50U1WZ4Yef+7d+/eO/b+jIyM9hJquhlmyjk2btz4F+nDmDFjHnTrPACQyCTM3LNnz3H5Q+OTTz65JvLZfDaBppDZmfIzXlzzGAAAAABc8fDDDy+LCiy/j/06+jZpEydOfMLL/sk1v2Q2ydq1a//Hy/Pi1HLzSJs1a9azXvfhyiuv7Pjqq69+LL+Hd91118+9Pj8AJAq5tnVaWlqbyGVhzjXQlI3V5NrU5eXl77KpGgAAAIBAkmsevvDCCwdiB0fh9n3sbT169OjjdR8jG86Yg7BLvD63yiLLzSPBdk3Lzt3Svn37nNdee+0zOffQoUMnenVeAPBLfn7+PeXl5e/JH/Fqavv27fs29o+NZxNoisjlQnJzc/u79FQAAAAAwF2y2YqEVbEDpNhWVVV13M1NX2oiy4zl/Hl5eQVen1tlstw89ndi0qRJnszQlU2g5HIHcimEAQMG6F6cEwASQbdu3W7ZvHnz4drqcTwzNIXMwJfP97Kysm0uPQ0AAAAAcJ8MoPbt23eyplBTrp/p18CnR48et/qx3F1lscvNY0LNuQ0aNEhy69w5OTl5O3fu/FxmIclsJbfOAwCJqnnz5q0WLlz4qt2lX5wINIXUdPnZrKysLi48BQAAAADwxt133z01El7aDZhGjRo1y49+yW6uMlNv8eLFlX6cX0Xjxo17xCbU/mFQvXXr1v+Va2rKRkFOhps33HBD39dff/3rqqqqE7fccss/OnVcAAgauYb0yJEjZ0j9s7sETLyBpiw3l5+V5ecudB8AAAAAvFNUVPR8TQMmWQbsV79eeumlN3ft2vWll9dwVJndcvOarq8q4ebMmTPLZJZvPOGmDK5lowrZxTcvL2+Ak88HAIIqJyfnJtkczelAUwJT+ayXPyC1bNmytQtdBwAAAABvXHDBBckrVqz4XWx4tWPHjmNuLjM+k9mzZy9haZw3altuXluTgbFs3nMuu+beeuutt+/du/fvElrLJQbceF4AEFRnWoJ+LoGmGDRo0Dj5+QkTJjzqcJcBAAAAwFvp6ekZsrt09Cy84uLiCj/79NOf/nSM9GPw4MHj/eyHCuyWm9c0O3PNmjV/kMdLCHqu5+vbt+8wuV6mhObZ2dk9nXwuAFBf1LYE/VwDTfkjpmwKKJuwJScnN3G4ywAAAADgrZ49e/7EHDR9FxksDR06dJKf/bnyyiuvkX7Ikng/+6ECu+Xm0d+vW7fug8LCwqe7dOmSG++5Bg4c+DP5Pdu+ffvRTp06/ciJ/gNAfSaX99iyZctfnQg0hczOlGPIbE0HuwkAAAAA/hg9evTsyGCpXbt2Hfzsi8xMqays/L9XXnnlHT/7Ud/FLDd3dCZmLJltK2GmOTD/JCsr61qnjgsA9V1qauolkV3K4w00zWOlyfWLy8vL3z2XS4YAAAAAQEKREFGWmm/atOkjv/siSktLN8tMwWbNmrXwuy/1VfRyc5mp6XSIGTFixIgH5Bwyy8iN4wNAfSfh49ixY+fIEvR4Ak0hO53LZ7JszuZQ9wAAAADgnO0226F4WpMmTT4cPXr00XiP40QbN27csT179nyfnZ192IHjyWtTXwzRHHqN58+f/5W8zpmZmR85dczYlp6e/hd5Hzds2PBt27Zt/+LWeaKavD4AUC917969aPDgwUe0OD4ns7KyQruoFxYWfh7PcRK0UQMAAACAgDmUlJRkXHHFFfWidejQwbjqqqviPo68Jlr1IKe+0M1mtGjRwvf3qK6toKDAMAfhrp5DXg95XcKvDwDUV7rmQA3Izc31rAZ40agBAAAAQHAdkv/U43Tymmj1MNB87rnn/H5pE4q8HhqDWQD1n65RAyyoAQAAAEBwEWjaINBUA4NZAIrQNWqABTUAAAAACC4CTRsEmmpgMAtAEbpGDbCgBgAAAADBRaBpg0BTDQxmAShC16gBFtQAAAAAILgING0QaKqBwSwARegaNcCCGgAAAAAEF4GmDQJNNTCYBaAIXaMGWFADAAAAgOAi0LRBoKkGBrMAFKFr1AALagAAAAAQXASaNgg01cBgFoAidI0aYEENAAAAAIKLQNMGgaYaGMwCUISuUQMsqAEAAABAcBFo2iDQVAODWQCK0DVqgAU1AAAAAAguAk0bBJpqYDALQBG6Rg2woAYAAAAAwUWgaYNAUw0MZgEoQteoARbUAAAAACC4CDRtEGiqgcEsAEXoGjXAghoAAAAABBeBpg0CTTUwmAWgCF2jBlhQAwAAAIDgItC0QaCpBgazABSha9QAC2oAAAAAEFwEmjYINNXAYBaAInSNGmBBDQAAAACCi0DTBoGmGhjMAlCErlEDLKgBAAAAQHARaNog0FQDg1kAitA1aoAFNQAAAAAILgJNGwSaamAwC0ARukYNsKAGAAAAAMFFoGmDQFMNDGYBKELXqAEW1AAAAAAguAg0bRBoqoHBLABF6Bo1wIIaAAAAAAQXgaYNAk01MJgFoAhdowZYUAMAAACA4CLQtEGgqQYGswAUoWvUAAtqAAAAABBcBJo2CDTVwGAWgCJ0jRpgQQ0AAAAAgsvXQPPw4cPGtGnTjD59+hhpaWlGamqq0b17d2P69OnGkSNHfOsXgaazEvV9ZjALQBG6Rg2woAYAAAAAweVboLl69WqjRYsWocFEo0aNjJycHKN9+/bG+eefH7qtWbNmxsGDB33pG4GmcxL5fWYwC0ARukYNsKAGAAAAAMHlS6C5fv360CBCBjS//vWvjW+++eaH+44dO2ZMnTo1dH9GRoZx9OhRz/tHoOmMRH+fGcwCUISuUQMsqAEAAABAcHkeaB4/ftxo3bp1aBCxdevWGh83bNiw0GMWL17sYe+qEWjGLwjvM4NZAIrQNWqABTUAAAAACC7PA81ly5aFBhD9+vWr9XGvvfaa0bBhQ6Nv374e9ewUAs34BeF9ZjALQBG6Rg2woAYAAAAAweV5oDlkyJDQAGLdunWenvdsEGjGLwjvM4NZAIrQNWqABTUAAAAACC7PA81wWGi8//77np73bBBoOvYaJvT7zGAWgCJ0jRpgQQ0AAAAAgsvzQDMlJcU477zzQtfXSlQEmvELwvvMYFZZF5utU1RrVM9+Doila9QAC2oAAAAAEFyeB5qNGzc2GjRoYJw4ccLT854NAs34BeF9ZjCrrJFa9fseae3q2c8BsXSNGmBBDQAAAACCy/NAs02bNqEBxHvvvXfGx3799dfGl19+aXz33Xce9OwUAs34BeF9ZjCrrKAEkwSacIquUQMsqAEAAABAcHkeaA4YMCA0gFi7du0ZH5uamhpasvbZZ5950LNTCDTjF4T3mcGssoISTBJowim6Rg2woAYAAAAAweV5oLlo0aLQAKJ37961Pu6NN94IPa5z584e9ewUAs34BeF9ZjCrrCvMNiSqpdSznwNi6Ro1wIIaAAAAAASX54GmLCuT2RjmuY2Kigrbx5w8edIoKCgIPaawsNDT/gkCzfgF4X1mMAtAEbpGDbCgBgAAAADB5XmgKVatWhUaRCQlJRnFxcWh62dFfPHFF8Y999wTuv+yyy4zjh075nn/CDSdkejvM4NZAIrQNWqABTUAAAAACC5fAk2xePFio2nTpqHBRMOGDY0uXboY119/0dlIfwAACBJJREFUvdGkSZPQbZdccomxY8cOX/pGoOmcRH6fGcwCUISuUQMsqAEAAABAcPkWaIpDhw4Z48ePN3r27GlcfPHFRlpamnHjjTcaM2fO9GW2RgSBprMS9X1mMAtAEbpGDbCgBgAAAADB5WugmagINNXAYBaAInSNGmBBDQAAAACCi0DTBoGmGhjMAlCErlEDLKgBAAAAQHARaNog0FQDg1kAitA1aoAFNQAAAAAILgJNGwSaamAwC0ARukYNsKAGAAAAAMFFoGmDQFMNDGYBKELXqAEW1AAAAAAguAg0bRBoqoHBLABF6Bo1wIIaAAAAAAQXgaYNAk01MJgFoAhdowZYUAMAAACA4CLQtEGgqQYGswAUoWvUAAtqAAAAABBcBJo2CDTVwGAWgCJ0jRpgQQ0AAAAAgotA0waBphoYzAJQhK5RAyyoAQAAAEBwEWjaINBUA4NZAIrQNWqABTUAAAAACC4CTRsEmmpgMAtAEbpGDbCgBgAAAADBRaBpg0BTDQxmAShC16gBFtQAAAAAILgING0QaKqBwSwARegaNcCCGgAAAAAEF4GmDQJNNTCYBaAIXaMGWFADAAAAgOAi0LRBoKkGBrMAFKFr1AALagAAAAAQXASaNgg01cBgFoAidI0aYEENAAAAAIKLQNMGgaYaGMwCUISuUQMsqAEAAABAcBFo2iDQVAODWQCK0DVqgAU1AAAAAAguAk0bBJpqYDALQBG6Rg2woAYAAAAAwUWgaYNAUw0MZgFXLTfbDLO9YrYtZvu52f4ljuO1NttaB/p1Jg3N9pTZppltltkKw7ffbrbjZusT/v48s/3CbI+b7QKz3Wy2Z8w20WwPmG212S72oL91oWs11IBjx44Zw4cPNyoqKoyPP/7YKCgoqPNn6K5du4yuXbs6+KnsLWoAAAAAEFwEmjYINNXAYBZwVc/wv5PM9ljMbbVppVUHiXaS4+1UHc5zq9l+GfV9XtTXG8w2IOp7CTQlzLzCbG+Z7fyo+24wW6ojPY2PPM81Wi01oKioKBRoiq+//rrOn6HffvstgSYAAAAAXxBo2iDQVAODWcAT0YFmS7MtM9s/m222Vj3b8bDZ0s32nNm6m22OVj2j86aY48h9B8Nf36JVz4aUmZSdYh432Ww7zFZqtv8yW5rZmputzGxTwudPreU8WeE+jTZbk5j7Csy2Lvx1itkeCn891WzFNTz/umhmtiVmu1+rDh8v16pD1bla9YxPu+d0Ns9TwtbTasCRI0eMkSNHGiUlJcaAAQNCgeb+/ft/CCgrKyuNyZMnG1OnTjXefPNN48knnzR+/OMfG4WFhUZ+fr7x6aefnhZofvTRR6H7Zs6caZSWlhrz5s0z8vLyjKNHjxrl5eXGAw884MfHfK2oAQAAAEBwEWjaINBUA4NZwBPRgaYsQdfDX/9eq17eLYHbIrP1C9/+D1GPjyaPjQSa8812d/i22NDxerMtDn+9IHxcOe/I8G0/M9vMWs4jJGiVsPOz8OMiksz2gdkuCx+vffj2ErNNj3pcU7NdqlXPjqwLWaL+T+Gvs8LPSUJOCSk31/CczuZ5Sgh7Wg144oknfvh+zpw5oUAzOqCUAHLFihWh27788ktj+/btxrRp00L3lZWVhQLL6Md/9dVXoeXrn3zyiXHbbbcZx48fN66++mrjxIkTxqJFi0IBaqKhBgAAAADBRaBpg0BTDQxmAU9EB5oSXMrMyvFa9TU2JbST60x+arZLwo+pS6ApMxjlGpX/braMmMdFB32PhY8n30cC05+Y7dlazhOtl9neiblNAtgHterZkxFyvc3oGZrSv91a9SzK2J+V5/B6zO3Sv/yo768IH1NCzm01PKezeZ6WQHPMmDGhWZjCLtD88MMPjdtvvz00y/KDDz44LdDcuHGjMXHixNMef+jQIaO4uNhYsmSJ0adPn9BtU6ZMMV555RVj7ty5Hn6y1x01AAAAAAguAk0bBJpqYDALeCI60JRrVo60uX+Q2V4If99fq95oJ1Z0oNk2/O89WnW4GM0u6IuduTijlvMM1E7NrJQZmVUx98vszL9q1TNEI6Q/suw7+hqaL2vV1+OsC5ndeX/U9xL8yhJ7WaJ/NoFmTc9zvRZTAx588MFaZ2j+6U9/Cv374osvGo8++uhpgebixYuNBQsWnPb4e++9N7RkXZaiRwJNWareqVMnY9OmTR59qp8dagAAAAAQXASaNgg01cBgFnDd1WZbYbZ/M1tnrXoZtnwtS6SHmW24Vn29xwvN9gezjdCqZyfKcvSBMce62Wx/NNs14Z+REPA3Zusa87hRWvUybVmuLbM4ZTm3XFtycfjn5GdSazmPBIUSrkaui2kXSsr1KRvH3JZrtl+Z7V6tOqRdqVUvH68LmaVarlVfD3Nm+BjyHCaY7W2t+pqjsc/pbJ7nIS2mBvz5z38OXRNTrpEp18ScNWtWKLRs166d8dZbbxlPP/106LqZo0ePNg4ePBi6r1+/fsbChQuNUaNGGX/7299Cu5xnZmYa77zzTujYstRclqN36NAhtGO6GDhwoHHy5EmfPuVrRw0AAAAAgotA0waBphoYzAJQhK7FWQMk0DybjX2++eab0HU0JeBMVNQAAAAAILgOJSUlhQI82qkmr4lWDwPNFi1a+P7aJlKT10NjMAug/tO1OGtAamqqkZKSYrRp06ZOj7/oootC7fLLL/f9s54aAAAAANQ/smnBIZptk9emvhii+f96JnKT1wcA6itqADUAAAAAAAAAAAAAAPzx/+kdtm/8oa9WAAAAAElFTkSuQmCC;clipPath=inset(0% 33.33% 0% 0%);" vertex="1" parent="1">
          <mxGeometry x="636" y="480" width="156.69" height="170" as="geometry" />
        </mxCell>
        <mxCell id="RxWRS2uSTApHkLGO5Vkt-73" value="" style="endArrow=none;html=1;rounded=0;exitX=0.25;exitY=0;exitDx=0;exitDy=0;" edge="1" parent="1">
          <mxGeometry width="50" height="50" relative="1" as="geometry">
            <mxPoint x="630" y="440" as="sourcePoint" />
            <mxPoint x="630.5" y="670" as="targetPoint" />
          </mxGeometry>
        </mxCell>
        <mxCell id="RxWRS2uSTApHkLGO5Vkt-75" value="" style="endArrow=classic;html=1;rounded=0;entryX=-0.009;entryY=0.346;entryDx=0;entryDy=0;entryPerimeter=0;" edge="1" parent="1" target="RxWRS2uSTApHkLGO5Vkt-71">
          <mxGeometry width="50" height="50" relative="1" as="geometry">
            <mxPoint x="412.25" y="520" as="sourcePoint" />
            <mxPoint x="540" y="522.3799999999999" as="targetPoint" />
          </mxGeometry>
        </mxCell>
        <mxCell id="RxWRS2uSTApHkLGO5Vkt-76" value="" style="endArrow=classic;html=1;rounded=0;entryX=0;entryY=0.696;entryDx=0;entryDy=0;entryPerimeter=0;exitX=0;exitY=0.696;exitDx=0;exitDy=0;exitPerimeter=0;" edge="1" parent="1" source="RxWRS2uSTApHkLGO5Vkt-71">
          <mxGeometry width="50" height="50" relative="1" as="geometry">
            <mxPoint x="460" y="550" as="sourcePoint" />
            <mxPoint x="410" y="600" as="targetPoint" />
          </mxGeometry>
        </mxCell>
        <mxCell id="RxWRS2uSTApHkLGO5Vkt-77" value="{state}" style="text;html=1;strokeColor=none;fillColor=none;align=center;verticalAlign=middle;whiteSpace=wrap;rounded=0;" vertex="1" parent="1">
          <mxGeometry x="440" y="600" width="80" height="30" as="geometry" />
        </mxCell>
        <mxCell id="RxWRS2uSTApHkLGO5Vkt-78" value="{action}" style="text;html=1;strokeColor=none;fillColor=none;align=center;verticalAlign=middle;whiteSpace=wrap;rounded=0;" vertex="1" parent="1">
          <mxGeometry x="440" y="490" width="80" height="30" as="geometry" />
        </mxCell>
        <mxCell id="RxWRS2uSTApHkLGO5Vkt-79" value="Simulation" style="text;html=1;strokeColor=none;fillColor=none;align=center;verticalAlign=middle;whiteSpace=wrap;rounded=0;" vertex="1" parent="1">
          <mxGeometry x="670" y="440" width="60" height="30" as="geometry" />
        </mxCell>
        <mxCell id="RxWRS2uSTApHkLGO5Vkt-80" value="Spring Boot &lt;br&gt;REST Server" style="text;whiteSpace=wrap;html=1;" vertex="1" parent="1">
          <mxGeometry x="550" y="440" width="90" height="40" as="geometry" />
        </mxCell>
        <mxCell id="RxWRS2uSTApHkLGO5Vkt-81" value="POST: /action" style="text;html=1;strokeColor=none;fillColor=none;align=center;verticalAlign=middle;whiteSpace=wrap;rounded=0;" vertex="1" parent="1">
          <mxGeometry x="540" y="510" width="80" height="30" as="geometry" />
        </mxCell>
        <mxCell id="RxWRS2uSTApHkLGO5Vkt-82" value="GET: /state" style="text;html=1;strokeColor=none;fillColor=none;align=center;verticalAlign=middle;whiteSpace=wrap;rounded=0;" vertex="1" parent="1">
          <mxGeometry x="540" y="580" width="80" height="30" as="geometry" />
        </mxCell>
        <mxCell id="RxWRS2uSTApHkLGO5Vkt-83" value="" style="endArrow=classic;html=1;rounded=0;entryX=-0.009;entryY=0.346;entryDx=0;entryDy=0;entryPerimeter=0;dashed=1;" edge="1" parent="1">
          <mxGeometry width="50" height="50" relative="1" as="geometry">
            <mxPoint x="535.75" y="530" as="sourcePoint" />
            <mxPoint x="410" y="530" as="targetPoint" />
          </mxGeometry>
        </mxCell>
        <mxCell id="RxWRS2uSTApHkLGO5Vkt-84" value="{reward}" style="text;html=1;strokeColor=none;fillColor=none;align=center;verticalAlign=middle;whiteSpace=wrap;rounded=0;" vertex="1" parent="1">
          <mxGeometry x="440" y="530" width="80" height="30" as="geometry" />
        </mxCell>
        <mxCell id="RxWRS2uSTApHkLGO5Vkt-85" value="action" style="text;html=1;strokeColor=none;fillColor=none;align=center;verticalAlign=middle;whiteSpace=wrap;rounded=0;" vertex="1" parent="1">
          <mxGeometry x="220" y="490" width="80" height="30" as="geometry" />
        </mxCell>
        <mxCell id="RxWRS2uSTApHkLGO5Vkt-86" value="state" style="text;html=1;strokeColor=none;fillColor=none;align=center;verticalAlign=middle;whiteSpace=wrap;rounded=0;" vertex="1" parent="1">
          <mxGeometry x="220" y="570" width="80" height="30" as="geometry" />
        </mxCell>
      </root>
    </mxGraphModel>
  </diagram>
</mxfile>
